<svg width="295" height="170" viewBox="0 0 295 170" fill="none" xmlns="http://www.w3.org/2000/svg">
<circle cx="1.54709" cy="1.99395" r="1.54709" fill="white" fill-opacity="0.1"/>
<circle cx="23.98" cy="1.99395" r="1.54709" fill="white" fill-opacity="0.1"/>
<circle cx="46.4128" cy="1.99395" r="1.54709" fill="white" fill-opacity="0.1"/>
<circle cx="68.8457" cy="1.99395" r="1.54709" fill="white" fill-opacity="0.1"/>
<circle cx="91.2785" cy="1.99395" r="1.54709" fill="white" fill-opacity="0.1"/>
<circle cx="113.711" cy="1.99395" r="1.54709" fill="white" fill-opacity="0.1"/>
<circle cx="136.144" cy="1.99395" r="1.54709" fill="white" fill-opacity="0.1"/>
<circle cx="158.577" cy="1.99395" r="1.54709" fill="white" fill-opacity="0.1"/>
<circle cx="181.01" cy="1.99395" r="1.54709" fill="white" fill-opacity="0.1"/>
<circle cx="203.443" cy="1.99395" r="1.54709" fill="white" fill-opacity="0.1"/>
<circle cx="225.876" cy="1.99395" r="1.54709" fill="white" fill-opacity="0.1"/>
<circle cx="248.309" cy="1.99395" r="1.54709" fill="white" fill-opacity="0.1"/>
<circle cx="270.741" cy="1.99395" r="1.54709" fill="white" fill-opacity="0.1"/>
<circle cx="293.174" cy="1.99395" r="1.54709" fill="white" fill-opacity="0.1"/>
<circle cx="1.54709" cy="20.5591" r="1.54709" fill="white" fill-opacity="0.1"/>
<circle cx="23.98" cy="20.5591" r="1.54709" fill="white" fill-opacity="0.1"/>
<circle cx="46.4128" cy="20.5591" r="1.54709" fill="white" fill-opacity="0.1"/>
<circle cx="68.8457" cy="20.5591" r="1.54709" fill="white" fill-opacity="0.1"/>
<circle cx="91.2785" cy="20.5591" r="1.54709" fill="white" fill-opacity="0.1"/>
<circle cx="113.711" cy="20.5591" r="1.54709" fill="white" fill-opacity="0.1"/>
<circle cx="136.144" cy="20.5591" r="1.54709" fill="white" fill-opacity="0.1"/>
<circle cx="158.577" cy="20.5591" r="1.54709" fill="white" fill-opacity="0.1"/>
<circle cx="181.01" cy="20.5591" r="1.54709" fill="white" fill-opacity="0.1"/>
<circle cx="203.443" cy="20.5591" r="1.54709" fill="white" fill-opacity="0.1"/>
<circle cx="225.876" cy="20.5591" r="1.54709" fill="white" fill-opacity="0.1"/>
<circle cx="248.309" cy="20.5591" r="1.54709" fill="white" fill-opacity="0.1"/>
<circle cx="270.741" cy="20.5591" r="1.54709" fill="white" fill-opacity="0.1"/>
<circle cx="293.174" cy="20.5591" r="1.54709" fill="white" fill-opacity="0.1"/>
<g opacity="0.6">
<circle cx="1.54709" cy="39.1242" r="1.54709" fill="white" fill-opacity="0.1"/>
<circle cx="23.98" cy="39.1242" r="1.54709" fill="white" fill-opacity="0.1"/>
<circle cx="46.4128" cy="39.1242" r="1.54709" fill="white" fill-opacity="0.1"/>
<circle cx="68.8457" cy="39.1242" r="1.54709" fill="white" fill-opacity="0.1"/>
<circle cx="91.2785" cy="39.1242" r="1.54709" fill="white" fill-opacity="0.1"/>
<circle cx="113.711" cy="39.1242" r="1.54709" fill="white" fill-opacity="0.1"/>
<circle cx="136.144" cy="39.1242" r="1.54709" fill="white" fill-opacity="0.1"/>
<circle cx="158.577" cy="39.1242" r="1.54709" fill="white" fill-opacity="0.1"/>
<circle cx="181.01" cy="39.1242" r="1.54709" fill="white" fill-opacity="0.1"/>
<circle cx="203.443" cy="39.1242" r="1.54709" fill="white" fill-opacity="0.1"/>
<circle cx="225.876" cy="39.1242" r="1.54709" fill="white" fill-opacity="0.1"/>
<circle cx="248.309" cy="39.1242" r="1.54709" fill="white" fill-opacity="0.1"/>
<circle cx="270.741" cy="39.1242" r="1.54709" fill="white" fill-opacity="0.1"/>
<circle cx="293.174" cy="39.1242" r="1.54709" fill="white" fill-opacity="0.1"/>
</g>
<g opacity="0.6">
<circle cx="1.54709" cy="57.6893" r="1.54709" fill="white" fill-opacity="0.1"/>
<circle cx="23.98" cy="57.6893" r="1.54709" fill="white" fill-opacity="0.1"/>
<circle cx="46.4128" cy="57.6893" r="1.54709" fill="white" fill-opacity="0.1"/>
<circle cx="68.8457" cy="57.6893" r="1.54709" fill="white" fill-opacity="0.1"/>
<circle cx="91.2785" cy="57.6893" r="1.54709" fill="white" fill-opacity="0.1"/>
<circle cx="113.711" cy="57.6893" r="1.54709" fill="white" fill-opacity="0.1"/>
<circle cx="136.144" cy="57.6893" r="1.54709" fill="white" fill-opacity="0.1"/>
<circle cx="158.577" cy="57.6893" r="1.54709" fill="white" fill-opacity="0.1"/>
<circle cx="181.01" cy="57.6893" r="1.54709" fill="white" fill-opacity="0.1"/>
<circle cx="203.443" cy="57.6893" r="1.54709" fill="white" fill-opacity="0.1"/>
<circle cx="225.876" cy="57.6893" r="1.54709" fill="white" fill-opacity="0.1"/>
<circle cx="248.309" cy="57.6893" r="1.54709" fill="white" fill-opacity="0.1"/>
<circle cx="270.741" cy="57.6893" r="1.54709" fill="white" fill-opacity="0.1"/>
<circle cx="293.174" cy="57.6893" r="1.54709" fill="white" fill-opacity="0.1"/>
</g>
<g opacity="0.4">
<circle cx="1.54709" cy="76.2545" r="1.54709" fill="white" fill-opacity="0.1"/>
<circle cx="23.98" cy="76.2545" r="1.54709" fill="white" fill-opacity="0.1"/>
<circle cx="46.4128" cy="76.2545" r="1.54709" fill="white" fill-opacity="0.1"/>
<circle cx="68.8457" cy="76.2545" r="1.54709" fill="white" fill-opacity="0.1"/>
<circle cx="91.2785" cy="76.2545" r="1.54709" fill="white" fill-opacity="0.1"/>
<circle cx="113.711" cy="76.2545" r="1.54709" fill="white" fill-opacity="0.1"/>
<circle cx="136.144" cy="76.2545" r="1.54709" fill="white" fill-opacity="0.1"/>
<circle cx="158.577" cy="76.2545" r="1.54709" fill="white" fill-opacity="0.1"/>
<circle cx="181.01" cy="76.2545" r="1.54709" fill="white" fill-opacity="0.1"/>
<circle cx="203.443" cy="76.2545" r="1.54709" fill="white" fill-opacity="0.1"/>
<circle cx="225.876" cy="76.2545" r="1.54709" fill="white" fill-opacity="0.1"/>
<circle cx="248.309" cy="76.2545" r="1.54709" fill="white" fill-opacity="0.1"/>
<circle cx="270.741" cy="76.2545" r="1.54709" fill="white" fill-opacity="0.1"/>
<circle cx="293.174" cy="76.2545" r="1.54709" fill="white" fill-opacity="0.1"/>
</g>
<g opacity="0.4">
<circle cx="1.54709" cy="94.8196" r="1.54709" fill="white" fill-opacity="0.1"/>
<circle cx="23.98" cy="94.8196" r="1.54709" fill="white" fill-opacity="0.1"/>
<circle cx="46.4128" cy="94.8196" r="1.54709" fill="white" fill-opacity="0.1"/>
<circle cx="68.8457" cy="94.8196" r="1.54709" fill="white" fill-opacity="0.1"/>
<circle cx="91.2785" cy="94.8196" r="1.54709" fill="white" fill-opacity="0.1"/>
<circle cx="113.711" cy="94.8196" r="1.54709" fill="white" fill-opacity="0.1"/>
<circle cx="136.144" cy="94.8196" r="1.54709" fill="white" fill-opacity="0.1"/>
<circle cx="158.577" cy="94.8196" r="1.54709" fill="white" fill-opacity="0.1"/>
<circle cx="181.01" cy="94.8196" r="1.54709" fill="white" fill-opacity="0.1"/>
<circle cx="203.443" cy="94.8196" r="1.54709" fill="white" fill-opacity="0.1"/>
<circle cx="225.876" cy="94.8196" r="1.54709" fill="white" fill-opacity="0.1"/>
<circle cx="248.309" cy="94.8196" r="1.54709" fill="white" fill-opacity="0.1"/>
<circle cx="270.741" cy="94.8196" r="1.54709" fill="white" fill-opacity="0.1"/>
<circle cx="293.174" cy="94.8196" r="1.54709" fill="white" fill-opacity="0.1"/>
</g>
<g opacity="0.3">
<circle cx="1.54709" cy="113.385" r="1.54709" fill="white" fill-opacity="0.1"/>
<circle cx="23.98" cy="113.385" r="1.54709" fill="white" fill-opacity="0.1"/>
<circle cx="46.4128" cy="113.385" r="1.54709" fill="white" fill-opacity="0.1"/>
<circle cx="68.8457" cy="113.385" r="1.54709" fill="white" fill-opacity="0.1"/>
<circle cx="91.2785" cy="113.385" r="1.54709" fill="white" fill-opacity="0.1"/>
<circle cx="113.711" cy="113.385" r="1.54709" fill="white" fill-opacity="0.1"/>
<circle cx="136.144" cy="113.385" r="1.54709" fill="white" fill-opacity="0.1"/>
<circle cx="158.577" cy="113.385" r="1.54709" fill="white" fill-opacity="0.1"/>
<circle cx="181.01" cy="113.385" r="1.54709" fill="white" fill-opacity="0.1"/>
<circle cx="203.443" cy="113.385" r="1.54709" fill="white" fill-opacity="0.1"/>
<circle cx="225.876" cy="113.385" r="1.54709" fill="white" fill-opacity="0.1"/>
<circle cx="248.309" cy="113.385" r="1.54709" fill="white" fill-opacity="0.1"/>
<circle cx="270.741" cy="113.385" r="1.54709" fill="white" fill-opacity="0.1"/>
<circle cx="293.174" cy="113.385" r="1.54709" fill="white" fill-opacity="0.1"/>
</g>
<g opacity="0.3">
<circle cx="1.54709" cy="131.95" r="1.54709" fill="white" fill-opacity="0.1"/>
<circle cx="23.98" cy="131.95" r="1.54709" fill="white" fill-opacity="0.1"/>
<circle cx="46.4128" cy="131.95" r="1.54709" fill="white" fill-opacity="0.1"/>
<circle cx="68.8457" cy="131.95" r="1.54709" fill="white" fill-opacity="0.1"/>
<circle cx="91.2785" cy="131.95" r="1.54709" fill="white" fill-opacity="0.1"/>
<circle cx="113.711" cy="131.95" r="1.54709" fill="white" fill-opacity="0.1"/>
<circle cx="136.144" cy="131.95" r="1.54709" fill="white" fill-opacity="0.1"/>
<circle cx="158.577" cy="131.95" r="1.54709" fill="white" fill-opacity="0.1"/>
<circle cx="181.01" cy="131.95" r="1.54709" fill="white" fill-opacity="0.1"/>
<circle cx="203.443" cy="131.95" r="1.54709" fill="white" fill-opacity="0.1"/>
<circle cx="225.876" cy="131.95" r="1.54709" fill="white" fill-opacity="0.1"/>
<circle cx="248.309" cy="131.95" r="1.54709" fill="white" fill-opacity="0.1"/>
<circle cx="270.741" cy="131.95" r="1.54709" fill="white" fill-opacity="0.1"/>
<circle cx="293.174" cy="131.95" r="1.54709" fill="white" fill-opacity="0.1"/>
</g>
<g opacity="0.3">
<circle cx="1.54709" cy="150.515" r="1.54709" fill="white" fill-opacity="0.1"/>
<circle cx="23.98" cy="150.515" r="1.54709" fill="white" fill-opacity="0.1"/>
<circle cx="46.4128" cy="150.515" r="1.54709" fill="white" fill-opacity="0.1"/>
<circle cx="68.8457" cy="150.515" r="1.54709" fill="white" fill-opacity="0.1"/>
<circle cx="91.2785" cy="150.515" r="1.54709" fill="white" fill-opacity="0.1"/>
<circle cx="113.711" cy="150.515" r="1.54709" fill="white" fill-opacity="0.1"/>
<circle cx="136.144" cy="150.515" r="1.54709" fill="white" fill-opacity="0.1"/>
<circle cx="158.577" cy="150.515" r="1.54709" fill="white" fill-opacity="0.1"/>
<circle cx="181.01" cy="150.515" r="1.54709" fill="white" fill-opacity="0.1"/>
<circle cx="203.443" cy="150.515" r="1.54709" fill="white" fill-opacity="0.1"/>
<circle cx="225.876" cy="150.515" r="1.54709" fill="white" fill-opacity="0.1"/>
<circle cx="248.309" cy="150.515" r="1.54709" fill="white" fill-opacity="0.1"/>
<circle cx="270.741" cy="150.515" r="1.54709" fill="white" fill-opacity="0.1"/>
<circle cx="293.174" cy="150.515" r="1.54709" fill="white" fill-opacity="0.1"/>
</g>
<g opacity="0.2">
<circle cx="1.54709" cy="169.08" r="1.54709" fill="white" fill-opacity="0.1"/>
<circle cx="23.98" cy="169.08" r="1.54709" fill="white" fill-opacity="0.1"/>
<circle cx="46.4128" cy="169.08" r="1.54709" fill="white" fill-opacity="0.1"/>
<circle cx="68.8457" cy="169.08" r="1.54709" fill="white" fill-opacity="0.1"/>
<circle cx="91.2785" cy="169.08" r="1.54709" fill="white" fill-opacity="0.1"/>
<circle cx="113.711" cy="169.08" r="1.54709" fill="white" fill-opacity="0.1"/>
<circle cx="136.144" cy="169.08" r="1.54709" fill="white" fill-opacity="0.1"/>
<circle cx="158.577" cy="169.08" r="1.54709" fill="white" fill-opacity="0.1"/>
<circle cx="181.01" cy="169.08" r="1.54709" fill="white" fill-opacity="0.1"/>
<circle cx="203.443" cy="169.08" r="1.54709" fill="white" fill-opacity="0.1"/>
<circle cx="225.876" cy="169.08" r="1.54709" fill="white" fill-opacity="0.1"/>
<circle cx="248.309" cy="169.08" r="1.54709" fill="white" fill-opacity="0.1"/>
<circle cx="270.741" cy="169.08" r="1.54709" fill="white" fill-opacity="0.1"/>
<circle cx="293.174" cy="169.08" r="1.54709" fill="white" fill-opacity="0.1"/>
</g>
</svg>
