<svg width="33" height="32" viewBox="0 0 33 32" fill="none" xmlns="http://www.w3.org/2000/svg">
<path d="M27.3462 0.963681C26.2138 1.06395 24.0906 1.42372 23.9726 1.53578C23.9491 1.55937 25.453 3.08693 27.3227 4.93298C29.1864 6.77902 30.7258 8.27709 30.7375 8.2594C30.7847 8.21811 31.115 6.48413 31.2153 5.76458C31.2861 5.25736 31.3214 4.47294 31.3391 2.97487L31.3686 0.898804L29.6405 0.904702C28.6851 0.9106 27.6529 0.940089 27.3462 0.963681Z" fill="#00BF19"/>
<path d="M22.1266 2.0725C19.3074 3.15182 17.3729 4.70297 15.7096 7.22138C14.766 8.64868 13.2266 11.574 12.1591 13.9627C11.416 15.6259 10.1479 19.0172 10.1951 19.2177C10.2069 19.2531 10.8144 19.8665 11.5457 20.5861L12.8786 21.8895L14.2588 21.4236C16.7241 20.592 18.7235 19.7368 21.7432 18.2328C24.4916 16.8586 25.8659 15.9739 27.128 14.7589C28.1896 13.7386 28.8974 12.7772 29.5579 11.4561C29.9295 10.7129 30.4308 9.47439 30.4013 9.36233C30.3778 9.26206 22.852 1.84249 22.7753 1.84249C22.7459 1.84838 22.451 1.94865 22.1266 2.0725ZM22.6397 7.15651C23.0643 7.24497 23.719 7.56936 24.0493 7.85246C25.1404 8.80202 25.3763 10.5006 24.586 11.7274C23.8665 12.8362 22.5217 13.3493 21.2596 12.9954C20.1331 12.6887 19.2543 11.6802 19.0833 10.5006C18.9535 9.62183 19.2779 8.67227 19.9384 8.0117C20.6698 7.27446 21.6783 6.95598 22.6397 7.15651Z" fill="#00BF19"/>
<path d="M21.3481 8.39507C20.9707 8.54252 20.5755 8.91409 20.3868 9.30335C20.2629 9.54516 20.2393 9.68671 20.2393 10.0996C20.2393 10.5301 20.2629 10.6481 20.4045 10.9371C20.7171 11.5681 21.3422 11.9456 22.0736 11.9456C22.8226 11.9456 23.4242 11.5622 23.7604 10.8663C23.9491 10.477 23.9432 9.76928 23.7545 9.34463C23.5775 8.95537 23.088 8.49533 22.7106 8.36558C22.3272 8.23583 21.7256 8.24762 21.3481 8.39507Z" fill="#00BF19"/>
<path d="M13.0321 8.4717C10.1834 9.89899 7.88318 11.9456 6.59153 14.1986C6.42639 14.4876 6.29074 14.7589 6.29074 14.7943C6.29074 14.8827 6.48537 14.9004 8.59093 15.0538C9.48151 15.1186 10.2954 15.1835 10.3957 15.1953C10.5726 15.2189 10.5726 15.2189 10.8911 14.4758C11.6637 12.6415 13.4626 8.99661 14.0052 8.16501C14.1468 7.94679 13.9757 7.99987 13.0321 8.4717Z" fill="#00BF19"/>
<path d="M22.7459 18.799C21.354 19.5362 19.3605 20.4681 17.8211 21.1051C17.367 21.2938 16.9836 21.453 16.9718 21.4648C16.9423 21.4825 17.2608 25.7467 17.2962 25.7821C17.3316 25.8175 18.2222 25.3103 18.7471 24.9505C20.2806 23.9007 21.8789 22.1844 23.0113 20.356C23.3357 19.837 24.2204 18.1856 24.2204 18.0971C24.2204 18.0264 24.126 18.0735 22.7459 18.799Z" fill="#00BF19"/>
<path d="M6.59739 19.9961C6.45584 20.0197 6.11376 20.3854 3.28866 23.5467C1.67263 25.3573 1.63135 25.4104 1.63135 25.6522C1.63135 26.0474 1.96753 26.2892 2.3332 26.1653C2.51603 26.1005 7.22257 20.869 7.26975 20.6685C7.37591 20.2733 7.03384 19.9253 6.59739 19.9961Z" fill="#00BF19"/>
<path d="M9.34582 22.4674C9.29274 22.4792 8.06008 23.7178 6.60329 25.2159C5.15241 26.7139 3.50099 28.4066 2.94069 28.9846C1.84368 30.1111 1.80829 30.1701 2.01472 30.5594C2.11498 30.754 2.20935 30.8012 2.49835 30.8012C2.75196 30.8012 2.48655 31.0607 6.84511 26.5665L10.0654 23.246V22.9982C10.0595 22.5677 9.77047 22.3554 9.34582 22.4674Z" fill="#00BF19"/>
<path d="M11.7699 24.9623C11.6107 25.0567 7.03388 30.2055 6.95721 30.3766C6.87464 30.5712 6.91593 30.7894 7.07517 30.9664C7.22852 31.1315 7.63547 31.1492 7.81241 30.9959C8.07782 30.7599 12.4482 25.8116 12.5248 25.6582C12.6369 25.44 12.5779 25.1746 12.3833 25.0213C12.224 24.8974 11.9292 24.8679 11.7699 24.9623Z" fill="#00BF19"/>
</svg>
