<svg width="33" height="32" viewBox="0 0 33 32" fill="none" xmlns="http://www.w3.org/2000/svg">
<g clip-path="url(#clip0_176_4086)">
<path d="M21.3225 9.74161C20.932 9.74161 20.6169 9.42643 20.6169 9.03599C20.6169 8.64554 20.932 8.33037 21.3225 8.33037C21.7129 8.33037 22.0281 8.64554 22.0281 9.03599C22.0281 9.42643 21.7129 9.74161 21.3225 9.74161Z" fill="#EF9805"/>
<path d="M25.5562 13.9753C25.1657 13.9753 24.8506 13.6601 24.8506 13.2697C24.8506 12.8793 25.1657 12.5641 25.5562 12.5641C25.9466 12.5641 26.2618 12.8793 26.2618 13.2697C26.2618 13.6601 25.9466 13.9753 25.5562 13.9753Z" fill="#EF9805"/>
<path fill-rule="evenodd" clip-rule="evenodd" d="M11.6538 0.114972C11.5162 0.183734 10.7411 0.827595 9.93472 1.55272C9.12833 2.27784 8.43446 2.8717 8.39696 2.8717C8.3532 2.8717 7.84061 2.44037 7.24676 1.91528C6.65916 1.39644 6.07156 0.908858 5.95279 0.846348C5.67149 0.690071 5.1464 0.646313 4.8401 0.746331C4.53379 0.846348 4.18999 1.1589 4.05246 1.4652C3.93994 1.70274 3.93369 2.31535 3.93369 15.9864C3.93369 17.144 3.93352 18.2097 3.93336 19.1908C3.93162 30.0552 3.93154 30.5598 4.18341 30.7984C4.19568 30.81 4.20854 30.821 4.22204 30.8325C4.24492 30.8521 4.26962 30.8732 4.29625 30.9015C4.69007 31.3203 5.4277 31.4453 5.92153 31.1765C6.05906 31.0953 6.65916 30.6014 7.25301 30.0764C7.84686 29.5575 8.35945 29.1262 8.39696 29.1262C8.43446 29.1262 9.12833 29.72 9.93472 30.4452C10.7411 31.1703 11.5162 31.8142 11.6538 31.8829C11.9538 32.0204 12.5352 32.0392 12.829 31.9142C12.9415 31.8704 13.7104 31.2266 14.5418 30.4764C15.3732 29.7326 16.0858 29.1262 16.1233 29.1262C16.1608 29.1262 16.8734 29.7326 17.6986 30.4764C18.5299 31.2141 19.3051 31.8642 19.4238 31.9142C19.7239 32.0392 20.2927 32.0267 20.5928 31.8829C20.7303 31.8142 21.5055 31.1703 22.3118 30.4452C23.1182 29.72 23.8121 29.1262 23.8496 29.1262C23.8934 29.1262 24.406 29.5575 24.9998 30.0764C25.5874 30.6014 26.175 31.089 26.2938 31.1515C26.5751 31.3078 27.1002 31.3516 27.4065 31.2516C27.7128 31.1515 28.0566 30.839 28.1941 30.5327C28.3066 30.2951 28.3129 29.6825 28.3129 15.9989C28.3129 2.27159 28.3066 1.70274 28.1941 1.4652C27.9566 0.940114 27.4377 0.652565 26.8251 0.702573C26.3375 0.74008 26.2625 0.790088 24.9435 1.95904C24.3809 2.45912 23.8871 2.8717 23.8496 2.8717C23.8121 2.8717 23.1182 2.27784 22.3118 1.55272C21.5055 0.827595 20.7303 0.183734 20.5928 0.114972C20.2927 -0.0225512 19.7114 -0.0413044 19.4176 0.083717C19.3051 0.127475 18.5362 0.777586 17.7048 1.52146C16.8734 2.26534 16.1608 2.8717 16.1233 2.8717C16.0858 2.8717 15.3732 2.26534 14.5418 1.52146C13.7104 0.777586 12.9415 0.127475 12.829 0.083717C12.5352 -0.0413044 11.9538 -0.0225512 11.6538 0.114972ZM16.7171 10.9731C17.0922 11.1481 17.1485 11.5857 16.8297 11.8857L16.6734 12.0295H8.74702L8.57824 11.8607C8.28444 11.5669 8.39071 11.0919 8.77827 10.9293C8.84703 10.9043 10.6161 10.8793 12.7039 10.8793C16.042 10.8731 16.5359 10.8856 16.7171 10.9731ZM23.5871 15.5301C23.8121 15.6801 23.9059 15.9552 23.8121 16.1865C23.8018 16.2109 23.7941 16.2337 23.7869 16.255C23.7771 16.2843 23.7681 16.3108 23.7547 16.3348C23.6269 16.5629 23.0916 16.5628 17.4617 16.5617C17.0442 16.5616 16.5987 16.5615 16.1233 16.5615C15.6483 16.5615 15.2031 16.5616 14.7859 16.5617C9.15592 16.5628 8.62037 16.5629 8.49193 16.3343C8.47843 16.3103 8.46942 16.2837 8.45947 16.2544C8.45231 16.2332 8.44465 16.2106 8.43446 16.1865C8.34695 15.9677 8.39696 15.7739 8.60949 15.5801L8.76577 15.4363H16.1045C22.6244 15.4363 23.4558 15.4489 23.5871 15.5301ZM23.6683 20.1372C23.8996 20.3684 23.8996 20.6935 23.6683 20.9248L23.4995 21.0936H8.74702L8.57824 20.9248C8.27194 20.6185 8.42196 20.0621 8.83453 19.9809C8.90329 19.9621 12.2351 19.9559 16.2296 19.9621L23.4995 19.9684L23.6683 20.1372ZM21.3225 7.38954C20.4146 7.38954 19.676 8.12809 19.676 9.03599C19.676 9.94388 20.4146 10.6824 21.3225 10.6824C22.2304 10.6824 22.9689 9.94388 22.9689 9.03599C22.9689 8.12809 22.2304 7.38954 21.3225 7.38954ZM25.5562 11.6233C24.6483 11.6233 23.9097 12.3618 23.9097 13.2697C23.9097 14.1776 24.6483 14.9162 25.5562 14.9162C26.4641 14.9162 27.2026 14.1776 27.2026 13.2697C27.2026 12.3618 26.4641 11.6233 25.5562 11.6233ZM26.8686 7.72353C27.0521 7.907 27.0521 8.20335 26.8686 8.38682L20.6733 14.5822C20.6297 14.6257 20.578 14.6603 20.5211 14.6838C20.4642 14.7074 20.4033 14.7195 20.3417 14.7195C20.2801 14.7195 20.2191 14.7074 20.1622 14.6838C20.1053 14.6603 20.0536 14.6257 20.01 14.5822C19.9665 14.5386 19.9319 14.4869 19.9083 14.43C19.8848 14.3731 19.8726 14.3121 19.8726 14.2505C19.8726 14.1889 19.8848 14.1279 19.9083 14.071C19.9319 14.0141 19.9665 13.9624 20.01 13.9189L26.2054 7.72353C26.2489 7.67992 26.3006 7.64533 26.3575 7.62172C26.4144 7.59812 26.4754 7.58596 26.537 7.58596C26.5986 7.58596 26.6596 7.59812 26.7165 7.62172C26.7734 7.64533 26.8251 7.67992 26.8686 7.72353ZM18.8815 3.59815C18.8815 3.37723 18.7024 3.19815 18.4815 3.19815C18.2606 3.19815 18.0815 3.37723 18.0815 3.59815V5.11465H16.7019C16.481 5.11465 16.3019 5.29374 16.3019 5.51465C16.3019 5.73556 16.481 5.91465 16.7019 5.91465H18.0815V7.43115C18.0815 7.65207 18.2606 7.83115 18.4815 7.83115C18.7024 7.83115 18.8815 7.65207 18.8815 7.43115V5.91465H20.2611C20.482 5.91465 20.6611 5.73556 20.6611 5.51465C20.6611 5.29374 20.482 5.11465 20.2611 5.11465H18.8815V3.59815Z" fill="#EF9805"/>
</g>
<defs>
<clipPath id="clip0_176_4086">
<rect width="32" height="32" fill="white" transform="translate(0.5)"/>
</clipPath>
</defs>
</svg>
