<svg width="67" height="24" viewBox="0 0 67 24" fill="none" xmlns="http://www.w3.org/2000/svg">
<path opacity="0.3" fill-rule="evenodd" clip-rule="evenodd" d="M54.7693 23.8974H11.6924V0H54.7693C61.3334 0 66.7693 5.33333 66.7693 12C66.7693 18.5641 61.436 23.8974 54.7693 23.8974Z" fill="white"/>
<path d="M12 24C18.6274 24 24 18.6274 24 12C24 5.37258 18.6274 0 12 0C5.37258 0 0 5.37258 0 12C0 18.6274 5.37258 24 12 24Z" fill="url(#paint0_linear_438_523)"/>
<path fill-rule="evenodd" clip-rule="evenodd" d="M5.43584 11.7948C8.92302 10.2564 11.282 9.23073 12.4102 8.82047C15.6923 7.38457 16.4102 7.17944 16.923 7.17944C17.0256 7.17944 17.2307 7.17945 17.4358 7.28201C17.5384 7.38457 17.5384 7.48714 17.641 7.5897C17.641 7.69227 17.641 7.89739 17.641 8.10252C17.4358 9.94868 16.7179 14.5641 16.3076 16.7179C16.1025 17.641 15.7948 17.9487 15.4871 17.9487C14.7692 18.0512 14.2564 17.5384 13.641 17.0256C12.6153 16.3077 11.9999 15.8974 10.9743 15.1794C9.74353 14.3589 10.564 13.9487 11.282 13.2307C11.4871 13.0256 14.564 10.2564 14.564 10.0512C14.564 10.0512 14.564 9.94868 14.4615 9.84611C14.3589 9.74355 14.2564 9.84611 14.2564 9.84611C14.1538 9.84611 12.5128 10.9743 9.23072 13.2307C8.71789 13.5384 8.30764 13.7435 7.89738 13.7435C7.48712 13.7435 6.66661 13.5384 6.05123 13.3333C5.33328 13.1282 4.71789 12.923 4.71789 12.5128C4.61533 12.3076 4.92302 12.1025 5.43584 11.7948Z" fill="white"/>
<path d="M32.6154 13.3333C32.6154 14.5641 31.5897 15.5897 30.0513 15.5897C28.6154 15.5897 27.5897 14.4615 27.5897 13.2307H29.0256C29.1282 13.8461 29.5384 14.2564 30.0513 14.2564C30.7692 14.2564 31.1795 13.9487 31.1795 13.3333C31.1795 12.8205 30.5641 12.6154 29.641 12.4102C28.5128 12.2051 27.6923 11.5897 27.6923 10.6666C27.6923 9.43587 28.6154 8.61536 30.1538 8.61536C31.4872 8.61536 32.6154 9.53843 32.6154 10.6666H31.1795C31.0769 10.2564 30.6666 9.94869 30.1538 9.94869C29.641 9.94869 29.1282 10.2564 29.1282 10.6666C29.1282 11.1795 30.0513 11.3846 30.8718 11.5897C31.7949 11.6923 32.6154 12.3077 32.6154 13.3333Z" fill="white"/>
<path d="M33.3334 15.3846V8.7179H36.6154C37.8462 8.7179 38.8718 9.74354 38.8718 10.9743C38.8718 12.2051 37.8462 13.2307 36.6154 13.2307H34.7693V15.4871H33.3334V15.3846ZM34.8718 10.0512V11.7948H36.6154C37.0257 11.7948 37.4359 11.3846 37.4359 10.8717C37.4359 10.3589 37.0257 9.94867 36.6154 9.94867H34.8718V10.0512Z" fill="white"/>
<path d="M39.1796 12.1025C39.1796 10.1538 40.8206 8.61536 42.7693 8.61536C44.718 8.61536 46.3591 10.1538 46.3591 12.1025C46.3591 14.0513 44.718 15.5897 42.7693 15.5897C40.8206 15.4872 39.1796 13.9487 39.1796 12.1025ZM42.7693 9.94869C41.6411 9.94869 40.6155 10.8718 40.6155 12.1025C40.6155 13.3333 41.5385 14.2564 42.7693 14.2564C43.8975 14.2564 44.9232 13.2307 44.9232 12.1025C44.9232 10.9743 43.8975 9.94869 42.7693 9.94869Z" fill="white"/>
<path d="M46.9744 15.3846V8.7179H50.2564C51.4872 8.7179 52.5128 9.74354 52.5128 10.9743C52.5128 11.8974 51.8974 12.7179 51.0769 13.0256L52.9231 15.3846H51.1795L49.5385 13.1282H48.5128V15.3846H46.9744ZM48.5128 11.7948H50.2564C50.6667 11.7948 51.0769 11.3846 51.0769 10.8717C51.0769 10.3589 50.6667 9.94867 50.2564 9.94867H48.5128V11.7948Z" fill="white"/>
<path d="M58.2564 8.7179V10.0512H56.3077V15.3846H54.8718V10.0512H52.9231V8.7179H58.2564Z" fill="white"/>
<defs>
<linearGradient id="paint0_linear_438_523" x1="12" y1="0" x2="12" y2="23.7949" gradientUnits="userSpaceOnUse">
<stop stop-color="#2AABEE"/>
<stop offset="1" stop-color="#229ED9"/>
</linearGradient>
</defs>
</svg>
