<svg width="67" height="24" viewBox="0 0 67 24" fill="none" xmlns="http://www.w3.org/2000/svg">
<path opacity="0.3" fill-rule="evenodd" clip-rule="evenodd" d="M54.7693 23.8974H11.6924V0H54.7693C61.3334 0 66.7693 5.33333 66.7693 12C66.7693 18.5641 61.436 23.8974 54.7693 23.8974Z" fill="white"/>
<path d="M12 24C18.6274 24 24 18.6274 24 12C24 5.37258 18.6274 0 12 0C5.37258 0 0 5.37258 0 12C0 18.6274 5.37258 24 12 24Z" fill="url(#paint0_linear_438_510)"/>
<path fill-rule="evenodd" clip-rule="evenodd" d="M5.43584 11.7948C8.92302 10.2564 11.282 9.23073 12.4102 8.82047C15.6923 7.38457 16.4102 7.17944 16.923 7.17944C17.0256 7.17944 17.2307 7.17945 17.4358 7.28201C17.5384 7.38457 17.5384 7.48714 17.641 7.5897C17.641 7.69227 17.641 7.89739 17.641 8.10252C17.4358 9.94868 16.7179 14.5641 16.3076 16.7179C16.1025 17.641 15.7948 17.9487 15.4871 17.9487C14.7692 18.0512 14.2564 17.5384 13.641 17.0256C12.6153 16.3077 11.9999 15.8974 10.9743 15.1794C9.74353 14.3589 10.564 13.9487 11.282 13.2307C11.4871 13.0256 14.564 10.2564 14.564 10.0512C14.564 10.0512 14.564 9.94868 14.4615 9.84611C14.3589 9.74355 14.2564 9.84611 14.2564 9.84611C14.1538 9.84611 12.5128 10.9743 9.23072 13.2307C8.71789 13.5384 8.30764 13.7435 7.89738 13.7435C7.48712 13.7435 6.66661 13.5384 6.05123 13.3333C5.33328 13.1282 4.71789 12.923 4.71789 12.5128C4.61533 12.3076 4.92302 12.1025 5.43584 11.7948Z" fill="white"/>
<path d="M30.0513 15.4872C28 15.4872 26.4615 13.9487 26.4615 12C26.4615 10.0513 28.1026 8.51282 30.0513 8.51282C31.5898 8.51282 33.0256 9.43589 33.4359 10.8718H31.7949C31.3846 10.2564 30.7692 9.84615 29.9487 9.84615C28.718 9.84615 27.7949 10.7692 27.7949 12C27.7949 13.2308 28.718 14.1538 29.9487 14.1538C30.6667 14.1538 31.3846 13.7436 31.6923 13.1282H33.3333C33.0257 14.5641 31.6923 15.4872 30.0513 15.4872Z" fill="white"/>
<path d="M36.2052 8.7179H37.436L40.4103 15.3846H38.7693L38.2565 14.1538H35.3847L34.8719 15.3846H33.2308L36.2052 8.7179ZM35.8975 13.0256H37.8462L36.9231 10.6666L35.8975 13.0256Z" fill="white"/>
<path d="M45.7437 13.3333C45.7437 14.5641 44.718 15.5897 43.1796 15.5897C41.7437 15.5897 40.718 14.4615 40.718 13.2307H42.1539C42.2565 13.8461 42.6667 14.2564 43.1796 14.2564C43.8975 14.2564 44.3078 13.9487 44.3078 13.3333C44.3078 12.8205 43.6924 12.6154 42.7693 12.4102C41.6411 12.2051 40.8206 11.5897 40.8206 10.6666C40.8206 9.43587 41.7437 8.61536 43.2821 8.61536C44.6155 8.61536 45.7437 9.53843 45.7437 10.6666H44.3078C44.2052 10.2564 43.7949 9.94869 43.2821 9.94869C42.7693 9.94869 42.2565 10.2564 42.2565 10.6666C42.2565 11.1795 43.1796 11.3846 44.0001 11.5897C44.9231 11.6923 45.7437 12.3077 45.7437 13.3333Z" fill="white"/>
<path d="M48 15.3846H46.5641V8.7179H48V15.3846Z" fill="white"/>
<path d="M48.9231 15.3846V8.7179H50.2564L53.641 13.1282V8.7179H55.0769V15.3846H53.641L50.2564 11.0769V15.3846H48.9231Z" fill="white"/>
<path d="M55.6924 12.1025C55.6924 10.1538 57.3334 8.61536 59.2821 8.61536C61.2308 8.61536 62.8719 10.1538 62.8719 12.1025C62.8719 14.0513 61.2308 15.5897 59.2821 15.5897C57.3334 15.4872 55.6924 13.9487 55.6924 12.1025ZM59.3847 9.94869C58.2565 9.94869 57.2308 10.8718 57.2308 12.1025C57.2308 13.3333 58.1539 14.2564 59.3847 14.2564C60.5129 14.2564 61.5385 13.3333 61.5385 12.1025C61.5385 10.8718 60.5129 9.94869 59.3847 9.94869Z" fill="white"/>
<defs>
<linearGradient id="paint0_linear_438_510" x1="11.9487" y1="0" x2="11.9487" y2="23.7949" gradientUnits="userSpaceOnUse">
<stop stop-color="#2AABEE"/>
<stop offset="1" stop-color="#229ED9"/>
</linearGradient>
</defs>
</svg>
