<svg width="16" height="16" viewBox="0 0 16 16" fill="none" xmlns="http://www.w3.org/2000/svg">
<g id="kill 1" clip-path="url(#clip0_3413_4932)">
<g id="Clip path group">
<mask id="mask0_3413_4932" style="mask-type:luminance" maskUnits="userSpaceOnUse" x="0" y="0" width="16" height="16">
<g id="clip0_50995_432174">
<path id="Vector" d="M16 0H0V16H16V0Z" fill="white"/>
</g>
</mask>
<g mask="url(#mask0_3413_4932)">
<g id="Group">
<g id="Clip path group_2">
<mask id="mask1_3413_4932" style="mask-type:luminance" maskUnits="userSpaceOnUse" x="0" y="0" width="16" height="16">
<g id="clip1_50995_432174">
<path id="Vector_2" d="M16 0H0V16H16V0Z" fill="white"/>
</g>
</mask>
<g mask="url(#mask1_3413_4932)">
<g id="Group_2">
<g id="Clip path group_3">
<mask id="mask2_3413_4932" style="mask-type:luminance" maskUnits="userSpaceOnUse" x="0" y="0" width="16" height="16">
<g id="clip2_50995_432174">
<path id="Vector_3" d="M16 0H0V16H16V0Z" fill="white"/>
</g>
</mask>
<g mask="url(#mask2_3413_4932)">
<g id="Group_3">
<g id="Clip path group_4">
<mask id="mask3_3413_4932" style="mask-type:luminance" maskUnits="userSpaceOnUse" x="0" y="0" width="16" height="16">
<g id="clip3_50995_432174">
<path id="Vector_4" d="M16 0H0V16H16V0Z" fill="white"/>
</g>
</mask>
<g mask="url(#mask3_3413_4932)">
<g id="Group_4">
<g id="Clip path group_5">
<mask id="mask4_3413_4932" style="mask-type:luminance" maskUnits="userSpaceOnUse" x="0" y="0" width="16" height="16">
<g id="clip4_50995_432174">
<path id="Vector_5" d="M16 0H0V16H16V0Z" fill="white"/>
</g>
</mask>
<g mask="url(#mask4_3413_4932)">
<g id="Group_5">
<g id="Clip path group_6">
<mask id="mask5_3413_4932" style="mask-type:luminance" maskUnits="userSpaceOnUse" x="0" y="0" width="16" height="16">
<g id="clip5_50995_432174">
<path id="Vector_6" d="M16 0H0V16H16V0Z" fill="white"/>
</g>
</mask>
<g mask="url(#mask5_3413_4932)">
<g id="Group_6">
<g id="Clip path group_7">
<mask id="mask6_3413_4932" style="mask-type:luminance" maskUnits="userSpaceOnUse" x="0" y="0" width="16" height="16">
<g id="clip6_50995_432174">
<path id="Vector_7" d="M16 0H0V16H16V0Z" fill="white"/>
</g>
</mask>
<g mask="url(#mask6_3413_4932)">
<g id="Group_7">
<path id="Vector_8" d="M14.7034 6.62205C14.7041 6.3447 14.6864 6.0676 14.6503 5.7925C14.2322 2.53693 11.4593 0.075333 8.13425 0.0078125H8.0002C4.63215 0.02986 1.79588 2.49808 1.35292 5.7925C1.31744 6.0491 1.29873 6.3079 1.29706 6.56695C1.28868 7.73545 1.56797 8.81575 2.12098 9.5213C1.95135 9.8035 1.85985 10.1247 1.85565 10.4528V10.4776C1.85489 10.9864 2.05786 11.4749 2.42037 11.8367C2.78288 12.1986 3.27557 12.4044 3.79118 12.4095C4.01843 12.41 4.23623 12.4993 4.39692 12.6579C4.55761 12.8165 4.64811 13.0314 4.64863 13.2556V14.8898C4.64907 15.0359 4.70806 15.1759 4.81272 15.2791C4.91739 15.3824 5.0592 15.4406 5.20725 15.441H5.4865C5.5606 15.441 5.63165 15.412 5.684 15.3603C5.7364 15.3087 5.7658 15.2386 5.7658 15.1655C5.76625 15.3115 5.82525 15.4515 5.9299 15.5547C6.0346 15.658 6.1764 15.7162 6.3244 15.7167H6.6037C6.6778 15.7167 6.74885 15.6876 6.8012 15.6359C6.8536 15.5842 6.883 15.5141 6.883 15.441V15.7167C6.883 15.7897 6.91245 15.8598 6.9648 15.9115C7.0172 15.9632 7.08825 15.9922 7.1623 15.9922H7.7209C7.795 15.9922 7.866 15.9632 7.9184 15.9115C7.9708 15.8598 8.0002 15.7897 8.0002 15.7167C8.0002 15.7897 8.02965 15.8598 8.082 15.9115C8.1344 15.9632 8.20545 15.9922 8.2795 15.9922H8.8381C8.91215 15.9922 8.9832 15.9632 9.0356 15.9115C9.08795 15.8598 9.1174 15.7897 9.1174 15.7167V15.441C9.1174 15.5141 9.1468 15.5842 9.1992 15.6359C9.2516 15.6876 9.3226 15.7167 9.3967 15.7167H9.676C9.824 15.7162 9.9658 15.658 10.0705 15.5547C10.1751 15.4515 10.2341 15.3115 10.2346 15.1655C10.2346 15.2386 10.264 15.3087 10.3164 15.3603C10.3687 15.412 10.4398 15.441 10.5139 15.441H10.7932C10.9412 15.4406 11.083 15.3824 11.1877 15.2791C11.2923 15.1759 11.3513 15.0359 11.3517 14.8898V13.2363C11.3517 13.017 11.4401 12.8067 11.5972 12.6517C11.7543 12.4966 11.9674 12.4095 12.1896 12.4095C12.4488 12.4095 12.7053 12.3587 12.9443 12.26C13.1834 12.1614 13.4001 12.0169 13.5821 11.8348C13.764 11.6527 13.9074 11.4368 14.004 11.1995C14.1006 10.9622 14.1484 10.7084 14.1447 10.4528C14.1405 10.1247 14.0491 9.8035 13.8794 9.5213C14.4241 8.8268 14.7034 7.7713 14.7034 6.62205Z" fill="#EFEFEF"/>
<path id="Vector_9" d="M14.6501 5.7925C13.6278 6.27205 11.6057 6.89765 8 6.89765V0.0078125H8.13405C11.4591 0.075333 14.2319 2.53694 14.6501 5.7925Z" fill="#547580"/>
<path id="Vector_10" d="M8.0003 0.0078125V6.89765C4.40017 6.89765 2.37805 6.2748 1.35303 5.7925C1.796 2.49808 4.63226 0.02986 8.0003 0.0078125Z" fill="#0092FF" fill-opacity="0.25"/>
<path id="Vector_11" d="M7.99949 15.9924C7.92544 15.9924 7.85439 15.9634 7.80204 15.9117C7.74964 15.86 7.72019 15.7899 7.72019 15.7168V14.89C7.72019 14.8169 7.74964 14.7468 7.80204 14.6952C7.85439 14.6435 7.92544 14.6144 7.99949 14.6144C8.07359 14.6144 8.14464 14.6435 8.19699 14.6952C8.24939 14.7468 8.27879 14.8169 8.27879 14.89V15.7168C8.27879 15.7899 8.24939 15.86 8.19699 15.9117C8.14464 15.9634 8.07359 15.9924 7.99949 15.9924ZM6.88234 15.7168C6.80824 15.7168 6.73719 15.6878 6.68484 15.6361C6.63244 15.5844 6.60304 15.5143 6.60304 15.4412V14.89C6.60304 14.8169 6.63244 14.7468 6.68484 14.6952C6.73719 14.6435 6.80824 14.6144 6.88234 14.6144C6.95639 14.6144 7.02744 14.6435 7.07979 14.6952C7.13219 14.7468 7.16164 14.8169 7.16164 14.89V15.4412C7.16164 15.5143 7.13219 15.5844 7.07979 15.6361C7.02744 15.6878 6.95639 15.7168 6.88234 15.7168ZM5.76514 15.4412C5.69104 15.4412 5.61999 15.4122 5.56764 15.3605C5.51524 15.3088 5.48584 15.2387 5.48584 15.1656V14.6144C5.48584 14.5413 5.51524 14.4712 5.56764 14.4196C5.61999 14.3679 5.69104 14.3388 5.76514 14.3388C5.83919 14.3388 5.91024 14.3679 5.96264 14.4196C6.01499 14.4712 6.04444 14.5413 6.04444 14.6144V15.1656C6.04444 15.2387 6.01499 15.3088 5.96264 15.3605C5.91024 15.4122 5.83919 15.4412 5.76514 15.4412ZM9.11669 15.7168C9.04264 15.7168 8.97159 15.6878 8.91919 15.6361C8.86684 15.5844 8.83739 15.5143 8.83739 15.4412V14.89C8.83739 14.8169 8.86684 14.7468 8.91919 14.6952C8.97159 14.6435 9.04264 14.6144 9.11669 14.6144C9.19079 14.6144 9.26179 14.6435 9.31419 14.6952C9.36659 14.7468 9.39599 14.8169 9.39599 14.89V15.4412C9.39599 15.5143 9.36659 15.5844 9.31419 15.6361C9.26179 15.6878 9.19079 15.7168 9.11669 15.7168ZM10.2339 15.4412C10.1598 15.4412 10.0888 15.4122 10.0364 15.3605C9.98404 15.3088 9.95459 15.2387 9.95459 15.1656V14.6144C9.95459 14.5413 9.98404 14.4712 10.0364 14.4196C10.0888 14.3679 10.1598 14.3388 10.2339 14.3388C10.3079 14.3388 10.379 14.3679 10.4314 14.4196C10.4837 14.4712 10.5132 14.5413 10.5132 14.6144V15.1656C10.5132 15.2387 10.4837 15.3088 10.4314 15.3605C10.379 15.4122 10.3079 15.4412 10.2339 15.4412Z" fill="#D1D4D1"/>
<path id="Vector_12" d="M6.8828 9.5948V9.9283C6.8828 10.2206 6.7651 10.501 6.5556 10.7078C6.3461 10.9145 6.06195 11.0307 5.76565 11.0307H5.20705C4.76259 11.0307 4.33635 10.8564 4.02208 10.5463C3.70781 10.2362 3.53125 9.81565 3.53125 9.3771V8.8838L6.8828 9.5948Z" fill="#35495E"/>
<path id="Vector_13" d="M7.1625 9.9293C7.14295 9.9293 7.1228 9.9274 7.10355 9.92325L3.19338 9.09645C3.12094 9.08115 3.05764 9.038 3.01741 8.9766C2.97719 8.9152 2.96333 8.84055 2.97888 8.76905C2.99444 8.6976 3.03813 8.63515 3.10036 8.59545C3.16258 8.55575 3.23824 8.54205 3.31069 8.5574L7.22085 9.3842C7.28835 9.3984 7.3481 9.43675 7.38865 9.49185C7.4292 9.547 7.4476 9.61495 7.44035 9.6827C7.4331 9.7504 7.4007 9.8131 7.3494 9.8586C7.29805 9.90415 7.2315 9.92935 7.1625 9.9293Z" fill="#D1D4D1"/>
<path id="Vector_14" d="M12.4687 8.8838V9.3771C12.4687 9.81565 12.2922 10.2362 11.9779 10.5463C11.6636 10.8564 11.2374 11.0307 10.7929 11.0307H10.2344C9.93809 11.0307 9.65389 10.9145 9.44439 10.7078C9.23489 10.501 9.11719 10.2206 9.11719 9.9283V9.5948L12.4687 8.8838Z" fill="#35495E"/>
<path id="Vector_15" d="M8.83799 9.9293C8.76899 9.92935 8.70239 9.90415 8.65109 9.8586C8.59979 9.81305 8.56739 9.7504 8.56014 9.6827C8.55289 9.61495 8.57129 9.547 8.61184 9.49185C8.65234 9.43675 8.71214 9.3984 8.77964 9.3842L12.6898 8.5574C12.7256 8.5498 12.7627 8.54925 12.7988 8.5558C12.8349 8.5623 12.8693 8.5758 12.9001 8.59545C12.9309 8.6151 12.9575 8.64055 12.9783 8.67035C12.9992 8.7001 13.0139 8.73365 13.0216 8.76905C13.0293 8.80445 13.0298 8.841 13.0232 8.8766C13.0166 8.91225 13.003 8.9462 12.983 8.9766C12.9631 9.007 12.9373 9.03325 12.9071 9.0538C12.877 9.0744 12.8429 9.08885 12.8071 9.09645L8.89694 9.92325C8.87739 9.9274 8.85784 9.9293 8.83799 9.9293Z" fill="#D1D4D1"/>
<path id="Vector_16" d="M8.7199 13.4843C8.2579 13.2988 7.74075 13.2988 7.27875 13.4843C7.2116 13.5092 7.13845 13.5138 7.0686 13.4975C6.9988 13.4811 6.93555 13.4446 6.8869 13.3926C6.8383 13.3405 6.8065 13.2753 6.79565 13.2054C6.7848 13.1354 6.79535 13.0638 6.826 12.9998L7.5371 11.5901C7.57975 11.5052 7.64565 11.4336 7.7273 11.3836C7.809 11.3336 7.9032 11.3071 7.9993 11.3071C8.09545 11.3071 8.18965 11.3336 8.2713 11.3836C8.353 11.4336 8.4189 11.5052 8.46155 11.5901L9.17265 12.9957C9.20555 13.0598 9.21795 13.1323 9.20805 13.2035C9.1982 13.2748 9.1666 13.3413 9.1174 13.3944C9.06825 13.4474 9.0039 13.4845 8.9329 13.5005C8.86185 13.5166 8.78755 13.5109 8.7199 13.4843Z" fill="#3F5C6C"/>
<path id="Vector_17" d="M6.60351 3.86524H5.48636C5.33211 3.86524 5.20706 3.98862 5.20706 4.14083V5.2432C5.20706 5.3954 5.33211 5.5188 5.48636 5.5188H6.60351C6.75776 5.5188 6.88281 5.3954 6.88281 5.2432V4.14083C6.88281 3.98862 6.75776 3.86524 6.60351 3.86524Z" fill="#F0C419"/>
<path id="Vector_18" d="M5.48636 3.03846C5.64061 3.03846 5.76566 2.91518 5.76566 2.76312C5.76566 2.61106 5.64061 2.4878 5.48636 2.4878C5.33211 2.4878 5.20706 2.61106 5.20706 2.76312C5.20706 2.91518 5.33211 3.03846 5.48636 3.03846Z" fill="#ECF0F1"/>
<path id="Vector_19" d="M6.60349 3.03846C6.75774 3.03846 6.88279 2.91518 6.88279 2.76312C6.88279 2.61106 6.75774 2.4878 6.60349 2.4878C6.44924 2.4878 6.32419 2.61106 6.32419 2.76312C6.32419 2.91518 6.44924 3.03846 6.60349 3.03846Z" fill="#ECF0F1"/>
<path id="Vector_20" d="M6.60305 1.93693H5.48585C5.41175 1.93693 5.34075 1.90789 5.28835 1.85621C5.236 1.80452 5.20655 1.73442 5.20655 1.66133C5.20655 1.58824 5.236 1.51814 5.28835 1.46646C5.34075 1.41478 5.41175 1.38574 5.48585 1.38574H6.60305C6.6771 1.38574 6.74815 1.41478 6.80055 1.46646C6.8529 1.51814 6.88235 1.58824 6.88235 1.66133C6.88235 1.73442 6.8529 1.80452 6.80055 1.85621C6.74815 1.90789 6.6771 1.93693 6.60305 1.93693ZM4.08936 5.79525C4.01529 5.79525 3.94425 5.7662 3.89187 5.7145C3.83949 5.66285 3.81006 5.59275 3.81006 5.51965V3.0393C3.81006 2.96621 3.83949 2.89611 3.89187 2.84443C3.94425 2.79274 4.01529 2.76371 4.08936 2.76371C4.16344 2.76371 4.23448 2.79274 4.28686 2.84443C4.33923 2.89611 4.36866 2.96621 4.36866 3.0393V5.51965C4.36866 5.59275 4.33923 5.66285 4.28686 5.7145C4.23448 5.7662 4.16344 5.79525 4.08936 5.79525ZM2.97217 5.51965C2.8981 5.51965 2.82706 5.4906 2.77468 5.4389C2.7223 5.38725 2.69287 5.31715 2.69287 5.24405V3.86608C2.69287 3.79299 2.7223 3.72289 2.77468 3.67121C2.82706 3.61952 2.8981 3.59049 2.97217 3.59049C3.04625 3.59049 3.11729 3.61952 3.16966 3.67121C3.22204 3.72289 3.25147 3.79299 3.25147 3.86608V5.24405C3.25147 5.31715 3.22204 5.38725 3.16966 5.4389C3.11729 5.4906 3.04625 5.51965 2.97217 5.51965Z" fill="#004D86"/>
</g>
</g>
</g>
</g>
</g>
</g>
</g>
</g>
</g>
</g>
</g>
</g>
</g>
</g>
</g>
</g>
</g>
</g>
</g>
</g>
</g>
</g>
<defs>
<clipPath id="clip0_3413_4932">
<rect width="16" height="16" fill="white"/>
</clipPath>
</defs>
</svg>
