<svg width="16" height="16" viewBox="0 0 16 16" fill="none" xmlns="http://www.w3.org/2000/svg">
<g id="Clip path group">
<mask id="mask0_3413_5016" style="mask-type:luminance" maskUnits="userSpaceOnUse" x="0" y="0" width="16" height="16">
<g id="clip0_53643_357557">
<path id="Vector" d="M16 0H0V16H16V0Z" fill="white"/>
</g>
</mask>
<g mask="url(#mask0_3413_5016)">
<g id="Group">
<g id="Mask group">
<mask id="mask1_3413_5016" style="mask-type:luminance" maskUnits="userSpaceOnUse" x="0" y="0" width="16" height="16">
<g id="Group_2">
<path id="Vector_2" d="M0 9.34601e-05H15.9999V16H0V9.34601e-05Z" fill="white"/>
</g>
</mask>
<g mask="url(#mask1_3413_5016)">
<g id="Group_3">
<path id="Vector_3" d="M12.3792 4.9289C11.3913 4.9289 10.5875 4.12518 10.5875 3.13725V1.79168C10.5875 1.06609 9.99723 0.475782 9.27163 0.475782C8.54598 0.475782 7.95568 1.06609 7.95568 1.79168V2.94812C7.95498 3.01073 7.92958 3.07054 7.88508 3.11456C7.84053 3.15858 7.78043 3.18327 7.71783 3.18327C7.65523 3.18327 7.59513 3.15858 7.55058 3.11456C7.50608 3.07054 7.48068 3.01073 7.47998 2.94812V1.79168C7.47998 0.80378 8.28368 6.44922e-05 9.27163 6.44922e-05C10.2595 6.44922e-05 11.0633 0.80378 11.0633 1.79168V3.13725C11.0633 3.86284 11.6536 4.45318 12.3792 4.45318C13.1048 4.45318 13.6951 3.86284 13.6951 3.13725V2.70234C13.6947 2.67087 13.7006 2.63965 13.7124 2.61048C13.7242 2.5813 13.7417 2.55476 13.7638 2.53238C13.7859 2.51 13.8123 2.49223 13.8413 2.48011C13.8703 2.46798 13.9015 2.46174 13.933 2.46174C13.9644 2.46174 13.9956 2.46798 14.0246 2.48011C14.0537 2.49223 14.08 2.51 14.1021 2.53238C14.1242 2.55476 14.1417 2.5813 14.1535 2.61048C14.1653 2.63965 14.1712 2.67087 14.1708 2.70234V3.13725C14.1708 4.12518 13.3671 4.9289 12.3792 4.9289Z" fill="#9D9D9D"/>
<path id="Vector_4" d="M7.71789 16C11.2566 16 14.1252 13.1313 14.1252 9.59265C14.1252 6.95895 12.5362 4.69647 10.2647 3.71145C10.1341 3.65482 10.0251 3.55788 9.95594 3.43344L9.50284 2.61782C9.44734 2.51794 9.36614 2.43471 9.26769 2.37676C9.16919 2.31882 9.05699 2.28826 8.94274 2.28826H6.49309C6.37884 2.28826 6.26664 2.31882 6.16814 2.37677C6.06964 2.43471 5.98849 2.51794 5.93299 2.61782L5.47984 3.43344C5.41074 3.55788 5.30174 3.65482 5.17114 3.71145C2.89957 4.69647 1.31055 6.95895 1.31055 9.59265C1.31055 13.1313 4.17922 16 7.71789 16Z" fill="#2574A7"/>
<path id="Vector_5" d="M11.2621 4.25419C11.9374 5.26931 12.3311 6.48795 12.3311 7.79855C12.3311 11.2457 9.60884 14.0566 6.19689 14.1998L4.21668 10.6354C4.1001 10.4257 3.92958 10.2509 3.72278 10.1292C3.51598 10.0076 3.28041 9.9434 3.04047 9.9433C2.80053 9.9434 2.56496 10.0076 2.35816 10.1292C2.15137 10.2509 1.98084 10.4257 1.86425 10.6354L1.52588 11.2445C2.25444 13.9826 4.75037 16 7.71784 16C11.2565 16 14.1252 13.1313 14.1252 9.59265C14.1252 7.36455 12.9878 5.4022 11.2621 4.25419Z" fill="#2574A7"/>
<path id="Vector_6" d="M7.71809 14.9748C4.75037 14.9748 2.33594 12.5603 2.33594 9.5926C2.33594 6.62485 4.75037 4.21045 7.71809 4.21045C10.6858 4.21045 13.1003 6.62485 13.1003 9.5926C13.1003 12.5603 10.6858 14.9748 7.71809 14.9748Z" fill="#F5FCFF"/>
<path id="Vector_7" d="M12.2305 6.66265C12.2976 7.0376 12.3314 7.41775 12.3313 7.7986C12.3313 10.3959 10.7859 12.6319 8.5645 13.6378C7.3529 14.1865 5.92259 13.7057 5.27669 12.5431L4.21686 10.6355C4.10027 10.4258 3.92974 10.251 3.72294 10.1293C3.51613 10.0077 3.28056 9.94345 3.04061 9.94335C2.80222 9.9434 2.56812 10.0068 2.3623 10.1271C2.63443 12.8746 4.98114 15.0213 7.80964 14.9741C10.7145 14.9255 13.0724 12.5497 13.0999 9.64455C13.1103 8.545 12.789 7.51985 12.2305 6.66265Z" fill="#E6F7FE"/>
<path id="Vector_8" d="M9.89664 10.1052H7.71814C7.43504 10.1052 7.20554 9.87575 7.20554 9.59265V6.45305C7.20554 6.16995 7.43504 5.94045 7.71814 5.94045C8.00124 5.94045 8.23074 6.16995 8.23074 6.45305V9.08005H9.89664C10.1797 9.08005 10.4092 9.30955 10.4092 9.59265C10.4092 9.87575 10.1797 10.1052 9.89664 10.1052Z" fill="#DF646E"/>
<path id="Vector_9" d="M8.23023 8.0754C7.89783 7.96255 7.53748 7.96255 7.20508 8.0754V9.59265C7.20508 9.87575 7.43458 10.1052 7.71768 10.1052H9.23488C9.29093 9.94015 9.31953 9.76695 9.31948 9.59265C9.31948 9.4134 9.28948 9.2411 9.23488 9.08005H8.23023V8.0754Z" fill="#DC4955"/>
<path id="Vector_10" d="M8.48694 9.59265C8.48694 10.0173 8.14269 10.3615 7.71809 10.3615C7.29344 10.3615 6.94919 10.0173 6.94919 9.59265C6.94919 9.168 7.29344 8.82375 7.71809 8.82375C8.14269 8.82375 8.48694 9.168 8.48694 9.59265Z" fill="#3B97D3"/>
<path id="Vector_11" d="M7.98919 8.87305C8.02184 8.9597 8.03854 9.0515 8.03849 9.1441C8.03849 9.56875 7.69424 9.913 7.26959 9.913C7.17414 9.913 7.08284 9.8955 6.99854 9.8637C7.10814 10.1545 7.38889 10.3615 7.71814 10.3615C8.14279 10.3615 8.48699 10.0172 8.48699 9.5926C8.48699 9.2634 8.28004 8.98265 7.98919 8.87305Z" fill="#2574A7"/>
<path id="Vector_12" d="M14.0836 0.739745C14.2973 1.01537 14.6664 1.56568 14.6994 2.11409C14.7266 2.56565 14.3816 2.96311 13.9292 2.96099C13.5063 2.95899 13.164 2.61552 13.164 2.19212C13.164 1.61809 13.559 1.02762 13.7828 0.73912C13.859 0.64078 14.0073 0.641405 14.0836 0.739745Z" fill="#FFE07D"/>
<path id="Vector_13" d="M13.8211 2.33628C13.6766 2.48078 13.5269 2.60981 13.3764 2.72203C13.5165 2.86915 13.7141 2.961 13.9332 2.961C14.3579 2.961 14.7021 2.61678 14.7021 2.19212C14.7021 1.92653 14.6174 1.65763 14.5044 1.41653C14.351 1.71897 14.1187 2.03869 13.8211 2.33628Z" fill="#FFD064"/>
<path id="Vector_14" d="M12.2778 9.59265C12.2778 9.6239 12.284 9.65485 12.2959 9.6837C12.3079 9.71255 12.3254 9.73875 12.3475 9.76085C12.3696 9.78295 12.3958 9.80045 12.4246 9.8124C12.4535 9.82435 12.4844 9.8305 12.5157 9.8305H13.0944C13.0978 9.75165 13.0999 9.6724 13.0999 9.59265C13.0999 9.51295 13.0978 9.4337 13.0944 9.3548H12.5157C12.4844 9.3548 12.4535 9.36095 12.4246 9.3729C12.3958 9.38485 12.3696 9.4024 12.3475 9.42445C12.3254 9.44655 12.3079 9.4728 12.2959 9.50165C12.284 9.5305 12.2778 9.56145 12.2778 9.59265Z" fill="#91DAFA"/>
<path id="Vector_15" d="M11.6671 7.3126C11.6827 7.3397 11.7035 7.3634 11.7283 7.3824C11.7531 7.40145 11.7813 7.4154 11.8115 7.4235C11.8417 7.43155 11.8732 7.4336 11.9041 7.42955C11.9351 7.42545 11.965 7.4153 11.992 7.3997L12.4926 7.1107C12.4193 6.97 12.3397 6.83265 12.2543 6.69895L11.7542 6.9877C11.7271 7.00335 11.7034 7.0241 11.6844 7.0489C11.6654 7.07365 11.6514 7.10195 11.6433 7.13215C11.6353 7.1623 11.6332 7.19375 11.6373 7.22475C11.6414 7.2557 11.6515 7.28555 11.6671 7.3126Z" fill="#91DAFA"/>
<path id="Vector_16" d="M7.71783 5.0326C7.78088 5.0326 7.84138 5.00755 7.88598 4.96293C7.93063 4.91833 7.95568 4.85784 7.95568 4.79475V4.21603C7.87678 4.21259 7.79753 4.2105 7.71783 4.2105C7.63808 4.2105 7.55883 4.21259 7.47998 4.21603V4.79475C7.47998 4.82599 7.48613 4.85692 7.49808 4.88578C7.51003 4.91463 7.52753 4.94086 7.54963 4.96294C7.57173 4.98503 7.59793 5.00255 7.62678 5.0145C7.65563 5.02645 7.68658 5.0326 7.71783 5.0326Z" fill="#91DAFA"/>
<path id="Vector_17" d="M11.992 11.7856C11.965 11.77 11.9351 11.7599 11.9042 11.7558C11.8732 11.7517 11.8417 11.7538 11.8115 11.7619C11.7814 11.7699 11.7531 11.7839 11.7283 11.8029C11.7035 11.8219 11.6827 11.8456 11.6671 11.8727C11.6515 11.8997 11.6414 11.9296 11.6373 11.9606C11.6332 11.9916 11.6353 12.023 11.6433 12.0532C11.6514 12.0834 11.6654 12.1117 11.6844 12.1364C11.7034 12.1612 11.7271 12.182 11.7542 12.1976L12.2543 12.4864C12.3397 12.3527 12.4193 12.2153 12.4926 12.0747L11.992 11.7856Z" fill="#91DAFA"/>
<path id="Vector_18" d="M5.11294 5.55645C5.12859 5.5835 5.14934 5.60725 5.17414 5.62625C5.19894 5.6453 5.22719 5.65925 5.25739 5.6673C5.28754 5.6754 5.31904 5.67745 5.34999 5.67335C5.38094 5.6693 5.41084 5.65915 5.43789 5.6435C5.46494 5.6279 5.48864 5.6071 5.50764 5.58235C5.52669 5.55755 5.54064 5.52925 5.54869 5.4991C5.55679 5.46895 5.55884 5.43745 5.55479 5.4065C5.55069 5.3755 5.54054 5.34565 5.52494 5.3186L5.23594 4.81805C5.09524 4.89137 4.95789 4.97089 4.82422 5.05635L5.11294 5.55645Z" fill="#91DAFA"/>
<path id="Vector_19" d="M3.44392 7.3997C3.47097 7.4153 3.50083 7.42545 3.5318 7.42955C3.56277 7.4336 3.59424 7.43155 3.62441 7.4235C3.65458 7.4154 3.68287 7.40145 3.70765 7.3824C3.73243 7.3634 3.75321 7.3397 3.76882 7.31265C3.78445 7.2856 3.79459 7.2557 3.79867 7.22475C3.80275 7.1938 3.8007 7.1623 3.79261 7.13215C3.78453 7.10195 3.77059 7.07365 3.75157 7.0489C3.73256 7.0241 3.70885 7.0033 3.68179 6.9877L3.18167 6.69895C3.0962 6.83265 3.01668 6.97 2.94336 7.1107L3.44392 7.3997Z" fill="#91DAFA"/>
<path id="Vector_20" d="M10.2001 4.81805L9.91109 5.3186C9.89494 5.3457 9.88429 5.3757 9.87984 5.4069C9.87539 5.43815 9.87714 5.46995 9.88509 5.50045C9.89304 5.53095 9.90694 5.5596 9.92604 5.5847C9.94514 5.6098 9.96909 5.63085 9.99639 5.6466C10.0237 5.66235 10.0538 5.67255 10.0851 5.67655C10.1164 5.68055 10.1482 5.6783 10.1786 5.6699C10.209 5.6615 10.2374 5.64715 10.2622 5.6277C10.287 5.6082 10.3077 5.584 10.3231 5.55645L10.6118 5.05635C10.4781 4.97089 10.3408 4.89137 10.2001 4.81805Z" fill="#91DAFA"/>
<path id="Vector_21" d="M7.95568 14.9692V14.3905C7.95498 14.3279 7.92958 14.2682 7.88508 14.2241C7.84053 14.1801 7.78043 14.1554 7.71783 14.1554C7.65523 14.1554 7.59513 14.1801 7.55058 14.2241C7.50608 14.2682 7.48068 14.3279 7.47998 14.3905V14.9692C7.55883 14.9727 7.63808 14.9748 7.71783 14.9748C7.79753 14.9748 7.87678 14.9727 7.95568 14.9692Z" fill="#91DAFA"/>
<path id="Vector_22" d="M3.15806 9.59265C3.15806 9.56145 3.15191 9.5305 3.13995 9.50165C3.128 9.4728 3.11047 9.44655 3.08839 9.42445C3.0663 9.4024 3.04007 9.38485 3.01121 9.3729C2.98235 9.36095 2.95142 9.3548 2.92018 9.3548H2.3415C2.33803 9.4337 2.33594 9.51295 2.33594 9.59265C2.33594 9.6724 2.33803 9.75165 2.3415 9.8305H2.92018C2.95142 9.8305 2.98235 9.82435 3.01121 9.8124C3.04007 9.80045 3.0663 9.78295 3.08839 9.76085C3.11047 9.73875 3.128 9.71255 3.13995 9.6837C3.15191 9.65485 3.15806 9.6239 3.15806 9.59265Z" fill="#91DAFA"/>
<path id="Vector_23" d="M10.3227 13.6289C10.3071 13.6018 10.2863 13.5781 10.2616 13.5591C10.2368 13.5401 10.2085 13.5261 10.1783 13.518C10.1481 13.5099 10.1167 13.5078 10.0857 13.5119C10.0547 13.516 10.0249 13.5261 9.99785 13.5418C9.9708 13.5574 9.9471 13.5782 9.92805 13.603C9.90905 13.6278 9.8951 13.6561 9.887 13.6862C9.87895 13.7164 9.87685 13.7479 9.88095 13.7788C9.88505 13.8098 9.89515 13.8397 9.9108 13.8667L10.1998 14.3673C10.3404 14.2939 10.4778 14.2144 10.6115 14.129L10.3227 13.6289Z" fill="#91DAFA"/>
<path id="Vector_24" d="M15.2467 0.79614C15.1996 0.79615 15.1536 0.782205 15.1145 0.75607C15.0754 0.729935 15.0449 0.69278 15.0269 0.649315C15.0089 0.605845 15.0042 0.558015 15.0133 0.51187C15.0225 0.465726 15.0452 0.423343 15.0785 0.390081L15.3988 0.0697381C15.4437 0.0261288 15.5038 0.00191698 15.5664 0.00234176C15.6289 0.00276655 15.6887 0.0277938 15.7329 0.0720081C15.7772 0.116222 15.8022 0.176068 15.8026 0.238595C15.803 0.301122 15.7788 0.361302 15.7352 0.406113L15.4148 0.726485C15.3928 0.748605 15.3666 0.766145 15.3377 0.7781C15.3088 0.790055 15.2779 0.796185 15.2467 0.79614Z" fill="#E9A761"/>
<path id="Vector_25" d="M12.6194 0.79614C12.5882 0.796185 12.5572 0.790055 12.5284 0.7781C12.4995 0.766145 12.4733 0.748605 12.4512 0.726485L12.1309 0.406113C12.0873 0.361302 12.063 0.301122 12.0635 0.238595C12.0639 0.176068 12.0889 0.116222 12.1331 0.0720081C12.1773 0.0277938 12.2372 0.00276655 12.2997 0.00234176C12.3622 0.00191698 12.4224 0.0261288 12.4672 0.0697381L12.7876 0.390081C12.8209 0.423343 12.8435 0.465726 12.8527 0.51187C12.8619 0.558015 12.8572 0.605845 12.8392 0.649315C12.8212 0.69278 12.7907 0.729935 12.7516 0.75607C12.7125 0.782205 12.6665 0.79615 12.6194 0.79614Z" fill="#E9A761"/>
</g>
</g>
</g>
</g>
</g>
</g>
</svg>
