<?xml version="1.0" encoding="UTF-8"?>
<svg width="240px" height="360px" viewBox="0 0 240 360" version="1.1" xmlns="http://www.w3.org/2000/svg" xmlns:xlink="http://www.w3.org/1999/xlink">
    <title>Vbet_logo_loader</title>
    <g id="Vbet_logo_loader" stroke="none" stroke-width="1" fill="none" fill-rule="evenodd">
        <path d="M194.939555,0 C208.524736,0 217.69469,8.09659423 218.870684,21.1262825 C218.942434,21.9145242 218.986184,22.7361214 218.996683,23.5735185 C219.015933,24.9340694 218.951184,26.3683533 218.807684,27.830726 C218.700935,28.9314555 218.548686,30.0620294 218.338687,31.306714 C217.831689,34.2635609 217.273264,37.5892882 216.667818,41.2109305 L216.361197,43.0460734 L216.201948,43.9940701 C215.405702,48.7638981 214.534206,53.9708579 213.599711,59.4674833 C212.512966,65.8295947 211.534721,71.4508641 210.605476,76.6560683 C210.075228,79.6176803 209.532731,82.6144033 208.977984,85.6286818 C208.419737,88.6429602 207.84749,91.6730387 207.266493,94.6943393 C206.671496,97.7963953 206.064249,100.903718 205.455252,103.998752 C204.090259,110.934928 202.574766,118.403035 201.110024,125.62361 L201.110024,125.62361 L201.008524,126.11692 C198.224288,139.829517 195.588801,152.817072 193.971809,162.061795 C203.474262,191.488316 205.939999,228.189833 200.548276,260.565677 C197.050044,281.56556 190.631076,299.133344 181.92487,311.566145 L181.92487,311.566145 L182.159369,313.258495 L187.157344,349.568525 L187.747091,353.853821 L188.592336,360 L57.0787484,360 L57.0437485,354.63153 L56.7812499,316.379862 C46.4930516,306.273164 39.062589,291.958413 34.6788611,273.788476 C34.3726126,272.517458 33.2911181,269.526002 32.3321229,266.8681 C28.6168916,256.587602 25.8064058,248.155698 26.1896538,240.994811 L26.1896538,240.994811 L26.6429015,232.62084 C26.355903,231.860687 26.0881543,231.097023 25.8414056,230.342137 C25.8046558,230.247337 25.757406,230.122693 25.6979063,229.971716 L25.6979063,229.971716 L25.6331566,229.799672 C21.7621761,219.624507 17.5446973,204.884914 25.549157,194.435883 L25.549157,194.435883 L26.2824034,193.46682 C28.4051427,190.661452 30.8113806,187.480396 34.89761,185.242071 C38.9715895,183.009012 43.1803183,181.876682 47.4030471,181.876682 C47.8370449,181.876682 48.2710427,181.888971 48.7050405,181.913549 C47.7355454,176.00788 48.0820436,171.041431 49.7287854,166.664846 C52.0562736,160.471268 57.1032482,155.954239 62.2149725,151.990208 L62.2149725,151.990208 L62.4249715,151.828697 L62.5719707,151.714587 L62.7277199,151.611009 L62.9429689,151.467054 C64.4339613,150.469902 66.0754531,149.643038 68.0109433,148.923263 C69.3356867,148.443998 70.5064308,148.19471 71.2326771,148.043733 L71.2326771,148.043733 L71.255427,148.038466 C71.6911748,147.933133 72.2861718,147.799711 73.0771679,147.682089 C74.0011632,147.553934 74.7834093,147.531112 75.1894072,147.518823 L75.1894072,147.518823 L75.2699068,147.515312 L75.3364065,147.511801 C75.7931542,147.474935 76.4091511,147.431046 77.1126475,147.431046 L77.1126475,147.431046 L77.3733962,147.431046 L77.5903951,147.432801 L77.6656448,147.432801 L77.7426444,147.434557 L77.8703937,147.439824 C78.9361384,147.474935 80.003633,147.575001 81.3108764,147.762845 C81.6958745,147.797956 82.0633726,147.847111 82.4291208,147.910311 C83.2393667,148.048999 84.0741125,148.224554 84.9263582,148.431709 C84.1966119,140.063005 83.9971129,131.841766 84.3313612,123.896149 C84.4678605,120.629072 85.0838574,117.428705 86.165352,114.358249 L86.165352,114.358249 L84.7181093,108.621113 C79.9091335,89.5505793 77.7268945,79.3877034 77.5098955,69.5741817 C77.4748957,68.0749425 77.5588953,66.5739476 77.7566443,65.095775 L77.7566443,65.095775 L76.1536524,59.6746382 C71.5021758,43.9624703 69.6314352,14.6992159 92.1083221,4.68380603 C96.4378003,2.75445715 101.684274,1.64846097 106.502,1.64846097 C116.557449,1.64846097 124.24866,6.8325986 126.570899,15.1767253 C132.24262,35.5481216 139.235585,95.3105372 139.414084,104.832638 L139.414084,104.832638 L140.6,129.271 L140.809922,128.428557 C142.346926,122.291925 143.928473,117.432527 145.855154,112.676634 L146.12005,112.028635 C147.833292,107.87676 149.879031,104.086529 152.21352,100.736941 L152.21352,100.736941 L152.336019,96.1812897 C152.794517,78.8224164 155.720502,65.1484415 158.09524,56.7305817 C158.956236,53.6776811 160.216229,50.7704912 161.841971,48.066945 L161.841971,48.066945 L162.06597,42.1507432 C162.10447,41.1483244 162.536718,32.0686225 165.9667,22.6974993 C170.800176,9.48523388 179.317383,1.72570515 190.594326,0.256310225 C192.293568,0.0333554403 193.78456,0 194.922055,0 Z M194.939555,5.40533687 L194.904555,5.40533687 C193.93856,5.40533687 192.682066,5.43342566 191.289073,5.61600281 C168.981935,8.52319276 167.503193,40.9762806 167.448943,42.357898 L167.448943,42.357898 L167.170694,49.7259392 C165.469703,52.2925526 164.14496,55.1400538 163.280464,58.2034877 C160.989725,66.3229041 158.16699,79.5263918 157.720742,96.3252448 L157.720742,96.3252448 L157.556243,102.552179 C155.064255,105.871923 152.899516,109.732376 151.098775,114.094917 C147.364294,123.14653 144.979056,132.436898 141.587573,151.407366 C139.937331,152.771427 138.23459,154.2812 136.500349,155.920883 L136.500349,155.920883 L134.029361,105.009948 C133.908612,96.5359107 127.046896,36.9788944 121.382175,16.6320758 C119.712683,10.6333632 114.149461,7.05379784 106.502,7.05379784 C102.47177,7.05379784 97.9077929,8.01408341 94.2958111,9.62392229 C75.231407,18.1190263 77.1703973,44.1152031 81.3178764,58.1367768 L81.3178764,58.1367768 L83.2708665,64.7323762 C82.989118,66.268482 82.8613686,67.8484766 82.8963684,69.4530488 C83.1011174,78.7469278 85.2361067,88.6376936 89.940083,107.293918 L89.940083,107.293918 L91.8073236,114.695315 C90.5858297,117.628838 89.8543334,120.809893 89.7160841,124.122615 C89.2190866,135.883041 89.9890827,146.93247 91.1965767,156.329926 C89.6233346,155.627706 88.2058417,155.065931 86.8670985,154.61651 L86.8670985,154.61651 L86.8145987,154.598954 L86.6815994,154.556821 C84.8406086,153.951157 83.1221173,153.512269 81.5191254,153.236648 C81.2286268,153.187493 80.9556282,153.154137 80.6843796,153.133071 C79.5118855,152.961027 78.5843901,152.871494 77.6901446,152.841649 L77.6901446,152.841649 L77.5641453,152.836383 L77.0916476,152.836383 C76.6383999,152.836383 76.2044021,152.862716 75.7704043,152.897827 L75.7704043,152.897827 L75.5726553,152.913627 L75.3731563,152.920649 C75.0074081,152.931182 74.4544109,152.948738 73.8121642,153.036515 C73.3169166,153.110249 72.9144187,153.198026 72.5119207,153.294581 L72.5119207,153.294581 L72.3946713,153.32267 C71.7681744,153.452581 70.8406791,153.643936 69.8379342,154.007334 C68.3276918,154.570866 67.0711981,155.201108 65.9319538,155.963016 L65.9319538,155.963016 L65.7132049,156.110483 L65.504956,156.271993 C61.0249785,159.74447 56.6237507,163.638279 54.77051,168.571373 C52.7965199,173.822221 53.1955179,180.481021 56.2107527,189.666055 C53.5472661,188.09835 50.5460312,187.282019 47.4030471,187.282019 C44.0920637,187.282019 40.7548305,188.191394 37.480597,189.985565 C34.4058625,191.669137 32.5456218,194.132173 30.5733818,196.739164 L30.5733818,196.739164 L29.8348855,197.709983 C23.4631675,206.029532 27.2571484,218.908243 30.6678813,227.872079 C30.7868807,228.182811 30.8778802,228.425077 30.9373799,228.586588 C31.2873782,229.659228 31.6723762,230.714314 32.0853741,231.750088 L32.0853741,231.750088 L31.5691267,241.287988 C31.2401284,247.427145 33.8931151,255.330628 37.3983474,265.026528 C38.4990919,268.074162 39.5403366,270.953263 39.9148347,272.515702 C44.2968127,290.678617 51.7692751,304.600125 62.1537228,314.032692 L62.1537228,314.032692 L62.4302214,354.594663 L70.3086818,354.594663 L70.3699315,350.2725 L70.4101813,349.596614 L71.9361736,324.144657 L100.245781,323.895369 L100.242281,323.895369 C100.238781,323.893614 82.9156183,323.235283 71.7086747,313.916826 C70.1214327,312.596653 68.4326912,311.285257 66.8471992,309.707018 C59.2382375,302.133578 51.7517752,289.55331 47.215798,270.742597 C46.7275505,268.714938 45.6005561,265.62166 44.3423125,262.133383 C43.0175691,258.46604 41.5423266,254.361565 40.4853319,250.555534 C40.2980828,249.881403 40.1248337,249.21605 39.9673345,248.566496 C39.7818354,247.804588 39.6278362,247.070768 39.4948369,246.354504 C39.1710885,244.620021 38.9978394,243.027738 39.069589,241.691765 C39.069589,241.691765 47.7932951,263.878399 66.5409507,269.592713 C68.882439,270.305466 71.2064273,270.56002 73.3921663,270.56002 L73.3921663,270.56002 L73.4551659,270.56002 C74.5559104,270.556509 75.628655,270.473998 76.6593998,270.310732 C77.8931436,270.115866 79.0603877,269.794601 80.1646322,269.375024 C80.9083784,269.092381 81.6293748,268.774626 82.3048714,268.391917 C82.5481202,268.254984 82.780869,268.105762 83.0118679,267.954785 C86.7025993,265.576015 89.140337,261.606718 89.4763353,256.18207 C89.5043352,255.737916 89.5165851,255.284984 89.5165851,254.823275 C89.5130851,253.896345 89.4535854,252.932548 89.332836,251.930129 C89.6373345,251.998596 89.9628329,252.067062 90.2935812,252.133773 C91.2105766,252.321617 92.2098216,252.502438 93.2598163,252.662193 C94.115562,252.793859 94.9958075,252.911481 95.8865531,253.004525 C96.3608007,253.055436 96.8367983,253.099325 97.3110459,253.136192 C98.2577911,253.208169 99.1975364,253.248547 100.102282,253.248547 C100.627279,253.248547 101.206526,253.201147 101.801523,253.118636 C102.099022,253.078258 102.40002,253.030859 102.697519,252.974681 C104.195511,252.700815 105.667254,252.265439 106.502,251.905551 L106.502,251.905551 L109.602984,254.53712 L109.958232,254.693364 C109.690484,255.146296 109.434985,255.604494 109.179486,256.064448 C109.067487,256.266336 108.953737,256.466469 108.843488,256.670113 C108.37274,257.542621 107.928242,258.430929 107.501245,259.324504 C107.266746,259.814302 107.039247,260.307611 106.818748,260.802676 C106.341,261.875317 105.889503,262.958491 105.474755,264.055709 C104.986507,265.349549 104.542009,266.660945 104.141262,267.984629 C103.938263,268.646471 103.747513,269.310069 103.569014,269.978933 C101.649274,277.204775 100.982527,284.857215 102.141022,292.432411 C102.47352,294.630359 102.996767,296.81953 103.679264,298.968322 C105.333006,304.194593 108.005242,309.164554 111.739723,313.283073 C112.32247,313.934381 112.926217,314.561113 113.549214,315.165022 C113.580714,315.196622 113.617464,315.22471 113.650714,315.25631 C117.992442,319.427496 123.266915,322.436508 128.742638,324.469434 L128.742638,324.469434 L129.286885,329.067218 L130.163631,336.491437 C130.17938,336.62837 130.28788,336.702103 130.399879,336.702103 C130.490879,336.702103 130.585378,336.649436 130.622128,336.538837 L130.622128,336.538837 L130.853127,335.834861 L136.451349,318.867476 L133.418614,317.896657 C127.272645,315.930441 121.618424,312.735341 117.479694,308.093668 C116.4367,306.942028 115.493454,305.707877 114.651709,304.405259 C114.229961,303.75395 113.832713,303.085086 113.461715,302.402177 C111.604974,298.984122 110.37298,295.186868 109.774483,291.24566 C109.532984,289.667421 109.384235,288.068115 109.324735,286.458276 C109.294986,285.65599 109.287986,284.848438 109.301986,284.040885 C109.315985,283.233332 109.350985,282.424024 109.406985,281.614715 C109.632734,278.377482 110.190981,275.140249 111.030977,271.982015 L111.030977,271.982015 C111.046727,271.925838 111.060727,271.878438 111.072977,271.832794 C111.104476,271.709905 111.153476,271.595794 111.191976,271.474662 C111.270726,271.221862 111.349475,270.969063 111.442225,270.725042 C111.550724,270.426599 111.673224,270.140444 111.802723,269.854289 C111.825473,269.803378 111.851723,269.748956 111.876223,269.698045 C112.47997,268.407717 113.276216,267.257832 114.224711,266.265946 C114.29296,266.192213 114.36296,266.120236 114.43471,266.048258 C114.618459,265.865681 114.802208,265.684859 114.996457,265.512816 C115.232706,265.300394 115.477704,265.098506 115.729703,264.901884 C115.778703,264.865018 115.824203,264.821129 115.876702,264.784262 C118.179691,263.041002 121.014677,262.063161 123.947662,262.063161 C125.732653,262.063161 127.552644,262.424804 129.307885,263.19549 L129.307885,263.19549 L135.434604,265.888503 L140.717827,268.20934 L141.939321,266.745211 L118.697688,251.689619 L109.130486,245.492529 C107.282496,243.917801 105.151006,241.802364 103.201516,239.209418 C101.567024,237.037803 100.058532,234.536145 98.9717875,231.681621 C98.9717875,231.681621 98.4362902,233.644326 98.4170403,236.321539 C98.4152903,236.656849 98.4205403,237.002692 98.4362902,237.355557 C98.4677901,238.064799 98.5395397,238.809152 98.6690391,239.56755 C98.7985384,240.325947 98.9822875,241.100144 99.2430362,241.870831 C99.5002849,242.639761 99.8345332,243.406936 100.256281,244.147778 C100.46628,244.518199 100.700779,244.883353 100.956278,245.23973 C100.51003,245.308196 100.065532,245.367885 99.6157843,245.422307 C98.2700411,245.582062 96.9155479,245.675106 95.5593047,245.675106 C94.3185609,245.675106 93.0778172,245.597862 91.8458234,245.424063 C88.2968413,244.928998 83.0626176,243.807202 78.3026416,242.702961 C77.5326454,242.525651 76.7731492,242.278118 76.022403,242.002497 C73.4306661,241.043967 70.9911783,239.537705 68.871939,237.66629 C68.4099413,237.257247 67.9584436,236.835915 67.5279458,236.397027 L67.5279458,236.397027 L83.6523646,237.432801 L85.176607,237.531112 L87.0385976,237.65049 C87.0385976,237.65049 86.9807606,237.467072 86.8928406,237.124502 L86.8367006,236.900056 C86.5401715,235.684274 86.0228527,233.079791 86.0341026,229.741739 C86.0376026,228.704209 86.0918524,227.592947 86.2196017,226.432528 C86.5398501,223.52885 87.3185962,220.305661 88.9110882,217.068427 L88.9110882,217.068427 L84.772359,217.068427 C84.5833599,217.391449 84.4171108,217.723247 84.2386117,218.051535 C83.7031144,219.032887 83.2026169,220.031795 82.8071189,221.078102 C81.986373,223.204073 81.4281258,225.423087 81.0623777,227.671946 C80.9836281,228.1951 80.9136284,228.711232 80.8558787,229.225608 C80.796379,229.739984 80.7473792,230.25436 80.7088794,230.772247 L80.7088794,230.772247 L62.8642192,229.625873 C62.0084736,227.696524 61.4694763,225.695198 61.3522269,223.713182 C61.0687283,218.950376 63.0899681,214.737058 67.0379482,211.685913 C67.5961954,211.257559 68.1894424,210.850271 68.8211893,210.469317 C69.5561856,210.025163 70.3244317,209.603831 71.1609275,209.231655 C74.1866623,207.883393 77.8633938,207.017907 82.1193723,206.766863 C82.8176188,206.726485 83.5193653,206.707174 84.2263617,206.707174 C85.0506076,206.707174 85.8818534,206.733508 86.7148492,206.782663 C89.2120866,206.924862 91.7408239,207.263684 94.2643112,207.677993 C97.6295443,208.232747 100.987777,208.920922 104.262011,209.461631 C105.117757,209.603831 105.977002,209.737253 106.832748,209.865408 C107.684994,209.990052 108.531989,210.111185 109.364985,210.225296 C110.199731,210.339406 111.018727,210.44825 111.814973,210.551828 C112.213971,210.604494 112.605969,210.655405 112.990967,210.706316 C113.428465,210.762494 113.853713,210.816916 114.271961,210.871338 C114.914207,210.955604 115.530204,211.038115 116.118201,211.117115 C116.504949,211.169781 116.879447,211.220692 117.238196,211.271603 C117.554944,211.317247 117.861192,211.362892 118.153441,211.40678 C119.325935,211.585846 120.31118,211.761401 121.039176,211.945734 C121.054926,211.949245 121.070676,211.952756 121.082926,211.956267 C122.075171,212.2038 123.056916,212.477666 124.035161,212.767331 C125.716903,213.265907 127.370645,213.841727 128.985886,214.522881 C129.313135,214.661569 129.647383,214.787969 129.971132,214.93719 L129.971132,214.93719 L144.609808,220.075684 L172.844166,229.987516 L173.006915,228.079234 L173.199414,225.818086 L132.26712,208.722545 C130.797127,208.181836 129.320135,207.679749 127.844892,207.211017 C124.40266,206.11731 120.962177,205.237779 117.609194,204.668981 C115.841703,204.368782 114.096961,204.147583 112.39247,204.033472 C112.39247,204.033472 110.169981,197.495806 105.777503,190.643897 C105.572754,190.322631 105.362755,190.003121 105.147506,189.681855 C104.876258,189.276323 104.599759,188.872547 104.314511,188.468771 C103.936513,187.933328 103.544515,187.404908 103.138517,186.878243 C102.38252,185.891624 101.579274,184.922561 100.728779,183.990364 C100.230031,183.442633 99.7155338,182.908945 99.1870364,182.391058 L99.1870364,182.391058 L96.3065509,183.00199 L95.697554,183.1319 C95.9180529,183.456677 96.1210519,183.788476 96.3275508,184.118519 C101.574024,192.443335 102.844518,201.863613 102.844518,201.863613 C100.727029,201.373815 98.7565386,201.019194 96.8420482,200.724262 L96.8420482,200.724262 C96.7037989,200.703195 96.5707996,200.687395 96.4395503,200.668084 C96.3065509,200.650529 96.1735516,200.631218 96.0423023,200.613662 L96.0423023,200.613662 C94.3763107,200.376663 92.7890686,200.225686 91.2368265,200.120353 C91.138827,200.115086 91.0355775,200.102797 90.932328,200.090508 C90.8763283,200.083486 90.8185786,200.074708 90.7643288,200.072953 C90.727579,200.069442 90.6908292,200.071197 90.6540794,200.069442 L90.5442674,200.067028 L90.5442674,200.067028 L90.4370805,200.065931 L90.4370805,200.065931 L89.9982702,200.065272 L89.9982702,200.065272 L89.8630834,200.060664 C88.9705879,200.022042 88.0868423,200.000975 87.2170967,200.000975 C87.0875973,200.000975 86.958098,200.004486 86.8303486,200.004486 C86.5783499,200.006242 86.3246012,200.007998 86.0726024,200.013264 C85.7961038,200.020286 85.5196052,200.027309 85.2413566,200.034331 C85.0996073,200.037842 84.9561081,200.037842 84.8143588,200.044864 C83.2586166,200.111575 81.7186244,200.218663 80.199632,200.404752 L80.199632,200.404752 C80.1016325,200.415285 80.005383,200.431085 79.9108835,200.441618 L79.9108835,200.441618 L79.9003835,200.443374 C78.8608887,200.576796 77.817894,200.738306 76.7696493,200.915617 C76.3111516,200.994616 75.8544039,201.066594 75.3941562,201.154371 L75.3941562,201.154371 C75.0984077,201.208793 74.8009092,201.26146 74.5069107,201.317637 L74.5069107,201.317637 C73.3309166,201.551126 72.1461725,201.80568 70.9456786,202.07779 C70.4889309,202.179612 70.0374331,202.277923 69.5754355,202.388523 C69.1659375,201.530059 68.7686895,200.680373 68.3836915,199.84122 C67.2286973,197.327273 66.1822026,194.911637 65.2669572,192.606601 C64.6562102,191.070495 64.104963,189.583545 63.6132155,188.151016 C63.3699667,187.436508 63.1407179,186.732532 62.9289689,186.044357 C62.5054711,184.668006 62.1484729,183.346077 61.8614743,182.085593 C61.719725,181.453595 61.5954756,180.839153 61.4904762,180.238755 C60.8587293,176.639878 60.9077291,173.599267 61.7967246,171.229275 C62.507221,169.342059 64.111963,167.453088 65.903954,165.757227 C66.5024509,165.19194 67.1201978,164.64772 67.7344447,164.131588 C68.5516906,163.443413 69.3601866,162.804393 70.0986828,162.233839 C70.4539311,161.995084 70.8249292,161.786174 71.2046773,161.59833 C71.5879253,161.412242 71.9834234,161.245465 72.3859213,161.096243 C72.8969188,160.910155 73.448166,160.7978 73.9976632,160.683689 C74.2759118,160.622245 74.5471605,160.545001 74.837659,160.501112 C75.2051571,160.450201 75.6076551,160.458979 75.9944032,160.436157 C76.1764023,160.425623 76.3566513,160.409823 76.5369004,160.395779 C76.7188995,160.381734 76.9008986,160.369446 77.0916476,160.369446 C77.1161475,160.369446 77.1441474,160.369446 77.1721472,160.371201 L77.1721472,160.371201 L77.1983971,160.371201 C77.2473969,160.371201 77.2963966,160.369446 77.3453964,160.369446 C77.3768962,160.369446 77.4066461,160.369446 77.4381459,160.371201 C78.1871421,160.395779 78.9728882,160.492334 79.7691342,160.611711 C79.8443838,160.624 79.9178834,160.631023 79.9896331,160.636289 C80.0736326,160.643311 80.1576322,160.646822 80.2451318,160.662622 C81.3738761,160.857488 82.5638701,161.168221 83.7888639,161.55093 C83.9568631,161.603597 84.1178623,161.642219 84.2893614,161.698397 C84.3541111,161.721219 84.4188608,161.74053 84.4853604,161.761596 C85.7891039,162.198728 87.157597,162.76226 88.5645899,163.404791 C88.7588389,163.494324 88.942588,163.568057 89.136837,163.659345 C89.7878338,163.966567 90.4510804,164.301876 91.126577,164.660009 C91.8020736,165.018141 92.4880702,165.397339 93.1828167,165.792338 C93.4698152,165.955604 93.7410639,166.090781 94.0298124,166.259314 C94.0438123,166.266336 94.0578123,166.273359 94.0718122,166.280381 C94.1488118,166.326025 94.2310614,166.382203 94.309811,166.429602 C94.6860591,166.661335 95.0710572,166.908867 95.4560552,167.1564 C95.5575547,167.221355 95.6625542,167.291577 95.7640537,167.353021 C96.894548,168.05173 98.0162923,168.725861 99.2045364,169.53517 L99.2045364,169.53517 L100.48203,170.4147 L101.280026,170.965942 C100.893278,169.127882 100.48028,167.021223 100.070782,164.684586 C100.030532,164.463387 99.9937824,164.222877 99.9535326,163.996411 C99.8555331,163.431124 99.7592836,162.869348 99.6612841,162.279483 C99.5930344,161.859907 99.5265347,161.417509 99.4600351,160.985644 C99.3935354,160.566067 99.3270357,160.157024 99.2622861,159.726915 C99.1957864,159.284516 99.1310367,158.819295 99.0662871,158.368119 L99.0662871,158.368119 L98.9389914,157.482282 L98.9389914,157.482282 L98.875538,157.032146 C98.8125383,156.568681 98.7530386,156.085905 98.6900389,155.611907 C98.6305392,155.14493 98.5692896,154.690243 98.5115398,154.214489 C98.4537901,153.751024 98.4012904,153.268248 98.3470407,152.797761 C98.289291,152.288651 98.2280413,151.78832 98.1720416,151.268677 C98.1230418,150.810479 98.079292,150.334725 98.0320423,149.869504 C97.9760425,149.320017 97.9200428,148.779308 97.8675431,148.219288 C97.8220433,147.720712 97.7835435,147.206336 97.7397937,146.700737 C97.694294,146.156517 97.6470442,145.619319 97.6032944,145.064565 C97.5647946,144.546678 97.5332948,144.012991 97.4982949,143.486326 C97.4597951,142.929817 97.4195453,142.38033 97.3862955,141.815043 C97.3547957,141.279601 97.3320458,140.730114 97.3040459,140.187649 C97.2777961,139.617095 97.2445462,139.055319 97.2217963,138.479499 C97.2007964,137.93879 97.1885465,137.387547 97.1710466,136.841571 C97.1535467,136.248196 97.1290468,135.661842 97.1167969,135.0632 C97.1045469,134.526002 97.1027969,133.97827 97.097547,133.43405 C97.088797,132.816096 97.0782971,132.20341 97.0782971,131.578434 C97.0765471,131.051769 97.085297,130.516327 97.090547,129.986151 C97.095797,129.334842 97.095797,128.685288 97.1097969,128.028713 C97.1202968,127.50907 97.1430467,126.982405 97.1570467,126.459252 C97.1762966,125.807943 97.1902965,125.160145 97.2182964,124.50357 L97.2182964,124.50357 L97.2200463,124.473725 C97.2217963,124.436859 97.2217963,124.401748 97.2235463,124.366637 C97.4195453,119.740764 99.2045364,115.499356 102.055272,112.183123 C102.120022,112.10939 102.177771,112.030391 102.242521,111.956657 C102.42452,111.749503 102.622269,111.556392 102.814768,111.358015 C103.023017,111.140327 103.226016,110.917372 103.443015,110.708462 C103.504265,110.650529 103.570764,110.599618 103.632014,110.54344 C106.040002,108.303359 109.000987,106.644365 112.32947,105.81399 C112.45372,105.78239 112.581469,105.764834 112.705718,105.73499 C113.129216,105.636679 113.556214,105.540124 113.991962,105.469902 L113.991962,105.469902 L114.061962,105.457613 C114.065462,105.457613 114.067212,105.457613 114.070712,105.455858 C114.194961,105.436547 114.31921,105.417236 114.44696,105.397925 L114.44696,105.397925 L113.729463,101.670893 C113.249966,101.70776 111.622474,101.90087 109.447235,102.26778 C105.982252,102.852378 101.122527,103.88113 97.2235463,105.44708 C96.3958005,102.171225 95.6608042,99.204346 95.0010575,96.4709554 C94.7193089,95.303515 94.4480603,94.1676745 94.1943116,93.0880115 C93.3490658,89.4733352 92.6613193,86.3221238 92.115322,83.4921781 C91.0233275,77.8340421 90.4983302,73.4662349 90.4038307,69.2862716 C90.3583309,67.1585456 90.741579,65.1291304 91.4765753,63.2805368 C92.3953206,60.9684781 93.8635632,58.9408185 95.7220539,57.3608239 C96.3240509,56.8517146 96.9767976,56.4022939 97.6540442,55.9897398 C98.0215423,55.7685406 98.3960404,55.5631413 98.7827885,55.3717864 C100.777778,54.3886787 103.017767,53.8198806 105.410005,53.8198806 L105.410005,53.8198806 L105.546504,52.2609527 L105.684754,50.7020247 C105.630504,50.7020247 105.579754,50.7020247 105.527255,50.7002692 C105.418755,50.7002692 105.308506,50.6985136 105.200006,50.6985136 C99.7470336,50.6985136 95.0868071,52.2293528 91.4765753,54.1780127 L91.4765753,54.1780127 C90.4143306,54.738033 89.4500855,55.3349198 88.5873398,55.9511177 C88.5645899,55.9651621 88.53834,55.9774509 88.5190901,55.9914953 C88.5155902,55.9827176 88.4770903,55.8545625 88.4105907,55.6140522 C88.345841,55.377053 88.2548415,55.0294542 88.142842,54.5870557 C88.0203426,54.099013 87.8733434,53.4828151 87.7193442,52.7770842 C87.4620955,51.6184216 87.1820969,50.198182 86.9265982,48.5865876 C86.9055983,48.4584325 86.8863484,48.3302774 86.8670985,48.2003667 C86.7375991,47.3647252 86.6168497,46.488706 86.5118502,45.5705536 C86.2878514,43.5902938 86.1321021,41.4415012 86.1181022,39.2295088 C86.1111023,38.1235127 86.1408521,37.0034721 86.2126017,35.8799204 C86.7235992,28.0168143 89.4133356,20.044864 97.3442957,16.5091874 C98.2402912,16.1106776 99.2972859,15.7402567 100.44003,15.4330355 C102.344021,14.9221706 104.48251,14.5886162 106.502,14.5886162 C107.851243,14.5886162 109.144486,14.7378379 110.280231,15.0819256 C111.795723,15.5418796 113.025967,16.3511879 113.725963,17.6186947 C113.902712,17.9346936 114.044462,18.2822924 114.147711,18.6579799 C114.233461,18.9669567 114.32096,19.2864667 114.40846,19.6147544 C114.579959,20.2730855 114.756708,20.9682831 114.931707,21.6985917 C115.106706,22.4289002 115.283455,23.1960754 115.460205,23.9930948 C115.622954,24.7216479 115.785703,25.4800453 115.948452,26.2595092 C116.051702,26.7615964 116.158451,27.2707057 116.261701,27.7921039 C116.3527,28.2362579 116.44195,28.6874342 116.531199,29.1456326 C116.723698,30.1322514 116.916197,31.1522256 117.110446,32.1967776 C117.276695,33.0903523 117.441195,34.003238 117.605694,34.9354348 C117.964442,36.9543167 118.31969,39.0592205 118.673188,41.2238131 C118.835938,42.2174541 118.996937,43.2286506 119.159686,44.2468693 C119.185936,44.4224242 119.213936,44.5962236 119.241936,44.7735341 C119.388935,45.7109975 119.535934,46.6572387 119.681183,47.6122576 C119.791433,48.3372996 119.903432,49.0658526 120.011932,49.7979167 C120.160681,50.7898022 120.30768,51.7887099 120.454679,52.7911286 C120.559679,53.5231928 120.668178,54.258768 120.773178,54.9943432 C120.914927,55.9862287 121.056676,56.9816252 121.194926,57.9770218 C121.267481,58.4954941 121.339629,59.0141504 121.411347,59.532735 L121.625188,61.0880182 C121.696024,61.6062038 121.766408,62.124062 121.836316,62.6413373 L122.044596,64.1911583 C123.940355,78.377131 125.460099,91.9288473 126.136901,99.5291226 C126.21915,100.457808 126.28915,101.296961 126.3469,102.037803 C126.3854,102.531112 126.415149,102.982288 126.441399,103.386065 C126.492149,104.193618 126.520149,104.815082 126.518399,105.225881 L126.518399,105.225881 L129.477634,166.187337 C129.477634,166.187337 127.515894,169.60188 125.022156,173.894199 C124.071911,175.530371 123.044666,177.291187 122.019172,179.044981 L122.019172,179.044981 L124.35191,179.778801 L125.013406,179.987711 C125.034406,179.987711 126.121151,178.546405 127.963892,176.288768 C130.436629,173.256934 134.27086,168.748683 138.728087,164.250966 L138.728087,164.250966 C139.729082,163.239769 140.756327,162.23735 141.802822,161.252487 C141.837822,161.220887 141.867572,161.191043 141.902571,161.159443 C144.028811,159.165139 146.2443,157.242812 148.486038,155.534662 C149.114285,151.94983 149.705782,148.695042 150.274529,145.714119 C150.386529,145.117232 150.500278,144.530878 150.612278,143.956813 C150.815277,142.922795 151.013026,141.927398 151.210775,140.960091 C151.366524,140.196426 151.522273,139.450318 151.678022,138.72352 C151.954521,137.413881 152.231019,136.162174 152.507518,134.961378 C152.553018,134.763001 152.598518,134.566379 152.642267,134.371513 C152.840016,133.534116 153.034265,132.717786 153.230264,131.927788 C153.447263,131.053525 153.666012,130.205594 153.886511,129.382242 C153.998511,128.969688 154.10876,128.564156 154.220759,128.16389 C154.444758,127.361604 154.670507,126.583896 154.899756,125.821987 C155.015255,125.441033 155.129005,125.06359 155.248004,124.691413 C155.403754,124.194593 155.561253,123.708306 155.720502,123.22553 C155.997001,122.389888 156.282249,121.573558 156.572748,120.769516 C157.048745,119.451098 157.547493,118.166036 158.07599,116.889751 C158.394488,116.122576 158.723487,115.357157 159.062985,114.589982 C159.176735,114.331916 159.292234,114.075606 159.409483,113.81754 C159.645732,113.296142 159.885481,112.772988 160.13573,112.244568 C161.610972,109.112667 163.598962,106.270433 165.9982,103.860063 C166.00695,103.851285 166.01745,103.844263 166.0262,103.835486 C167.520693,102.338002 169.181434,101.014317 170.969925,99.8872547 C172.865166,98.6917255 174.907405,97.7173955 177.075644,97.0169313 C178.092389,96.6903991 178.979635,96.4656888 179.705881,96.312956 C180.432128,96.1602231 180.999125,96.0794679 181.371873,96.0390902 C181.623872,96.012757 181.788371,96.0022237 181.86012,96.0022237 L181.86012,96.0022237 L181.86012,92.8755901 C181.387623,92.8755901 180.832876,92.9335232 180.332378,92.9493231 C180.050629,92.9598564 179.744381,93.0002341 179.460882,93.016034 C178.272638,93.0792338 177.058145,93.1828112 175.803401,93.3443218 L175.803401,93.3443218 C174.777906,93.4794991 173.773411,93.6339874 172.763666,93.8393867 C172.01817,93.990364 171.328673,94.1975188 170.612927,94.3906293 L170.612927,94.3906293 C170.574427,94.4011626 170.537677,94.4116959 170.500928,94.4222292 L170.402928,94.4500985 L170.402928,94.4500985 L170.304929,94.4766512 C168.413188,95.0103382 166.624697,95.6493582 165.229954,96.5253774 C165.308704,93.5268989 165.467953,90.6495533 165.686702,87.9021184 C166.271199,80.5797215 167.289694,74.1824991 168.399188,68.8789841 C168.539187,68.2153864 168.679187,67.5693442 168.819186,66.942613 C169.384433,64.4269106 169.96018,62.1920961 170.506178,60.255725 C172.987665,51.4551555 180.493377,45.089533 189.528582,43.8746928 C189.539082,43.8729372 189.544332,43.8711817 189.554832,43.8694261 C189.596831,43.8641595 189.635331,43.8588928 189.658081,43.8536262 L189.658081,43.8536262 L189.658081,41.2466352 C189.201333,41.1904576 188.718336,41.15008 188.217838,41.1184801 C187.736591,41.0886357 187.241343,41.0710802 186.740846,41.0552803 C186.600847,41.0517692 186.455597,41.0517692 186.313848,41.0500137 C186.173849,41.0482581 186.037349,41.044747 185.89385,41.044747 C184.523607,41.044747 183.088614,41.1377911 181.632622,41.2975461 C181.520622,41.309835 181.413873,41.3133461 181.301873,41.3273905 L181.301873,41.3273905 C180.965875,41.364257 180.657876,41.4134124 180.323628,41.4608122 C179.399633,41.5924784 178.475637,41.7469668 177.576142,41.9400772 C177.066895,42.0489213 176.566397,42.1735653 176.074649,42.3087426 C175.696651,42.4123201 175.320403,42.5194086 174.954655,42.642297 C174.954655,42.6124527 174.958155,42.5422307 174.963405,42.4509421 C174.972155,42.303476 174.986155,42.0805212 175.008905,41.7873444 C175.012405,41.7627667 175.014155,41.7364335 175.015905,41.7101003 C175.038655,41.4046347 175.071905,41.0307026 175.115654,40.5988374 C175.169904,40.0686615 175.239904,39.4507081 175.329153,38.7625327 C175.399153,38.2358678 175.481402,37.6688253 175.577652,37.0684274 C175.642402,36.6611399 175.712401,36.2450747 175.791151,35.8096984 C175.99415,34.6808801 176.246149,33.4625288 176.557647,32.1985331 C176.764146,31.3558694 176.996895,30.492139 177.259394,29.6196309 C177.521892,28.7471228 177.812391,27.865837 178.137889,26.9898178 C178.370638,26.3613311 178.626137,25.7363555 178.892135,25.114891 C181.420873,19.2496001 185.538602,13.9618851 192.255068,13.0876214 C193.194813,12.964733 194.078559,12.9419108 194.902805,12.9401553 L194.902805,12.9401553 L194.939555,12.9401553 C195.91255,12.9401553 196.798045,13.0086217 197.617041,13.1297546 C197.73254,13.1473101 197.84629,13.1683767 197.958289,13.1876877 C203.75951,14.1918621 205.653001,18.1664261 206.025749,22.3060118 C206.055499,22.6220107 206.064249,22.9415207 206.076499,23.2592752 C206.081748,23.4207857 206.097498,23.5840518 206.099248,23.7473179 C206.106248,24.2265829 206.095748,24.7040924 206.074749,25.1745796 C206.051999,25.6450669 206.016999,26.108532 205.971499,26.5614637 C205.904999,27.2408614 205.81575,27.881637 205.72125,28.4978348 C205.68975,28.7014786 205.660001,28.9156556 205.626751,29.1105216 C205.010754,32.7023758 204.317757,36.8489837 203.556511,41.3958569 C203.101513,44.1204697 202.622016,46.9925487 202.119768,49.984005 C201.72077,52.3522413 201.311272,54.7854328 200.884275,57.2853353 C200.674276,58.5229977 200.459027,59.7799711 200.242028,61.0439668 C199.977779,62.5712948 199.711781,64.1126673 199.442282,65.6733508 C199.193783,67.1006125 198.941784,68.5419186 198.686286,69.9920025 C198.430787,71.4420864 198.171788,72.9027035 197.90929,74.3720985 C197.384292,77.3108883 196.845295,80.2830336 196.294048,83.2674677 C195.78655,86.0149027 195.265053,88.7746265 194.734806,91.5308392 C194.691056,91.7695939 194.645556,92.0065931 194.600056,92.2453478 C194.008559,95.3263371 193.406562,98.4161042 192.801065,101.491827 C192.006569,105.527835 191.164824,109.721843 190.309078,113.961495 C189.88208,116.082199 189.449832,118.215191 189.017584,120.346428 C188.440087,123.188663 187.86259,126.027387 187.293843,128.830999 C187.152094,129.533219 187.010344,130.231928 186.870345,130.928881 C184.332858,143.467015 182.01237,155.153708 180.712126,163.09757 C187.81709,183.588343 190.662576,207.302306 190.006329,230.101627 L190.006329,230.101627 L190.001079,230.289471 C189.91358,233.237038 189.766581,236.168806 189.563582,239.07424 C189.477832,240.317169 189.381583,241.554832 189.273083,242.788983 C189.029834,245.597862 188.732336,248.380408 188.382338,251.127843 C184.073859,285.027504 171.897421,313.597316 154.702007,321.334023 C154.19801,321.560488 153.690512,321.769399 153.177765,321.960754 C153.793762,321.80451 154.422008,321.637733 155.060755,321.455155 C159.535483,320.177115 164.538708,318.1951 169.330183,315.073733 C169.340683,315.066711 169.345933,315.057933 169.354683,315.050911 C169.363433,315.042133 169.373933,315.035111 169.380933,315.028089 L169.380933,315.028089 L174.154909,349.719502 L174.156659,349.719502 L174.354408,349.717747 L175.178654,354.594663 L182.409618,354.594663 L181.819871,350.307611 L176.821896,313.997581 L176.289898,310.152928 C185.073104,298.438146 191.660071,281.138961 195.233553,259.675613 C200.586776,227.522725 198.037039,191.354894 188.433087,162.469083 C190.030829,153.11376 192.802815,139.450318 195.730551,125.037257 C197.242543,117.581438 198.777285,110.027309 200.170278,102.950689 C200.775775,99.8644326 201.381272,96.7641322 201.976269,93.670854 C202.555516,90.6618422 203.124263,87.6458081 203.680761,84.642063 C204.233758,81.6400733 204.774505,78.6538837 205.301252,75.7010494 C206.354747,69.8041587 207.352242,64.0389342 208.286737,58.5563531 C209.222983,53.0667499 210.092728,47.8633012 210.888974,43.1004955 C211.67647,38.3815784 212.392217,34.0945266 213.027464,30.3903172 C213.216463,29.2720321 213.351212,28.2713689 213.445711,27.3005501 C213.569961,26.0365544 213.625961,24.8076698 213.610211,23.6472516 C213.599711,22.9380096 213.564711,22.2603675 213.505211,21.6160808 C212.588216,11.4690048 205.649501,5.40533687 194.939555,5.40533687 L194.939555,5.40533687 Z M47.4032221,194.815082 C47.7234704,194.815082 48.0402189,194.830882 48.3482173,194.860726 C48.9642142,194.916904 49.5504613,195.029259 50.1052085,195.185503 C50.6599557,195.343503 51.184953,195.543635 51.6749506,195.778879 C52.4116969,196.129989 53.0731935,196.556587 53.6559406,197.027074 C56.1479281,199.031912 60.3409069,202.5553 62.4303964,205.467756 C62.5686457,205.660867 62.6981451,205.852222 62.8171445,206.040066 C61.5501509,206.823041 60.4476564,207.677993 59.4886612,208.57859 C58.5296661,209.480943 57.7159202,210.427184 57.0246736,211.392736 C56.7936748,211.715757 56.5766759,212.038778 56.3736769,212.363555 C55.964179,213.014864 55.6089308,213.667928 55.2991823,214.317481 C55.1451831,214.642258 55.0016838,214.967035 54.8669345,215.2883 C54.6009358,215.932587 54.378687,216.56634 54.1914379,217.186049 C54.0041888,217.805758 53.8536896,218.407912 53.7346902,218.987243 C53.6156908,219.564819 53.5264412,220.119572 53.4616916,220.640971 C53.3969419,221.423946 53.3601921,222.180588 53.3496921,222.914407 C53.3409422,223.649982 53.3584421,224.359224 53.4004419,225.049155 C53.5316912,227.115437 53.8904394,228.983342 54.4434366,230.682714 C56.4716764,236.913159 61.0969031,240.880701 66.4571262,244.107401 C65.4141314,245.155464 64.5303859,246.115749 63.7778897,246.993524 C63.7236399,247.060235 63.6676402,247.12519 63.6116405,247.18839 C62.7541448,248.203098 62.0786482,249.096672 61.5449009,249.867358 C60.6874052,251.105021 60.1886577,252.026684 59.8981592,252.600749 L59.8981592,252.600749 L61.119653,253.229236 L62.916894,254.15441 C63.0551433,253.964811 63.2073925,253.766434 63.3701417,253.56279 C64.297637,252.393594 65.6066304,251.018999 67.1256228,249.876136 C67.3496217,249.707603 67.5771205,249.546093 67.8081194,249.389849 C68.9666135,248.606874 70.2213572,247.983654 71.5058508,247.690477 C72.0203482,247.574611 72.5383456,247.509656 73.0580929,247.509656 C73.3450915,247.509656 73.6303401,247.528967 73.9173386,247.5711 C74.2025872,247.611477 74.4878358,247.672922 74.7713343,247.760699 C80.793054,249.447782 82.791544,253.712012 81.9165484,257.597043 C81.8307988,257.986775 81.7100494,258.37124 81.5648001,258.752194 C81.4178009,259.13666 81.2515517,259.515858 81.0485527,259.881013 C80.6863046,260.537588 80.2330568,261.159053 79.7028095,261.733117 C79.6800596,261.757695 79.6590597,261.785784 79.6363098,261.810362 C77.7638193,263.792377 74.9165836,265.158195 71.3868514,265.158195 C70.6396051,265.158195 69.862609,265.09675 69.0576131,264.968595 C65.5453808,264.575352 62.0383984,262.129872 58.5296661,258.29224 C58.2374175,257.970975 57.945169,257.642687 57.6511705,257.303866 C57.1244231,256.692935 56.5994258,256.048648 56.0709284,255.379784 C55.9239292,255.19194 55.7769299,255.004096 55.6299307,254.812741 C55.4269317,254.547653 55.2239327,254.286077 55.0191837,254.013966 C53.9954389,252.623571 52.9681941,251.252487 51.9531992,249.88667 C51.4737016,249.242383 50.995954,248.599852 50.5217064,247.959076 C49.9319593,247.160301 49.3457123,246.363282 48.7699652,245.566262 C47.9614693,244.447977 47.1704732,243.329692 46.4004771,242.204385 C42.9389945,237.143136 39.9447596,231.960754 38.0582691,226.197285 C37.685521,225.054422 35.1655336,219.182109 34.2415383,213.211485 C33.9510398,211.326025 33.8197904,209.430032 33.9632897,207.670971 C34.1347888,205.618734 34.6807861,203.750829 35.7920305,202.29899 C35.9862795,202.042679 36.1717786,201.800414 36.3555277,201.558148 C37.8605201,199.56911 38.9997644,198.024227 40.3892574,197.032341 C40.6115062,196.874342 40.8425051,196.728631 41.0787539,196.596965 C42.1742484,195.998322 43.2224931,195.573479 44.2217381,195.285569 C44.5489864,195.192525 44.8727348,195.108259 45.1894832,195.043304 C45.4484819,194.990637 45.7004806,194.948504 45.9507294,194.915148 C46.4494769,194.846682 46.9324744,194.815082 47.4032221,194.815082 Z" id="Combined-Shape" fill="#FFFFFF"></path>
    </g>
</svg>