<?xml version="1.0" encoding="UTF-8"?>
<svg id="Layer_1" data-name="Layer 1" xmlns="http://www.w3.org/2000/svg" xmlns:xlink="http://www.w3.org/1999/xlink" viewBox="0 0 54.19 23.4">
  <defs>
    <style>
      .cls-1 {
        fill: url(#linear-gradient);
      }

      .cls-1, .cls-2, .cls-3, .cls-4 {
        stroke-width: 0px;
      }

      .cls-2 {
        isolation: isolate;
        opacity: .3;
      }

      .cls-2, .cls-3 {
        fill-rule: evenodd;
      }

      .cls-2, .cls-3, .cls-4 {
        fill: #fff;
      }
    </style>
    <linearGradient id="linear-gradient" x1="-1188.45" y1="831.53" x2="-1188.45" y2="831.5" gradientTransform="translate(1188465.96 831525.45) scale(1000 -1000)" gradientUnits="userSpaceOnUse">
      <stop offset="0" stop-color="#2aabee"/>
      <stop offset="1" stop-color="#229ed9"/>
    </linearGradient>
  </defs>
  <g>
    <path class="cls-2" d="m42.49,23.3H11.4V0h31.09C48.89,0,54.19,5.2,54.19,11.7h0c0,6.4-5.2,11.6-11.7,11.6Z"/>
    <circle class="cls-1" cx="11.7" cy="11.7" r="11.7"/>
    <path class="cls-3" d="m5.3,11.5c3.4-1.5,5.7-2.5,6.8-2.9,3.2-1.4,3.9-1.6,4.4-1.6.1,0,.3,0,.5.1.1.1.1.2.2.3v.5c-.2,1.8-.9,6.3-1.3,8.4-.2.9-.5,1.2-.8,1.2-.7.1-1.2-.4-1.8-.9-1-.7-1.6-1.1-2.6-1.8-1.2-.8-.4-1.2.3-1.9.2-.2,3.2-2.9,3.2-3.1,0,0,0-.1-.1-.2-.1-.1-.2,0-.2,0-.1,0-1.7,1.1-4.9,3.3-.5.3-.9.5-1.3.5s-1.2-.2-1.8-.4c-.7-.2-1.3-.4-1.3-.8-.1-.2.2-.4.7-.7Z"/>
  </g>
  <g>
    <path class="cls-4" d="m26.9,15v-6.51h2.9c1.19,0,2.04.81,2.04,1.95,0,.43-.21.82-.56,1.08.58.33.91.91.91,1.53,0,1.19-.89,1.95-2.01,1.95h-3.28Zm1.45-5.21v1.23h1.41c.36,0,.65-.26.65-.62s-.29-.61-.65-.61h-1.41Zm0,2.5v1.41h1.76c.36,0,.65-.33.65-.7s-.29-.72-.65-.72h-1.76Z"/>
    <path class="cls-4" d="m32.59,11.74c0-1.88,1.57-3.4,3.53-3.4s3.53,1.52,3.53,3.4-1.58,3.4-3.53,3.4-3.53-1.52-3.53-3.4Zm3.53-2.1c-1.15,0-2.08.94-2.08,2.1s.93,2.1,2.08,2.1,2.08-.94,2.08-2.1-.93-2.1-2.08-2.1Z"/>
    <path class="cls-4" d="m45.09,8.48v1.3h-1.88v5.21h-1.45v-5.21h-1.88v-1.3h5.21Z"/>
  </g>
</svg>