<svg width="30px" height="1963px" viewBox="0 0 30 1963" xmlns="http://www.w3.org/2000/svg" xmlns:xlink="http://www.w3.org/1999/xlink" class="loader-three"><title>line_3</title><desc>Created with Sketch.</desc><g id="Home" stroke="none" stroke-width="1" fill="none" fill-rule="evenodd"><g id="line_3" fill="#FFFFFF"><path d="M24.4334733,1560.15452 L16.0293754,1568.02522 C15.5702296,1568.45552 14.8815108,1568.46335 14.4137249,1568.04477 L5.58750912,1560.15192 C5.10614664,1559.72031 5.00987405,1558.97574 5.36410757,1558.42417 L8.19550723,1554.02853 C8.42508023,1553.66994 8.80646756,1553.45609 9.2150085,1553.45609 L20.7701802,1553.45609 C21.1787213,1553.45609 21.5601086,1553.66994 21.790916,1554.02853 L24.6358924,1558.44503 C24.9839547,1558.98748 24.8975561,1559.72031 24.4334733,1560.15452 Z M8.90644271,1547.35226 C9.41372489,1547.04192 10.0604789,1547.22578 10.3529993,1547.7604 L11.3564553,1549.59637 C11.6502097,1550.1323 11.4749443,1550.81688 10.9701308,1551.12461 C10.464083,1551.43495 9.81609481,1551.2511 9.52357449,1550.71647 L8.51888415,1548.8792 C8.22759817,1548.34327 8.40039487,1547.65999 8.90644271,1547.35226 Z M13.9348309,1547.46831 C13.9348309,1546.85154 14.4075537,1546.34952 14.9925943,1546.34952 C15.5776352,1546.34952 16.0515923,1546.85154 16.0515923,1547.46831 L16.0515923,1549.58855 C16.0515923,1550.20793 15.5776352,1550.70735 14.9925943,1550.70735 C14.4075537,1550.70735 13.9348309,1550.20793 13.9348309,1549.58855 L13.9348309,1547.46831 Z M18.6287336,1549.59637 L19.6321896,1547.7604 C19.9247099,1547.22578 20.5726981,1547.04192 21.0787459,1547.35226 C21.584794,1547.65999 21.758825,1548.34327 21.4663047,1548.8792 L20.4628487,1550.71647 C20.1690941,1551.2511 19.5223402,1551.43495 19.0162924,1551.12461 C18.5102443,1550.81688 18.3362133,1550.1323 18.6287336,1549.59637 Z M23.8286844,1536 L6.17131563,1536 C2.7622809,1536 0,1538.9605 0,1542.61416 L0,1572.38584 C0,1576.0395 2.7622809,1579 6.17131563,1579 L23.8286844,1579 C27.2377191,1579 30,1576.0395 30,1572.38584 L30,1542.61416 C30,1538.9605 27.2377191,1536 23.8286844,1536 Z" id="Shape"></path><path d="M24.4334733,1512.15452 L16.0293754,1520.02522 C15.5702296,1520.45552 14.8815108,1520.46335 14.4137249,1520.04477 L5.58750912,1512.15192 C5.10614664,1511.72031 5.00987405,1510.97574 5.36410757,1510.42417 L8.19550723,1506.02853 C8.42508023,1505.66994 8.80646756,1505.45609 9.2150085,1505.45609 L20.7701802,1505.45609 C21.1787213,1505.45609 21.5601086,1505.66994 21.790916,1506.02853 L24.6358924,1510.44503 C24.9839547,1510.98748 24.8975561,1511.72031 24.4334733,1512.15452 Z M8.90644271,1499.35226 C9.41372489,1499.04192 10.0604789,1499.22578 10.3529993,1499.7604 L11.3564553,1501.59637 C11.6502097,1502.1323 11.4749443,1502.81688 10.9701308,1503.12461 C10.464083,1503.43495 9.81609481,1503.2511 9.52357449,1502.71647 L8.51888415,1500.8792 C8.22759817,1500.34327 8.40039487,1499.65999 8.90644271,1499.35226 Z M13.9348309,1499.46831 C13.9348309,1498.85154 14.4075537,1498.34952 14.9925943,1498.34952 C15.5776352,1498.34952 16.0515923,1498.85154 16.0515923,1499.46831 L16.0515923,1501.58855 C16.0515923,1502.20793 15.5776352,1502.70735 14.9925943,1502.70735 C14.4075537,1502.70735 13.9348309,1502.20793 13.9348309,1501.58855 L13.9348309,1499.46831 Z M18.6287336,1501.59637 L19.6321896,1499.7604 C19.9247099,1499.22578 20.5726981,1499.04192 21.0787459,1499.35226 C21.584794,1499.65999 21.758825,1500.34327 21.4663047,1500.8792 L20.4628487,1502.71647 C20.1690941,1503.2511 19.5223402,1503.43495 19.0162924,1503.12461 C18.5102443,1502.81688 18.3362133,1502.1323 18.6287336,1501.59637 Z M23.8286844,1488 L6.17131563,1488 C2.7622809,1488 0,1490.9605 0,1494.61416 L0,1524.38584 C0,1528.0395 2.7622809,1531 6.17131563,1531 L23.8286844,1531 C27.2377191,1531 30,1528.0395 30,1524.38584 L30,1494.61416 C30,1490.9605 27.2377191,1488 23.8286844,1488 Z" id="Shape"></path><path d="M22.2664252,1455.28891 L14.5377875,1472.28079 C14.2428107,1472.93016 13.5047517,1473.20269 12.890114,1472.89104 L10.2390258,1471.54536 C9.62438802,1471.23241 9.36520344,1470.45395 9.66141439,1469.80457 L15.133912,1457.77165 C15.2869544,1457.43523 15.0549224,1457.04795 14.7031719,1457.04795 L9.28621384,1457.04795 C8.60492862,1457.04795 8.05200148,1456.46247 8.05200148,1455.74399 L8.05200148,1453.20258 C8.05200148,1452.4841 8.60492862,1451.89862 9.28621384,1451.89862 L20.3274777,1451.89862 L20.3287119,1451.89862 L20.3385856,1451.89862 L20.3385856,1451.90123 C21.5653926,1451.90905 22.4626651,1452.96135 22.4626651,1454.2627 C22.4626651,1454.62911 22.3762701,1454.96814 22.2454437,1455.27848 L22.2664252,1455.28891 Z M23.8289381,1440 L6.17106182,1440 C2.76340149,1440 0,1442.96173 0,1446.61396 L0,1476.38604 C0,1480.03959 2.76340149,1483 6.17106182,1483 L23.8289381,1483 C27.2378328,1483 30,1480.03959 30,1476.38604 L30,1446.61396 C30,1442.96173 27.2378328,1440 23.8289381,1440 Z" id="Shape"></path><path d="M22.2664252,1407.28891 L14.5377875,1424.28079 C14.2428107,1424.93016 13.5047517,1425.20269 12.890114,1424.89104 L10.2390258,1423.54536 C9.62438802,1423.23241 9.36520344,1422.45395 9.66141439,1421.80457 L15.133912,1409.77165 C15.2869544,1409.43523 15.0549224,1409.04795 14.7031719,1409.04795 L9.28621384,1409.04795 C8.60492862,1409.04795 8.05200148,1408.46247 8.05200148,1407.74399 L8.05200148,1405.20258 C8.05200148,1404.4841 8.60492862,1403.89862 9.28621384,1403.89862 L20.3274777,1403.89862 L20.3287119,1403.89862 L20.3385856,1403.89862 L20.3385856,1403.90123 C21.5653926,1403.90905 22.4626651,1404.96135 22.4626651,1406.2627 C22.4626651,1406.62911 22.3762701,1406.96814 22.2454437,1407.27848 L22.2664252,1407.28891 Z M23.8289381,1392 L6.17106182,1392 C2.76340149,1392 0,1394.96173 0,1398.61396 L0,1428.38604 C0,1432.03959 2.76340149,1435 6.17106182,1435 L23.8289381,1435 C27.2378328,1435 30,1432.03959 30,1428.38604 L30,1398.61396 C30,1394.96173 27.2378328,1392 23.8289381,1392 Z" id="Shape"></path><path d="M21.5280178,1371.35313 C21.177487,1374.87512 18.1732905,1377.45566 14.7975808,1377.08142 C11.4638361,1376.7111 9.0212293,1373.53857 9.37546283,1369.97094 C9.57171067,1367.36824 11.060232,1365.4462 13.3497901,1364.80074 C13.4497655,1364.77075 13.6188595,1364.74989 13.715132,1364.73424 C13.0153048,1363.04431 10.914589,1358.90946 8.72377189,1357.48162 C8.43742284,1357.29646 8.28067143,1356.95874 8.31523079,1356.60276 C8.34979015,1356.24808 8.569489,1355.95208 8.88916315,1355.83212 C8.98296716,1355.7943 9.08294246,1355.77735 9.18538632,1355.77735 C9.3260923,1355.77735 9.4667983,1355.81386 9.59022461,1355.88297 C10.6467539,1356.47627 11.6983461,1357.63419 12.6302147,1358.93163 C12.607998,1357.8024 12.7931375,1356.50757 13.5312268,1355.49178 C14.7025425,1353.884 16.7526536,1353.36242 17.9819797,1353.28549 C18.0029622,1353.28418 18.0227104,1353.28158 18.0436929,1353.27897 C18.4472969,1353.21899 18.82745,1353.49021 18.926191,1353.90748 L18.9385337,1353.96224 C19.1718094,1355.18666 19.4026166,1357.52596 18.3028881,1359.1546 C17.2944952,1360.64764 15.4085411,1361.19399 14.1545297,1361.33091 C14.9012589,1362.64791 15.4616144,1363.85537 15.7171069,1364.53343 C15.7825228,1364.53473 15.8528758,1364.51909 15.919526,1364.52561 C19.4248333,1364.8868 21.8143669,1367.55601 21.5551716,1370.99715 C21.5452974,1371.12885 21.5378918,1371.21883 21.5280178,1371.35313 M23.8286842,1344 L6.17131572,1344 C2.76228091,1344 0,1346.96173 0,1350.61396 L0,1380.38604 C0,1384.03959 2.76228091,1387 6.17131572,1387 L23.8286842,1387 C27.2377191,1387 30,1384.03959 30,1380.38604 L30,1350.61396 C30,1346.96173 27.2377191,1344 23.8286842,1344" id="Shape"></path><path d="M21.5280178,1323.35313 C21.177487,1326.87512 18.1732905,1329.45566 14.7975808,1329.08142 C11.4638361,1328.7111 9.0212293,1325.53857 9.37546283,1321.97094 C9.57171067,1319.36824 11.060232,1317.4462 13.3497901,1316.80074 C13.4497655,1316.77075 13.6188595,1316.74989 13.715132,1316.73424 C13.0153048,1315.04431 10.914589,1310.90946 8.72377189,1309.48162 C8.43742284,1309.29646 8.28067143,1308.95874 8.31523079,1308.60276 C8.34979015,1308.24808 8.569489,1307.95208 8.88916315,1307.83212 C8.98296716,1307.7943 9.08294246,1307.77735 9.18538632,1307.77735 C9.3260923,1307.77735 9.4667983,1307.81386 9.59022461,1307.88297 C10.6467539,1308.47627 11.6983461,1309.63419 12.6302147,1310.93163 C12.607998,1309.8024 12.7931375,1308.50757 13.5312268,1307.49178 C14.7025425,1305.884 16.7526536,1305.36242 17.9819797,1305.28549 C18.0029622,1305.28418 18.0227104,1305.28158 18.0436929,1305.27897 C18.4472969,1305.21899 18.82745,1305.49021 18.926191,1305.90748 L18.9385337,1305.96224 C19.1718094,1307.18666 19.4026166,1309.52596 18.3028881,1311.1546 C17.2944952,1312.64764 15.4085411,1313.19399 14.1545297,1313.33091 C14.9012589,1314.64791 15.4616144,1315.85537 15.7171069,1316.53343 C15.7825228,1316.53473 15.8528758,1316.51909 15.919526,1316.52561 C19.4248333,1316.8868 21.8143669,1319.55601 21.5551716,1322.99715 C21.5452974,1323.12885 21.5378918,1323.21883 21.5280178,1323.35313 M23.8286842,1296 L6.17131572,1296 C2.76228091,1296 0,1298.96173 0,1302.61396 L0,1332.38604 C0,1336.03959 2.76228091,1339 6.17131572,1339 L23.8286842,1339 C27.2377191,1339 30,1336.03959 30,1332.38604 L30,1302.61396 C30,1298.96173 27.2377191,1296 23.8286842,1296" id="Shape"></path><path d="M24.4334733,1272.15452 L16.0293754,1280.02522 C15.5702296,1280.45552 14.8815108,1280.46335 14.4137249,1280.04477 L5.58750912,1272.15192 C5.10614664,1271.72031 5.00987405,1270.97574 5.36410757,1270.42417 L8.19550723,1266.02853 C8.42508023,1265.66994 8.80646756,1265.45609 9.2150085,1265.45609 L20.7701802,1265.45609 C21.1787213,1265.45609 21.5601086,1265.66994 21.790916,1266.02853 L24.6358924,1270.44503 C24.9839547,1270.98748 24.8975561,1271.72031 24.4334733,1272.15452 Z M8.90644271,1259.35226 C9.41372489,1259.04192 10.0604789,1259.22578 10.3529993,1259.7604 L11.3564553,1261.59637 C11.6502097,1262.1323 11.4749443,1262.81688 10.9701308,1263.12461 C10.464083,1263.43495 9.81609481,1263.2511 9.52357449,1262.71647 L8.51888415,1260.8792 C8.22759817,1260.34327 8.40039487,1259.65999 8.90644271,1259.35226 Z M13.9348309,1259.46831 C13.9348309,1258.85154 14.4075537,1258.34952 14.9925943,1258.34952 C15.5776352,1258.34952 16.0515923,1258.85154 16.0515923,1259.46831 L16.0515923,1261.58855 C16.0515923,1262.20793 15.5776352,1262.70735 14.9925943,1262.70735 C14.4075537,1262.70735 13.9348309,1262.20793 13.9348309,1261.58855 L13.9348309,1259.46831 Z M18.6287336,1261.59637 L19.6321896,1259.7604 C19.9247099,1259.22578 20.5726981,1259.04192 21.0787459,1259.35226 C21.584794,1259.65999 21.758825,1260.34327 21.4663047,1260.8792 L20.4628487,1262.71647 C20.1690941,1263.2511 19.5223402,1263.43495 19.0162924,1263.12461 C18.5102443,1262.81688 18.3362133,1262.1323 18.6287336,1261.59637 Z M23.8286844,1248 L6.17131563,1248 C2.7622809,1248 0,1250.9605 0,1254.61416 L0,1284.38584 C0,1288.0395 2.7622809,1291 6.17131563,1291 L23.8286844,1291 C27.2377191,1291 30,1288.0395 30,1284.38584 L30,1254.61416 C30,1250.9605 27.2377191,1248 23.8286844,1248 Z" id="Shape"></path><path d="M24.4334733,1224.15452 L16.0293754,1232.02522 C15.5702296,1232.45552 14.8815108,1232.46335 14.4137249,1232.04477 L5.58750912,1224.15192 C5.10614664,1223.72031 5.00987405,1222.97574 5.36410757,1222.42417 L8.19550723,1218.02853 C8.42508023,1217.66994 8.80646756,1217.45609 9.2150085,1217.45609 L20.7701802,1217.45609 C21.1787213,1217.45609 21.5601086,1217.66994 21.790916,1218.02853 L24.6358924,1222.44503 C24.9839547,1222.98748 24.8975561,1223.72031 24.4334733,1224.15452 Z M8.90644271,1211.35226 C9.41372489,1211.04192 10.0604789,1211.22578 10.3529993,1211.7604 L11.3564553,1213.59637 C11.6502097,1214.1323 11.4749443,1214.81688 10.9701308,1215.12461 C10.464083,1215.43495 9.81609481,1215.2511 9.52357449,1214.71647 L8.51888415,1212.8792 C8.22759817,1212.34327 8.40039487,1211.65999 8.90644271,1211.35226 Z M13.9348309,1211.46831 C13.9348309,1210.85154 14.4075537,1210.34952 14.9925943,1210.34952 C15.5776352,1210.34952 16.0515923,1210.85154 16.0515923,1211.46831 L16.0515923,1213.58855 C16.0515923,1214.20793 15.5776352,1214.70735 14.9925943,1214.70735 C14.4075537,1214.70735 13.9348309,1214.20793 13.9348309,1213.58855 L13.9348309,1211.46831 Z M18.6287336,1213.59637 L19.6321896,1211.7604 C19.9247099,1211.22578 20.5726981,1211.04192 21.0787459,1211.35226 C21.584794,1211.65999 21.758825,1212.34327 21.4663047,1212.8792 L20.4628487,1214.71647 C20.1690941,1215.2511 19.5223402,1215.43495 19.0162924,1215.12461 C18.5102443,1214.81688 18.3362133,1214.1323 18.6287336,1213.59637 Z M23.8286844,1200 L6.17131563,1200 C2.7622809,1200 0,1202.9605 0,1206.61416 L0,1236.38584 C0,1240.0395 2.7622809,1243 6.17131563,1243 L23.8286844,1243 C27.2377191,1243 30,1240.0395 30,1236.38584 L30,1206.61416 C30,1202.9605 27.2377191,1200 23.8286844,1200 Z" id="Shape"></path><path d="M24.4334733,1176.15452 L16.0293754,1184.02522 C15.5702296,1184.45552 14.8815108,1184.46335 14.4137249,1184.04477 L5.58750912,1176.15192 C5.10614664,1175.72031 5.00987405,1174.97574 5.36410757,1174.42417 L8.19550723,1170.02853 C8.42508023,1169.66994 8.80646756,1169.45609 9.2150085,1169.45609 L20.7701802,1169.45609 C21.1787213,1169.45609 21.5601086,1169.66994 21.790916,1170.02853 L24.6358924,1174.44503 C24.9839547,1174.98748 24.8975561,1175.72031 24.4334733,1176.15452 Z M8.90644271,1163.35226 C9.41372489,1163.04192 10.0604789,1163.22578 10.3529993,1163.7604 L11.3564553,1165.59637 C11.6502097,1166.1323 11.4749443,1166.81688 10.9701308,1167.12461 C10.464083,1167.43495 9.81609481,1167.2511 9.52357449,1166.71647 L8.51888415,1164.8792 C8.22759817,1164.34327 8.40039487,1163.65999 8.90644271,1163.35226 Z M13.9348309,1163.46831 C13.9348309,1162.85154 14.4075537,1162.34952 14.9925943,1162.34952 C15.5776352,1162.34952 16.0515923,1162.85154 16.0515923,1163.46831 L16.0515923,1165.58855 C16.0515923,1166.20793 15.5776352,1166.70735 14.9925943,1166.70735 C14.4075537,1166.70735 13.9348309,1166.20793 13.9348309,1165.58855 L13.9348309,1163.46831 Z M18.6287336,1165.59637 L19.6321896,1163.7604 C19.9247099,1163.22578 20.5726981,1163.04192 21.0787459,1163.35226 C21.584794,1163.65999 21.758825,1164.34327 21.4663047,1164.8792 L20.4628487,1166.71647 C20.1690941,1167.2511 19.5223402,1167.43495 19.0162924,1167.12461 C18.5102443,1166.81688 18.3362133,1166.1323 18.6287336,1165.59637 Z M23.8286844,1152 L6.17131563,1152 C2.7622809,1152 0,1154.9605 0,1158.61416 L0,1188.38584 C0,1192.0395 2.7622809,1195 6.17131563,1195 L23.8286844,1195 C27.2377191,1195 30,1192.0395 30,1188.38584 L30,1158.61416 C30,1154.9605 27.2377191,1152 23.8286844,1152 Z" id="Shape"></path><path d="M22.2664252,1119.28891 L14.5377875,1136.28079 C14.2428107,1136.93016 13.5047517,1137.20269 12.890114,1136.89104 L10.2390258,1135.54536 C9.62438802,1135.23241 9.36520344,1134.45395 9.66141439,1133.80457 L15.133912,1121.77165 C15.2869544,1121.43523 15.0549224,1121.04795 14.7031719,1121.04795 L9.28621384,1121.04795 C8.60492862,1121.04795 8.05200148,1120.46247 8.05200148,1119.74399 L8.05200148,1117.20258 C8.05200148,1116.4841 8.60492862,1115.89862 9.28621384,1115.89862 L20.3274777,1115.89862 L20.3287119,1115.89862 L20.3385856,1115.89862 L20.3385856,1115.90123 C21.5653926,1115.90905 22.4626651,1116.96135 22.4626651,1118.2627 C22.4626651,1118.62911 22.3762701,1118.96814 22.2454437,1119.27848 L22.2664252,1119.28891 Z M23.8289381,1104 L6.17106182,1104 C2.76340149,1104 0,1106.96173 0,1110.61396 L0,1140.38604 C0,1144.03959 2.76340149,1147 6.17106182,1147 L23.8289381,1147 C27.2378328,1147 30,1144.03959 30,1140.38604 L30,1110.61396 C30,1106.96173 27.2378328,1104 23.8289381,1104 Z" id="Shape"></path><path d="M22.2664252,1071.28891 L14.5377875,1088.28079 C14.2428107,1088.93016 13.5047517,1089.20269 12.890114,1088.89104 L10.2390258,1087.54536 C9.62438802,1087.23241 9.36520344,1086.45395 9.66141439,1085.80457 L15.133912,1073.77165 C15.2869544,1073.43523 15.0549224,1073.04795 14.7031719,1073.04795 L9.28621384,1073.04795 C8.60492862,1073.04795 8.05200148,1072.46247 8.05200148,1071.74399 L8.05200148,1069.20258 C8.05200148,1068.4841 8.60492862,1067.89862 9.28621384,1067.89862 L20.3274777,1067.89862 L20.3287119,1067.89862 L20.3385856,1067.89862 L20.3385856,1067.90123 C21.5653926,1067.90905 22.4626651,1068.96135 22.4626651,1070.2627 C22.4626651,1070.62911 22.3762701,1070.96814 22.2454437,1071.27848 L22.2664252,1071.28891 Z M23.8289381,1056 L6.17106182,1056 C2.76340149,1056 0,1058.96173 0,1062.61396 L0,1092.38604 C0,1096.03959 2.76340149,1099 6.17106182,1099 L23.8289381,1099 C27.2378328,1099 30,1096.03959 30,1092.38604 L30,1062.61396 C30,1058.96173 27.2378328,1056 23.8289381,1056 Z" id="Shape"></path><path d="M22.2664252,831.288911 L14.5377875,848.280791 C14.2428107,848.930162 13.5047517,849.20269 12.890114,848.891044 L10.2390258,847.545359 C9.62438802,847.232409 9.36520344,846.453946 9.66141439,845.804574 L15.133912,833.771647 C15.2869544,833.435226 15.0549224,833.047951 14.7031719,833.047951 L9.28621384,833.047951 C8.60492862,833.047951 8.05200148,832.462473 8.05200148,831.743992 L8.05200148,829.202578 C8.05200148,828.484097 8.60492862,827.898619 9.28621384,827.898619 L20.3274777,827.898619 L20.3287119,827.898619 L20.3385856,827.898619 L20.3385856,827.901227 C21.5653926,827.909051 22.4626651,828.961345 22.4626651,830.262696 C22.4626651,830.629108 22.3762701,830.968137 22.2454437,831.278479 L22.2664252,831.288911 Z M23.8289381,816 L6.17106182,816 C2.76340149,816 0,818.961731 0,822.61396 L0,852.38604 C0,856.039592 2.76340149,859 6.17106182,859 L23.8289381,859 C27.2378328,859 30,856.039592 30,852.38604 L30,822.61396 C30,818.961731 27.2378328,816 23.8289381,816 Z" id="Shape"></path><path d="M21.5280178,1035.35313 C21.177487,1038.87512 18.1732905,1041.45566 14.7975808,1041.08142 C11.4638361,1040.7111 9.0212293,1037.53857 9.37546283,1033.97094 C9.57171067,1031.36824 11.060232,1029.4462 13.3497901,1028.80074 C13.4497655,1028.77075 13.6188595,1028.74989 13.715132,1028.73424 C13.0153048,1027.04431 10.914589,1022.90946 8.72377189,1021.48162 C8.43742284,1021.29646 8.28067143,1020.95874 8.31523079,1020.60276 C8.34979015,1020.24808 8.569489,1019.95208 8.88916315,1019.83212 C8.98296716,1019.7943 9.08294246,1019.77735 9.18538632,1019.77735 C9.3260923,1019.77735 9.4667983,1019.81386 9.59022461,1019.88297 C10.6467539,1020.47627 11.6983461,1021.63419 12.6302147,1022.93163 C12.607998,1021.8024 12.7931375,1020.50757 13.5312268,1019.49178 C14.7025425,1017.884 16.7526536,1017.36242 17.9819797,1017.28549 C18.0029622,1017.28418 18.0227104,1017.28158 18.0436929,1017.27897 C18.4472969,1017.21899 18.82745,1017.49021 18.926191,1017.90748 L18.9385337,1017.96224 C19.1718094,1019.18666 19.4026166,1021.52596 18.3028881,1023.1546 C17.2944952,1024.64764 15.4085411,1025.19399 14.1545297,1025.33091 C14.9012589,1026.64791 15.4616144,1027.85537 15.7171069,1028.53343 C15.7825228,1028.53473 15.8528758,1028.51909 15.919526,1028.52561 C19.4248333,1028.8868 21.8143669,1031.55601 21.5551716,1034.99715 C21.5452974,1035.12885 21.5378918,1035.21883 21.5280178,1035.35313 M23.8286842,1008 L6.17131572,1008 C2.76228091,1008 0,1010.96173 0,1014.61396 L0,1044.38604 C0,1048.03959 2.76228091,1051 6.17131572,1051 L23.8286842,1051 C27.2377191,1051 30,1048.03959 30,1044.38604 L30,1014.61396 C30,1010.96173 27.2377191,1008 23.8286842,1008" id="Shape"></path><path d="M21.5280178,891.353133 C21.177487,894.875124 18.1732905,897.455658 14.7975808,897.081422 C11.4638361,896.711097 9.0212293,893.538567 9.37546283,889.970937 C9.57171067,887.368236 11.060232,885.446202 13.3497901,884.800743 C13.4497655,884.770751 13.6188595,884.749888 13.715132,884.734241 C13.0153048,883.044311 10.914589,878.909459 8.72377189,877.481625 C8.43742284,877.296463 8.28067143,876.958737 8.31523079,876.602757 C8.34979015,876.24808 8.569489,875.952082 8.88916315,875.832117 C8.98296716,875.794303 9.08294246,875.777351 9.18538632,875.777351 C9.3260923,875.777351 9.4667983,875.813862 9.59022461,875.882972 C10.6467539,876.476273 11.6983461,877.634188 12.6302147,878.931626 C12.607998,877.802398 12.7931375,876.507568 13.5312268,875.491784 C14.7025425,873.884004 16.7526536,873.36242 17.9819797,873.285487 C18.0029622,873.284183 18.0227104,873.281575 18.0436929,873.278967 C18.4472969,873.218985 18.82745,873.490208 18.926191,873.907475 L18.9385337,873.962241 C19.1718094,875.186658 19.4026166,877.525959 18.3028881,879.154603 C17.2944952,880.647635 15.4085411,881.193994 14.1545297,881.33091 C14.9012589,882.647907 15.4616144,883.855373 15.7171069,884.533431 C15.7825228,884.534735 15.8528758,884.519088 15.919526,884.525607 C19.4248333,884.886804 21.8143669,887.556006 21.5551716,890.997152 C21.5452974,891.128852 21.5378918,891.218825 21.5280178,891.353133 M23.8286842,864 L6.17131572,864 C2.76228091,864 0,866.961731 0,870.61396 L0,900.38604 C0,904.039591 2.76228091,907 6.17131572,907 L23.8286842,907 C27.2377191,907 30,904.039591 30,900.38604 L30,870.61396 C30,866.961731 27.2377191,864 23.8286842,864" id="Shape"></path><path d="M21.5280178,987.353133 C21.177487,990.875124 18.1732905,993.455658 14.7975808,993.081422 C11.4638361,992.711097 9.0212293,989.538567 9.37546283,985.970937 C9.57171067,983.368236 11.060232,981.446202 13.3497901,980.800743 C13.4497655,980.770751 13.6188595,980.749888 13.715132,980.734241 C13.0153048,979.044311 10.914589,974.909459 8.72377189,973.481625 C8.43742284,973.296463 8.28067143,972.958737 8.31523079,972.602757 C8.34979015,972.24808 8.569489,971.952082 8.88916315,971.832117 C8.98296716,971.794303 9.08294246,971.777351 9.18538632,971.777351 C9.3260923,971.777351 9.4667983,971.813862 9.59022461,971.882972 C10.6467539,972.476273 11.6983461,973.634188 12.6302147,974.931626 C12.607998,973.802398 12.7931375,972.507568 13.5312268,971.491784 C14.7025425,969.884004 16.7526536,969.36242 17.9819797,969.285487 C18.0029622,969.284183 18.0227104,969.281575 18.0436929,969.278967 C18.4472969,969.218985 18.82745,969.490208 18.926191,969.907475 L18.9385337,969.962241 C19.1718094,971.186658 19.4026166,973.525959 18.3028881,975.154603 C17.2944952,976.647635 15.4085411,977.193994 14.1545297,977.33091 C14.9012589,978.647907 15.4616144,979.855373 15.7171069,980.533431 C15.7825228,980.534735 15.8528758,980.519088 15.919526,980.525607 C19.4248333,980.886804 21.8143669,983.556006 21.5551716,986.997152 C21.5452974,987.128852 21.5378918,987.218825 21.5280178,987.353133 M23.8286842,960 L6.17131572,960 C2.76228091,960 0,962.961731 0,966.61396 L0,996.38604 C0,1000.03959 2.76228091,1003 6.17131572,1003 L23.8286842,1003 C27.2377191,1003 30,1000.03959 30,996.38604 L30,966.61396 C30,962.961731 27.2377191,960 23.8286842,960" id="Shape"></path><path d="M24.4334733,936.154523 L16.0293754,944.025215 C15.5702296,944.455522 14.8815108,944.463345 14.4137249,944.044775 L5.58750912,936.151915 C5.10614664,935.720305 5.00987405,934.975745 5.36410757,934.424171 L8.19550723,930.028527 C8.42508023,929.669939 8.80646756,929.45609 9.2150085,929.45609 L20.7701802,929.45609 C21.1787213,929.45609 21.5601086,929.669939 21.790916,930.028527 L24.6358924,934.445034 C24.9839547,934.987481 24.8975561,935.720305 24.4334733,936.154523 Z M8.90644271,923.352261 C9.41372489,923.041919 10.0604789,923.225777 10.3529993,923.7604 L11.3564553,925.596373 C11.6502097,926.1323 11.4749443,926.816878 10.9701308,927.124612 C10.464083,927.434954 9.81609481,927.251096 9.52357449,926.716473 L8.51888415,924.879196 C8.22759817,924.343269 8.40039487,923.659995 8.90644271,923.352261 Z M13.9348309,923.468313 C13.9348309,922.851541 14.4075537,922.349517 14.9925943,922.349517 C15.5776352,922.349517 16.0515923,922.851541 16.0515923,923.468313 L16.0515923,925.588549 C16.0515923,926.207929 15.5776352,926.707345 14.9925943,926.707345 C14.4075537,926.707345 13.9348309,926.207929 13.9348309,925.588549 L13.9348309,923.468313 Z M18.6287336,925.596373 L19.6321896,923.7604 C19.9247099,923.225777 20.5726981,923.041919 21.0787459,923.352261 C21.584794,923.659995 21.758825,924.343269 21.4663047,924.879196 L20.4628487,926.716473 C20.1690941,927.251096 19.5223402,927.434954 19.0162924,927.124612 C18.5102443,926.816878 18.3362133,926.1323 18.6287336,925.596373 Z M23.8286844,912 L6.17131563,912 C2.7622809,912 0,914.9605 0,918.614164 L0,948.385836 C0,952.0395 2.7622809,955 6.17131563,955 L23.8286844,955 C27.2377191,955 30,952.0395 30,948.385836 L30,918.614164 C30,914.9605 27.2377191,912 23.8286844,912 Z" id="Shape"></path><path d="M24.4334733,1896.15452 L16.0293754,1904.02522 C15.5702296,1904.45552 14.8815108,1904.46335 14.4137249,1904.04477 L5.58750912,1896.15192 C5.10614664,1895.72031 5.00987405,1894.97574 5.36410757,1894.42417 L8.19550723,1890.02853 C8.42508023,1889.66994 8.80646756,1889.45609 9.2150085,1889.45609 L20.7701802,1889.45609 C21.1787213,1889.45609 21.5601086,1889.66994 21.790916,1890.02853 L24.6358924,1894.44503 C24.9839547,1894.98748 24.8975561,1895.72031 24.4334733,1896.15452 Z M8.90644271,1883.35226 C9.41372489,1883.04192 10.0604789,1883.22578 10.3529993,1883.7604 L11.3564553,1885.59637 C11.6502097,1886.1323 11.4749443,1886.81688 10.9701308,1887.12461 C10.464083,1887.43495 9.81609481,1887.2511 9.52357449,1886.71647 L8.51888415,1884.8792 C8.22759817,1884.34327 8.40039487,1883.65999 8.90644271,1883.35226 Z M13.9348309,1883.46831 C13.9348309,1882.85154 14.4075537,1882.34952 14.9925943,1882.34952 C15.5776352,1882.34952 16.0515923,1882.85154 16.0515923,1883.46831 L16.0515923,1885.58855 C16.0515923,1886.20793 15.5776352,1886.70735 14.9925943,1886.70735 C14.4075537,1886.70735 13.9348309,1886.20793 13.9348309,1885.58855 L13.9348309,1883.46831 Z M18.6287336,1885.59637 L19.6321896,1883.7604 C19.9247099,1883.22578 20.5726981,1883.04192 21.0787459,1883.35226 C21.584794,1883.65999 21.758825,1884.34327 21.4663047,1884.8792 L20.4628487,1886.71647 C20.1690941,1887.2511 19.5223402,1887.43495 19.0162924,1887.12461 C18.5102443,1886.81688 18.3362133,1886.1323 18.6287336,1885.59637 Z M23.8286844,1872 L6.17131563,1872 C2.7622809,1872 0,1874.9605 0,1878.61416 L0,1908.38584 C0,1912.0395 2.7622809,1915 6.17131563,1915 L23.8286844,1915 C27.2377191,1915 30,1912.0395 30,1908.38584 L30,1878.61416 C30,1874.9605 27.2377191,1872 23.8286844,1872 Z" id="Shape"></path><path d="M24.4334733,1848.15452 L16.0293754,1856.02522 C15.5702296,1856.45552 14.8815108,1856.46335 14.4137249,1856.04477 L5.58750912,1848.15192 C5.10614664,1847.72031 5.00987405,1846.97574 5.36410757,1846.42417 L8.19550723,1842.02853 C8.42508023,1841.66994 8.80646756,1841.45609 9.2150085,1841.45609 L20.7701802,1841.45609 C21.1787213,1841.45609 21.5601086,1841.66994 21.790916,1842.02853 L24.6358924,1846.44503 C24.9839547,1846.98748 24.8975561,1847.72031 24.4334733,1848.15452 Z M8.90644271,1835.35226 C9.41372489,1835.04192 10.0604789,1835.22578 10.3529993,1835.7604 L11.3564553,1837.59637 C11.6502097,1838.1323 11.4749443,1838.81688 10.9701308,1839.12461 C10.464083,1839.43495 9.81609481,1839.2511 9.52357449,1838.71647 L8.51888415,1836.8792 C8.22759817,1836.34327 8.40039487,1835.65999 8.90644271,1835.35226 Z M13.9348309,1835.46831 C13.9348309,1834.85154 14.4075537,1834.34952 14.9925943,1834.34952 C15.5776352,1834.34952 16.0515923,1834.85154 16.0515923,1835.46831 L16.0515923,1837.58855 C16.0515923,1838.20793 15.5776352,1838.70735 14.9925943,1838.70735 C14.4075537,1838.70735 13.9348309,1838.20793 13.9348309,1837.58855 L13.9348309,1835.46831 Z M18.6287336,1837.59637 L19.6321896,1835.7604 C19.9247099,1835.22578 20.5726981,1835.04192 21.0787459,1835.35226 C21.584794,1835.65999 21.758825,1836.34327 21.4663047,1836.8792 L20.4628487,1838.71647 C20.1690941,1839.2511 19.5223402,1839.43495 19.0162924,1839.12461 C18.5102443,1838.81688 18.3362133,1838.1323 18.6287336,1837.59637 Z M23.8286844,1824 L6.17131563,1824 C2.7622809,1824 0,1826.9605 0,1830.61416 L0,1860.38584 C0,1864.0395 2.7622809,1867 6.17131563,1867 L23.8286844,1867 C27.2377191,1867 30,1864.0395 30,1860.38584 L30,1830.61416 C30,1826.9605 27.2377191,1824 23.8286844,1824 Z" id="Shape"></path><path d="M22.2664252,1791.28891 L14.5377875,1808.28079 C14.2428107,1808.93016 13.5047517,1809.20269 12.890114,1808.89104 L10.2390258,1807.54536 C9.62438802,1807.23241 9.36520344,1806.45395 9.66141439,1805.80457 L15.133912,1793.77165 C15.2869544,1793.43523 15.0549224,1793.04795 14.7031719,1793.04795 L9.28621384,1793.04795 C8.60492862,1793.04795 8.05200148,1792.46247 8.05200148,1791.74399 L8.05200148,1789.20258 C8.05200148,1788.4841 8.60492862,1787.89862 9.28621384,1787.89862 L20.3274777,1787.89862 L20.3287119,1787.89862 L20.3385856,1787.89862 L20.3385856,1787.90123 C21.5653926,1787.90905 22.4626651,1788.96135 22.4626651,1790.2627 C22.4626651,1790.62911 22.3762701,1790.96814 22.2454437,1791.27848 L22.2664252,1791.28891 Z M23.8289381,1776 L6.17106182,1776 C2.76340149,1776 0,1778.96173 0,1782.61396 L0,1812.38604 C0,1816.03959 2.76340149,1819 6.17106182,1819 L23.8289381,1819 C27.2378328,1819 30,1816.03959 30,1812.38604 L30,1782.61396 C30,1778.96173 27.2378328,1776 23.8289381,1776 Z" id="Shape"></path><path d="M22.2664252,1935.28891 L14.5377875,1952.28079 C14.2428107,1952.93016 13.5047517,1953.20269 12.890114,1952.89104 L10.2390258,1951.54536 C9.62438802,1951.23241 9.36520344,1950.45395 9.66141439,1949.80457 L15.133912,1937.77165 C15.2869544,1937.43523 15.0549224,1937.04795 14.7031719,1937.04795 L9.28621384,1937.04795 C8.60492862,1937.04795 8.05200148,1936.46247 8.05200148,1935.74399 L8.05200148,1933.20258 C8.05200148,1932.4841 8.60492862,1931.89862 9.28621384,1931.89862 L20.3274777,1931.89862 L20.3287119,1931.89862 L20.3385856,1931.89862 L20.3385856,1931.90123 C21.5653926,1931.90905 22.4626651,1932.96135 22.4626651,1934.2627 C22.4626651,1934.62911 22.3762701,1934.96814 22.2454437,1935.27848 L22.2664252,1935.28891 Z M23.8289381,1920 L6.17106182,1920 C2.76340149,1920 0,1922.96173 0,1926.61396 L0,1956.38604 C0,1960.03959 2.76340149,1963 6.17106182,1963 L23.8289381,1963 C27.2378328,1963 30,1960.03959 30,1956.38604 L30,1926.61396 C30,1922.96173 27.2378328,1920 23.8289381,1920 Z" id="Shape"></path><path d="M22.2664252,1743.28891 L14.5377875,1760.28079 C14.2428107,1760.93016 13.5047517,1761.20269 12.890114,1760.89104 L10.2390258,1759.54536 C9.62438802,1759.23241 9.36520344,1758.45395 9.66141439,1757.80457 L15.133912,1745.77165 C15.2869544,1745.43523 15.0549224,1745.04795 14.7031719,1745.04795 L9.28621384,1745.04795 C8.60492862,1745.04795 8.05200148,1744.46247 8.05200148,1743.74399 L8.05200148,1741.20258 C8.05200148,1740.4841 8.60492862,1739.89862 9.28621384,1739.89862 L20.3274777,1739.89862 L20.3287119,1739.89862 L20.3385856,1739.89862 L20.3385856,1739.90123 C21.5653926,1739.90905 22.4626651,1740.96135 22.4626651,1742.2627 C22.4626651,1742.62911 22.3762701,1742.96814 22.2454437,1743.27848 L22.2664252,1743.28891 Z M23.8289381,1728 L6.17106182,1728 C2.76340149,1728 0,1730.96173 0,1734.61396 L0,1764.38604 C0,1768.03959 2.76340149,1771 6.17106182,1771 L23.8289381,1771 C27.2378328,1771 30,1768.03959 30,1764.38604 L30,1734.61396 C30,1730.96173 27.2378328,1728 23.8289381,1728 Z" id="Shape"></path><path d="M21.5280178,1707.35313 C21.177487,1710.87512 18.1732905,1713.45566 14.7975808,1713.08142 C11.4638361,1712.7111 9.0212293,1709.53857 9.37546283,1705.97094 C9.57171067,1703.36824 11.060232,1701.4462 13.3497901,1700.80074 C13.4497655,1700.77075 13.6188595,1700.74989 13.715132,1700.73424 C13.0153048,1699.04431 10.914589,1694.90946 8.72377189,1693.48162 C8.43742284,1693.29646 8.28067143,1692.95874 8.31523079,1692.60276 C8.34979015,1692.24808 8.569489,1691.95208 8.88916315,1691.83212 C8.98296716,1691.7943 9.08294246,1691.77735 9.18538632,1691.77735 C9.3260923,1691.77735 9.4667983,1691.81386 9.59022461,1691.88297 C10.6467539,1692.47627 11.6983461,1693.63419 12.6302147,1694.93163 C12.607998,1693.8024 12.7931375,1692.50757 13.5312268,1691.49178 C14.7025425,1689.884 16.7526536,1689.36242 17.9819797,1689.28549 C18.0029622,1689.28418 18.0227104,1689.28158 18.0436929,1689.27897 C18.4472969,1689.21899 18.82745,1689.49021 18.926191,1689.90748 L18.9385337,1689.96224 C19.1718094,1691.18666 19.4026166,1693.52596 18.3028881,1695.1546 C17.2944952,1696.64764 15.4085411,1697.19399 14.1545297,1697.33091 C14.9012589,1698.64791 15.4616144,1699.85537 15.7171069,1700.53343 C15.7825228,1700.53473 15.8528758,1700.51909 15.919526,1700.52561 C19.4248333,1700.8868 21.8143669,1703.55601 21.5551716,1706.99715 C21.5452974,1707.12885 21.5378918,1707.21883 21.5280178,1707.35313 M23.8286842,1680 L6.17131572,1680 C2.76228091,1680 0,1682.96173 0,1686.61396 L0,1716.38604 C0,1720.03959 2.76228091,1723 6.17131572,1723 L23.8286842,1723 C27.2377191,1723 30,1720.03959 30,1716.38604 L30,1686.61396 C30,1682.96173 27.2377191,1680 23.8286842,1680" id="Shape"></path><path d="M21.5280178,1659.35313 C21.177487,1662.87512 18.1732905,1665.45566 14.7975808,1665.08142 C11.4638361,1664.7111 9.0212293,1661.53857 9.37546283,1657.97094 C9.57171067,1655.36824 11.060232,1653.4462 13.3497901,1652.80074 C13.4497655,1652.77075 13.6188595,1652.74989 13.715132,1652.73424 C13.0153048,1651.04431 10.914589,1646.90946 8.72377189,1645.48162 C8.43742284,1645.29646 8.28067143,1644.95874 8.31523079,1644.60276 C8.34979015,1644.24808 8.569489,1643.95208 8.88916315,1643.83212 C8.98296716,1643.7943 9.08294246,1643.77735 9.18538632,1643.77735 C9.3260923,1643.77735 9.4667983,1643.81386 9.59022461,1643.88297 C10.6467539,1644.47627 11.6983461,1645.63419 12.6302147,1646.93163 C12.607998,1645.8024 12.7931375,1644.50757 13.5312268,1643.49178 C14.7025425,1641.884 16.7526536,1641.36242 17.9819797,1641.28549 C18.0029622,1641.28418 18.0227104,1641.28158 18.0436929,1641.27897 C18.4472969,1641.21899 18.82745,1641.49021 18.926191,1641.90748 L18.9385337,1641.96224 C19.1718094,1643.18666 19.4026166,1645.52596 18.3028881,1647.1546 C17.2944952,1648.64764 15.4085411,1649.19399 14.1545297,1649.33091 C14.9012589,1650.64791 15.4616144,1651.85537 15.7171069,1652.53343 C15.7825228,1652.53473 15.8528758,1652.51909 15.919526,1652.52561 C19.4248333,1652.8868 21.8143669,1655.55601 21.5551716,1658.99715 C21.5452974,1659.12885 21.5378918,1659.21883 21.5280178,1659.35313 M23.8286842,1632 L6.17131572,1632 C2.76228091,1632 0,1634.96173 0,1638.61396 L0,1668.38604 C0,1672.03959 2.76228091,1675 6.17131572,1675 L23.8286842,1675 C27.2377191,1675 30,1672.03959 30,1668.38604 L30,1638.61396 C30,1634.96173 27.2377191,1632 23.8286842,1632" id="Shape"></path><path d="M24.4334733,1608.15452 L16.0293754,1616.02522 C15.5702296,1616.45552 14.8815108,1616.46335 14.4137249,1616.04477 L5.58750912,1608.15192 C5.10614664,1607.72031 5.00987405,1606.97574 5.36410757,1606.42417 L8.19550723,1602.02853 C8.42508023,1601.66994 8.80646756,1601.45609 9.2150085,1601.45609 L20.7701802,1601.45609 C21.1787213,1601.45609 21.5601086,1601.66994 21.790916,1602.02853 L24.6358924,1606.44503 C24.9839547,1606.98748 24.8975561,1607.72031 24.4334733,1608.15452 Z M8.90644271,1595.35226 C9.41372489,1595.04192 10.0604789,1595.22578 10.3529993,1595.7604 L11.3564553,1597.59637 C11.6502097,1598.1323 11.4749443,1598.81688 10.9701308,1599.12461 C10.464083,1599.43495 9.81609481,1599.2511 9.52357449,1598.71647 L8.51888415,1596.8792 C8.22759817,1596.34327 8.40039487,1595.65999 8.90644271,1595.35226 Z M13.9348309,1595.46831 C13.9348309,1594.85154 14.4075537,1594.34952 14.9925943,1594.34952 C15.5776352,1594.34952 16.0515923,1594.85154 16.0515923,1595.46831 L16.0515923,1597.58855 C16.0515923,1598.20793 15.5776352,1598.70735 14.9925943,1598.70735 C14.4075537,1598.70735 13.9348309,1598.20793 13.9348309,1597.58855 L13.9348309,1595.46831 Z M18.6287336,1597.59637 L19.6321896,1595.7604 C19.9247099,1595.22578 20.5726981,1595.04192 21.0787459,1595.35226 C21.584794,1595.65999 21.758825,1596.34327 21.4663047,1596.8792 L20.4628487,1598.71647 C20.1690941,1599.2511 19.5223402,1599.43495 19.0162924,1599.12461 C18.5102443,1598.81688 18.3362133,1598.1323 18.6287336,1597.59637 Z M23.8286844,1584 L6.17131563,1584 C2.7622809,1584 0,1586.9605 0,1590.61416 L0,1620.38584 C0,1624.0395 2.7622809,1627 6.17131563,1627 L23.8286844,1627 C27.2377191,1627 30,1624.0395 30,1620.38584 L30,1590.61416 C30,1586.9605 27.2377191,1584 23.8286844,1584 Z" id="Shape"></path><path d="M24.4334733,456.154523 L16.0293754,464.025215 C15.5702296,464.455522 14.8815108,464.463345 14.4137249,464.044775 L5.58750912,456.151915 C5.10614664,455.720305 5.00987405,454.975745 5.36410757,454.424171 L8.19550723,450.028527 C8.42508023,449.669939 8.80646756,449.45609 9.2150085,449.45609 L20.7701802,449.45609 C21.1787213,449.45609 21.5601086,449.669939 21.790916,450.028527 L24.6358924,454.445034 C24.9839547,454.987481 24.8975561,455.720305 24.4334733,456.154523 Z M8.90644271,443.352261 C9.41372489,443.041919 10.0604789,443.225777 10.3529993,443.7604 L11.3564553,445.596373 C11.6502097,446.1323 11.4749443,446.816878 10.9701308,447.124612 C10.464083,447.434954 9.81609481,447.251096 9.52357449,446.716473 L8.51888415,444.879196 C8.22759817,444.343269 8.40039487,443.659995 8.90644271,443.352261 Z M13.9348309,443.468313 C13.9348309,442.851541 14.4075537,442.349517 14.9925943,442.349517 C15.5776352,442.349517 16.0515923,442.851541 16.0515923,443.468313 L16.0515923,445.588549 C16.0515923,446.207929 15.5776352,446.707345 14.9925943,446.707345 C14.4075537,446.707345 13.9348309,446.207929 13.9348309,445.588549 L13.9348309,443.468313 Z M18.6287336,445.596373 L19.6321896,443.7604 C19.9247099,443.225777 20.5726981,443.041919 21.0787459,443.352261 C21.584794,443.659995 21.758825,444.343269 21.4663047,444.879196 L20.4628487,446.716473 C20.1690941,447.251096 19.5223402,447.434954 19.0162924,447.124612 C18.5102443,446.816878 18.3362133,446.1323 18.6287336,445.596373 Z M23.8286844,432 L6.17131563,432 C2.7622809,432 0,434.9605 0,438.614164 L0,468.385836 C0,472.0395 2.7622809,475 6.17131563,475 L23.8286844,475 C27.2377191,475 30,472.0395 30,468.385836 L30,438.614164 C30,434.9605 27.2377191,432 23.8286844,432 Z" id="Shape"></path><path d="M24.4334733,408.154523 L16.0293754,416.025215 C15.5702296,416.455522 14.8815108,416.463345 14.4137249,416.044775 L5.58750912,408.151915 C5.10614664,407.720305 5.00987405,406.975745 5.36410757,406.424171 L8.19550723,402.028527 C8.42508023,401.669939 8.80646756,401.45609 9.2150085,401.45609 L20.7701802,401.45609 C21.1787213,401.45609 21.5601086,401.669939 21.790916,402.028527 L24.6358924,406.445034 C24.9839547,406.987481 24.8975561,407.720305 24.4334733,408.154523 Z M8.90644271,395.352261 C9.41372489,395.041919 10.0604789,395.225777 10.3529993,395.7604 L11.3564553,397.596373 C11.6502097,398.1323 11.4749443,398.816878 10.9701308,399.124612 C10.464083,399.434954 9.81609481,399.251096 9.52357449,398.716473 L8.51888415,396.879196 C8.22759817,396.343269 8.40039487,395.659995 8.90644271,395.352261 Z M13.9348309,395.468313 C13.9348309,394.851541 14.4075537,394.349517 14.9925943,394.349517 C15.5776352,394.349517 16.0515923,394.851541 16.0515923,395.468313 L16.0515923,397.588549 C16.0515923,398.207929 15.5776352,398.707345 14.9925943,398.707345 C14.4075537,398.707345 13.9348309,398.207929 13.9348309,397.588549 L13.9348309,395.468313 Z M18.6287336,397.596373 L19.6321896,395.7604 C19.9247099,395.225777 20.5726981,395.041919 21.0787459,395.352261 C21.584794,395.659995 21.758825,396.343269 21.4663047,396.879196 L20.4628487,398.716473 C20.1690941,399.251096 19.5223402,399.434954 19.0162924,399.124612 C18.5102443,398.816878 18.3362133,398.1323 18.6287336,397.596373 Z M23.8286844,384 L6.17131563,384 C2.7622809,384 0,386.9605 0,390.614164 L0,420.385836 C0,424.0395 2.7622809,427 6.17131563,427 L23.8286844,427 C27.2377191,427 30,424.0395 30,420.385836 L30,390.614164 C30,386.9605 27.2377191,384 23.8286844,384 Z" id="Shape"></path><path d="M22.2664252,351.288911 L14.5377875,368.280791 C14.2428107,368.930162 13.5047517,369.20269 12.890114,368.891044 L10.2390258,367.545359 C9.62438802,367.232409 9.36520344,366.453946 9.66141439,365.804574 L15.133912,353.771647 C15.2869544,353.435226 15.0549224,353.047951 14.7031719,353.047951 L9.28621384,353.047951 C8.60492862,353.047951 8.05200148,352.462473 8.05200148,351.743992 L8.05200148,349.202578 C8.05200148,348.484097 8.60492862,347.898619 9.28621384,347.898619 L20.3274777,347.898619 L20.3287119,347.898619 L20.3385856,347.898619 L20.3385856,347.901227 C21.5653926,347.909051 22.4626651,348.961345 22.4626651,350.262696 C22.4626651,350.629108 22.3762701,350.968137 22.2454437,351.278479 L22.2664252,351.288911 Z M23.8289381,336 L6.17106182,336 C2.76340149,336 0,338.961731 0,342.61396 L0,372.38604 C0,376.039592 2.76340149,379 6.17106182,379 L23.8289381,379 C27.2378328,379 30,376.039592 30,372.38604 L30,342.61396 C30,338.961731 27.2378328,336 23.8289381,336 Z" id="Shape"></path><path d="M22.2664252,303.288911 L14.5377875,320.280791 C14.2428107,320.930162 13.5047517,321.20269 12.890114,320.891044 L10.2390258,319.545359 C9.62438802,319.232409 9.36520344,318.453946 9.66141439,317.804574 L15.133912,305.771647 C15.2869544,305.435226 15.0549224,305.047951 14.7031719,305.047951 L9.28621384,305.047951 C8.60492862,305.047951 8.05200148,304.462473 8.05200148,303.743992 L8.05200148,301.202578 C8.05200148,300.484097 8.60492862,299.898619 9.28621384,299.898619 L20.3274777,299.898619 L20.3287119,299.898619 L20.3385856,299.898619 L20.3385856,299.901227 C21.5653926,299.909051 22.4626651,300.961345 22.4626651,302.262696 C22.4626651,302.629108 22.3762701,302.968137 22.2454437,303.278479 L22.2664252,303.288911 Z M23.8289381,288 L6.17106182,288 C2.76340149,288 0,290.961731 0,294.61396 L0,324.38604 C0,328.039592 2.76340149,331 6.17106182,331 L23.8289381,331 C27.2378328,331 30,328.039592 30,324.38604 L30,294.61396 C30,290.961731 27.2378328,288 23.8289381,288 Z" id="Shape"></path><path d="M21.5280178,267.353133 C21.177487,270.875124 18.1732905,273.455658 14.7975808,273.081422 C11.4638361,272.711097 9.0212293,269.538567 9.37546283,265.970937 C9.57171067,263.368236 11.060232,261.446202 13.3497901,260.800743 C13.4497655,260.770751 13.6188595,260.749888 13.715132,260.734241 C13.0153048,259.044311 10.914589,254.909459 8.72377189,253.481625 C8.43742284,253.296463 8.28067143,252.958737 8.31523079,252.602757 C8.34979015,252.24808 8.569489,251.952082 8.88916315,251.832117 C8.98296716,251.794303 9.08294246,251.777351 9.18538632,251.777351 C9.3260923,251.777351 9.4667983,251.813862 9.59022461,251.882972 C10.6467539,252.476273 11.6983461,253.634188 12.6302147,254.931626 C12.607998,253.802398 12.7931375,252.507568 13.5312268,251.491784 C14.7025425,249.884004 16.7526536,249.36242 17.9819797,249.285487 C18.0029622,249.284183 18.0227104,249.281575 18.0436929,249.278967 C18.4472969,249.218985 18.82745,249.490208 18.926191,249.907475 L18.9385337,249.962241 C19.1718094,251.186658 19.4026166,253.525959 18.3028881,255.154603 C17.2944952,256.647635 15.4085411,257.193994 14.1545297,257.33091 C14.9012589,258.647907 15.4616144,259.855373 15.7171069,260.533431 C15.7825228,260.534735 15.8528758,260.519088 15.919526,260.525607 C19.4248333,260.886804 21.8143669,263.556006 21.5551716,266.997152 C21.5452974,267.128852 21.5378918,267.218825 21.5280178,267.353133 M23.8286842,240 L6.17131572,240 C2.76228091,240 0,242.961731 0,246.61396 L0,276.38604 C0,280.039591 2.76228091,283 6.17131572,283 L23.8286842,283 C27.2377191,283 30,280.039591 30,276.38604 L30,246.61396 C30,242.961731 27.2377191,240 23.8286842,240" id="Shape"></path><path d="M21.5280178,219.353133 C21.177487,222.875124 18.1732905,225.455658 14.7975808,225.081422 C11.4638361,224.711097 9.0212293,221.538567 9.37546283,217.970937 C9.57171067,215.368236 11.060232,213.446202 13.3497901,212.800743 C13.4497655,212.770751 13.6188595,212.749888 13.715132,212.734241 C13.0153048,211.044311 10.914589,206.909459 8.72377189,205.481625 C8.43742284,205.296463 8.28067143,204.958737 8.31523079,204.602757 C8.34979015,204.24808 8.569489,203.952082 8.88916315,203.832117 C8.98296716,203.794303 9.08294246,203.777351 9.18538632,203.777351 C9.3260923,203.777351 9.4667983,203.813862 9.59022461,203.882972 C10.6467539,204.476273 11.6983461,205.634188 12.6302147,206.931626 C12.607998,205.802398 12.7931375,204.507568 13.5312268,203.491784 C14.7025425,201.884004 16.7526536,201.36242 17.9819797,201.285487 C18.0029622,201.284183 18.0227104,201.281575 18.0436929,201.278967 C18.4472969,201.218985 18.82745,201.490208 18.926191,201.907475 L18.9385337,201.962241 C19.1718094,203.186658 19.4026166,205.525959 18.3028881,207.154603 C17.2944952,208.647635 15.4085411,209.193994 14.1545297,209.33091 C14.9012589,210.647907 15.4616144,211.855373 15.7171069,212.533431 C15.7825228,212.534735 15.8528758,212.519088 15.919526,212.525607 C19.4248333,212.886804 21.8143669,215.556006 21.5551716,218.997152 C21.5452974,219.128852 21.5378918,219.218825 21.5280178,219.353133 M23.8286842,192 L6.17131572,192 C2.76228091,192 0,194.961731 0,198.61396 L0,228.38604 C0,232.039591 2.76228091,235 6.17131572,235 L23.8286842,235 C27.2377191,235 30,232.039591 30,228.38604 L30,198.61396 C30,194.961731 27.2377191,192 23.8286842,192" id="Shape"></path><path d="M24.4334733,168.154523 L16.0293754,176.025215 C15.5702296,176.455522 14.8815108,176.463345 14.4137249,176.044775 L5.58750912,168.151915 C5.10614664,167.720305 5.00987405,166.975745 5.36410757,166.424171 L8.19550723,162.028527 C8.42508023,161.669939 8.80646756,161.45609 9.2150085,161.45609 L20.7701802,161.45609 C21.1787213,161.45609 21.5601086,161.669939 21.790916,162.028527 L24.6358924,166.445034 C24.9839547,166.987481 24.8975561,167.720305 24.4334733,168.154523 Z M8.90644271,155.352261 C9.41372489,155.041919 10.0604789,155.225777 10.3529993,155.7604 L11.3564553,157.596373 C11.6502097,158.1323 11.4749443,158.816878 10.9701308,159.124612 C10.464083,159.434954 9.81609481,159.251096 9.52357449,158.716473 L8.51888415,156.879196 C8.22759817,156.343269 8.40039487,155.659995 8.90644271,155.352261 Z M13.9348309,155.468313 C13.9348309,154.851541 14.4075537,154.349517 14.9925943,154.349517 C15.5776352,154.349517 16.0515923,154.851541 16.0515923,155.468313 L16.0515923,157.588549 C16.0515923,158.207929 15.5776352,158.707345 14.9925943,158.707345 C14.4075537,158.707345 13.9348309,158.207929 13.9348309,157.588549 L13.9348309,155.468313 Z M18.6287336,157.596373 L19.6321896,155.7604 C19.9247099,155.225777 20.5726981,155.041919 21.0787459,155.352261 C21.584794,155.659995 21.758825,156.343269 21.4663047,156.879196 L20.4628487,158.716473 C20.1690941,159.251096 19.5223402,159.434954 19.0162924,159.124612 C18.5102443,158.816878 18.3362133,158.1323 18.6287336,157.596373 Z M23.8286844,144 L6.17131563,144 C2.7622809,144 0,146.9605 0,150.614164 L0,180.385836 C0,184.0395 2.7622809,187 6.17131563,187 L23.8286844,187 C27.2377191,187 30,184.0395 30,180.385836 L30,150.614164 C30,146.9605 27.2377191,144 23.8286844,144 Z" id="Shape"></path><path d="M24.4334733,120.154523 L16.0293754,128.025215 C15.5702296,128.455522 14.8815108,128.463345 14.4137249,128.044775 L5.58750912,120.151915 C5.10614664,119.720305 5.00987405,118.975745 5.36410757,118.424171 L8.19550723,114.028527 C8.42508023,113.669939 8.80646756,113.45609 9.2150085,113.45609 L20.7701802,113.45609 C21.1787213,113.45609 21.5601086,113.669939 21.790916,114.028527 L24.6358924,118.445034 C24.9839547,118.987481 24.8975561,119.720305 24.4334733,120.154523 Z M8.90644271,107.352261 C9.41372489,107.041919 10.0604789,107.225777 10.3529993,107.7604 L11.3564553,109.596373 C11.6502097,110.1323 11.4749443,110.816878 10.9701308,111.124612 C10.464083,111.434954 9.81609481,111.251096 9.52357449,110.716473 L8.51888415,108.879196 C8.22759817,108.343269 8.40039487,107.659995 8.90644271,107.352261 Z M13.9348309,107.468313 C13.9348309,106.851541 14.4075537,106.349517 14.9925943,106.349517 C15.5776352,106.349517 16.0515923,106.851541 16.0515923,107.468313 L16.0515923,109.588549 C16.0515923,110.207929 15.5776352,110.707345 14.9925943,110.707345 C14.4075537,110.707345 13.9348309,110.207929 13.9348309,109.588549 L13.9348309,107.468313 Z M18.6287336,109.596373 L19.6321896,107.7604 C19.9247099,107.225777 20.5726981,107.041919 21.0787459,107.352261 C21.584794,107.659995 21.758825,108.343269 21.4663047,108.879196 L20.4628487,110.716473 C20.1690941,111.251096 19.5223402,111.434954 19.0162924,111.124612 C18.5102443,110.816878 18.3362133,110.1323 18.6287336,109.596373 Z M23.8286844,96 L6.17131563,96 C2.7622809,96 0,98.9604996 0,102.614164 L0,132.385836 C0,136.0395 2.7622809,139 6.17131563,139 L23.8286844,139 C27.2377191,139 30,136.0395 30,132.385836 L30,102.614164 C30,98.9604996 27.2377191,96 23.8286844,96 Z" id="Shape"></path><path d="M24.4334733,72.1545232 L16.0293754,80.0252153 C15.5702296,80.4555215 14.8815108,80.4633453 14.4137249,80.0447747 L5.58750912,72.1519153 C5.10614664,71.7203051 5.00987405,70.9757449 5.36410757,70.4241706 L8.19550723,66.0285272 C8.42508023,65.6699387 8.80646756,65.4560895 9.2150085,65.4560895 L20.7701802,65.4560895 C21.1787213,65.4560895 21.5601086,65.6699387 21.790916,66.0285272 L24.6358924,70.4450339 C24.9839547,70.9874805 24.8975561,71.7203051 24.4334733,72.1545232 Z M8.90644271,59.3522608 C9.41372489,59.0419187 10.0604789,59.2257768 10.3529993,59.7603997 L11.3564553,61.596373 C11.6502097,62.1322999 11.4749443,62.8168779 10.9701308,63.1246121 C10.464083,63.4349542 9.81609481,63.2510961 9.52357449,62.7164732 L8.51888415,60.8791959 C8.22759817,60.3432691 8.40039487,59.6599949 8.90644271,59.3522608 Z M13.9348309,59.4683131 C13.9348309,58.8515408 14.4075537,58.3495169 14.9925943,58.3495169 C15.5776352,58.3495169 16.0515923,58.8515408 16.0515923,59.4683131 L16.0515923,61.5885492 C16.0515923,62.2079294 15.5776352,62.7073454 14.9925943,62.7073454 C14.4075537,62.7073454 13.9348309,62.2079294 13.9348309,61.5885492 L13.9348309,59.4683131 Z M18.6287336,61.596373 L19.6321896,59.7603997 C19.9247099,59.2257768 20.5726981,59.0419187 21.0787459,59.3522608 C21.584794,59.6599949 21.758825,60.3432691 21.4663047,60.8791959 L20.4628487,62.7164732 C20.1690941,63.2510961 19.5223402,63.4349542 19.0162924,63.1246121 C18.5102443,62.8168779 18.3362133,62.1322999 18.6287336,61.596373 Z M23.8286844,48 L6.17131563,48 C2.7622809,48 0,50.9604996 0,54.6141635 L0,84.3858364 C0,88.0395004 2.7622809,91 6.17131563,91 L23.8286844,91 C27.2377191,91 30,88.0395004 30,84.3858364 L30,54.6141635 C30,50.9604996 27.2377191,48 23.8286844,48 Z" id="Shape"></path><path d="M22.2664252,15.2889108 L14.5377875,32.2807912 C14.2428107,32.9301625 13.5047517,33.2026897 12.890114,32.8910438 L10.2390258,31.5453588 C9.62438802,31.2324088 9.36520344,30.4539457 9.66141439,29.8045744 L15.133912,17.7716474 C15.2869544,17.4352262 15.0549224,17.0479506 14.7031719,17.0479506 L9.28621384,17.0479506 C8.60492862,17.0479506 8.05200148,16.4624733 8.05200148,15.7439923 L8.05200148,13.2025776 C8.05200148,12.4840966 8.60492862,11.8986193 9.28621384,11.8986193 L20.3274777,11.8986193 L20.3287119,11.8986193 L20.3385856,11.8986193 L20.3385856,11.9012272 C21.5653926,11.909051 22.4626651,12.9613453 22.4626651,14.2626957 C22.4626651,14.6291079 22.3762701,14.9681371 22.2454437,15.2784792 L22.2664252,15.2889108 Z M23.8289381,0 L6.17106182,0 C2.76340149,0 0,2.96173131 0,6.61396006 L0,36.3860399 C0,40.0395915 2.76340149,43 6.17106182,43 L23.8289381,43 C27.2378328,43 30,40.0395915 30,36.3860399 L30,6.61396006 C30,2.96173131 27.2378328,0 23.8289381,0 Z" id="Shape"></path><path d="M24.4334733,792.154523 L16.0293754,800.025215 C15.5702296,800.455522 14.8815108,800.463345 14.4137249,800.044775 L5.58750912,792.151915 C5.10614664,791.720305 5.00987405,790.975745 5.36410757,790.424171 L8.19550723,786.028527 C8.42508023,785.669939 8.80646756,785.45609 9.2150085,785.45609 L20.7701802,785.45609 C21.1787213,785.45609 21.5601086,785.669939 21.790916,786.028527 L24.6358924,790.445034 C24.9839547,790.987481 24.8975561,791.720305 24.4334733,792.154523 Z M8.90644271,779.352261 C9.41372489,779.041919 10.0604789,779.225777 10.3529993,779.7604 L11.3564553,781.596373 C11.6502097,782.1323 11.4749443,782.816878 10.9701308,783.124612 C10.464083,783.434954 9.81609481,783.251096 9.52357449,782.716473 L8.51888415,780.879196 C8.22759817,780.343269 8.40039487,779.659995 8.90644271,779.352261 Z M13.9348309,779.468313 C13.9348309,778.851541 14.4075537,778.349517 14.9925943,778.349517 C15.5776352,778.349517 16.0515923,778.851541 16.0515923,779.468313 L16.0515923,781.588549 C16.0515923,782.207929 15.5776352,782.707345 14.9925943,782.707345 C14.4075537,782.707345 13.9348309,782.207929 13.9348309,781.588549 L13.9348309,779.468313 Z M18.6287336,781.596373 L19.6321896,779.7604 C19.9247099,779.225777 20.5726981,779.041919 21.0787459,779.352261 C21.584794,779.659995 21.758825,780.343269 21.4663047,780.879196 L20.4628487,782.716473 C20.1690941,783.251096 19.5223402,783.434954 19.0162924,783.124612 C18.5102443,782.816878 18.3362133,782.1323 18.6287336,781.596373 Z M23.8286844,768 L6.17131563,768 C2.7622809,768 0,770.9605 0,774.614164 L0,804.385836 C0,808.0395 2.7622809,811 6.17131563,811 L23.8286844,811 C27.2377191,811 30,808.0395 30,804.385836 L30,774.614164 C30,770.9605 27.2377191,768 23.8286844,768 Z" id="Shape"></path><path d="M24.4334733,744.154523 L16.0293754,752.025215 C15.5702296,752.455522 14.8815108,752.463345 14.4137249,752.044775 L5.58750912,744.151915 C5.10614664,743.720305 5.00987405,742.975745 5.36410757,742.424171 L8.19550723,738.028527 C8.42508023,737.669939 8.80646756,737.45609 9.2150085,737.45609 L20.7701802,737.45609 C21.1787213,737.45609 21.5601086,737.669939 21.790916,738.028527 L24.6358924,742.445034 C24.9839547,742.987481 24.8975561,743.720305 24.4334733,744.154523 Z M8.90644271,731.352261 C9.41372489,731.041919 10.0604789,731.225777 10.3529993,731.7604 L11.3564553,733.596373 C11.6502097,734.1323 11.4749443,734.816878 10.9701308,735.124612 C10.464083,735.434954 9.81609481,735.251096 9.52357449,734.716473 L8.51888415,732.879196 C8.22759817,732.343269 8.40039487,731.659995 8.90644271,731.352261 Z M13.9348309,731.468313 C13.9348309,730.851541 14.4075537,730.349517 14.9925943,730.349517 C15.5776352,730.349517 16.0515923,730.851541 16.0515923,731.468313 L16.0515923,733.588549 C16.0515923,734.207929 15.5776352,734.707345 14.9925943,734.707345 C14.4075537,734.707345 13.9348309,734.207929 13.9348309,733.588549 L13.9348309,731.468313 Z M18.6287336,733.596373 L19.6321896,731.7604 C19.9247099,731.225777 20.5726981,731.041919 21.0787459,731.352261 C21.584794,731.659995 21.758825,732.343269 21.4663047,732.879196 L20.4628487,734.716473 C20.1690941,735.251096 19.5223402,735.434954 19.0162924,735.124612 C18.5102443,734.816878 18.3362133,734.1323 18.6287336,733.596373 Z M23.8286844,720 L6.17131563,720 C2.7622809,720 0,722.9605 0,726.614164 L0,756.385836 C0,760.0395 2.7622809,763 6.17131563,763 L23.8286844,763 C27.2377191,763 30,760.0395 30,756.385836 L30,726.614164 C30,722.9605 27.2377191,720 23.8286844,720 Z" id="Shape"></path><path d="M22.2664252,687.288911 L14.5377875,704.280791 C14.2428107,704.930162 13.5047517,705.20269 12.890114,704.891044 L10.2390258,703.545359 C9.62438802,703.232409 9.36520344,702.453946 9.66141439,701.804574 L15.133912,689.771647 C15.2869544,689.435226 15.0549224,689.047951 14.7031719,689.047951 L9.28621384,689.047951 C8.60492862,689.047951 8.05200148,688.462473 8.05200148,687.743992 L8.05200148,685.202578 C8.05200148,684.484097 8.60492862,683.898619 9.28621384,683.898619 L20.3274777,683.898619 L20.3287119,683.898619 L20.3385856,683.898619 L20.3385856,683.901227 C21.5653926,683.909051 22.4626651,684.961345 22.4626651,686.262696 C22.4626651,686.629108 22.3762701,686.968137 22.2454437,687.278479 L22.2664252,687.288911 Z M23.8289381,672 L6.17106182,672 C2.76340149,672 0,674.961731 0,678.61396 L0,708.38604 C0,712.039592 2.76340149,715 6.17106182,715 L23.8289381,715 C27.2378328,715 30,712.039592 30,708.38604 L30,678.61396 C30,674.961731 27.2378328,672 23.8289381,672 Z" id="Shape"></path><path d="M22.2664252,639.288911 L14.5377875,656.280791 C14.2428107,656.930162 13.5047517,657.20269 12.890114,656.891044 L10.2390258,655.545359 C9.62438802,655.232409 9.36520344,654.453946 9.66141439,653.804574 L15.133912,641.771647 C15.2869544,641.435226 15.0549224,641.047951 14.7031719,641.047951 L9.28621384,641.047951 C8.60492862,641.047951 8.05200148,640.462473 8.05200148,639.743992 L8.05200148,637.202578 C8.05200148,636.484097 8.60492862,635.898619 9.28621384,635.898619 L20.3274777,635.898619 L20.3287119,635.898619 L20.3385856,635.898619 L20.3385856,635.901227 C21.5653926,635.909051 22.4626651,636.961345 22.4626651,638.262696 C22.4626651,638.629108 22.3762701,638.968137 22.2454437,639.278479 L22.2664252,639.288911 Z M23.8289381,624 L6.17106182,624 C2.76340149,624 0,626.961731 0,630.61396 L0,660.38604 C0,664.039592 2.76340149,667 6.17106182,667 L23.8289381,667 C27.2378328,667 30,664.039592 30,660.38604 L30,630.61396 C30,626.961731 27.2378328,624 23.8289381,624 Z" id="Shape"></path><path d="M21.5280178,603.353133 C21.177487,606.875124 18.1732905,609.455658 14.7975808,609.081422 C11.4638361,608.711097 9.0212293,605.538567 9.37546283,601.970937 C9.57171067,599.368236 11.060232,597.446202 13.3497901,596.800743 C13.4497655,596.770751 13.6188595,596.749888 13.715132,596.734241 C13.0153048,595.044311 10.914589,590.909459 8.72377189,589.481625 C8.43742284,589.296463 8.28067143,588.958737 8.31523079,588.602757 C8.34979015,588.24808 8.569489,587.952082 8.88916315,587.832117 C8.98296716,587.794303 9.08294246,587.777351 9.18538632,587.777351 C9.3260923,587.777351 9.4667983,587.813862 9.59022461,587.882972 C10.6467539,588.476273 11.6983461,589.634188 12.6302147,590.931626 C12.607998,589.802398 12.7931375,588.507568 13.5312268,587.491784 C14.7025425,585.884004 16.7526536,585.36242 17.9819797,585.285487 C18.0029622,585.284183 18.0227104,585.281575 18.0436929,585.278967 C18.4472969,585.218985 18.82745,585.490208 18.926191,585.907475 L18.9385337,585.962241 C19.1718094,587.186658 19.4026166,589.525959 18.3028881,591.154603 C17.2944952,592.647635 15.4085411,593.193994 14.1545297,593.33091 C14.9012589,594.647907 15.4616144,595.855373 15.7171069,596.533431 C15.7825228,596.534735 15.8528758,596.519088 15.919526,596.525607 C19.4248333,596.886804 21.8143669,599.556006 21.5551716,602.997152 C21.5452974,603.128852 21.5378918,603.218825 21.5280178,603.353133 M23.8286842,576 L6.17131572,576 C2.76228091,576 0,578.961731 0,582.61396 L0,612.38604 C0,616.039591 2.76228091,619 6.17131572,619 L23.8286842,619 C27.2377191,619 30,616.039591 30,612.38604 L30,582.61396 C30,578.961731 27.2377191,576 23.8286842,576" id="Shape"></path><path d="M21.5280178,555.353133 C21.177487,558.875124 18.1732905,561.455658 14.7975808,561.081422 C11.4638361,560.711097 9.0212293,557.538567 9.37546283,553.970937 C9.57171067,551.368236 11.060232,549.446202 13.3497901,548.800743 C13.4497655,548.770751 13.6188595,548.749888 13.715132,548.734241 C13.0153048,547.044311 10.914589,542.909459 8.72377189,541.481625 C8.43742284,541.296463 8.28067143,540.958737 8.31523079,540.602757 C8.34979015,540.24808 8.569489,539.952082 8.88916315,539.832117 C8.98296716,539.794303 9.08294246,539.777351 9.18538632,539.777351 C9.3260923,539.777351 9.4667983,539.813862 9.59022461,539.882972 C10.6467539,540.476273 11.6983461,541.634188 12.6302147,542.931626 C12.607998,541.802398 12.7931375,540.507568 13.5312268,539.491784 C14.7025425,537.884004 16.7526536,537.36242 17.9819797,537.285487 C18.0029622,537.284183 18.0227104,537.281575 18.0436929,537.278967 C18.4472969,537.218985 18.82745,537.490208 18.926191,537.907475 L18.9385337,537.962241 C19.1718094,539.186658 19.4026166,541.525959 18.3028881,543.154603 C17.2944952,544.647635 15.4085411,545.193994 14.1545297,545.33091 C14.9012589,546.647907 15.4616144,547.855373 15.7171069,548.533431 C15.7825228,548.534735 15.8528758,548.519088 15.919526,548.525607 C19.4248333,548.886804 21.8143669,551.556006 21.5551716,554.997152 C21.5452974,555.128852 21.5378918,555.218825 21.5280178,555.353133 M23.8286842,528 L6.17131572,528 C2.76228091,528 0,530.961731 0,534.61396 L0,564.38604 C0,568.039591 2.76228091,571 6.17131572,571 L23.8286842,571 C27.2377191,571 30,568.039591 30,564.38604 L30,534.61396 C30,530.961731 27.2377191,528 23.8286842,528" id="Shape"></path><path d="M24.4334733,504.154523 L16.0293754,512.025215 C15.5702296,512.455522 14.8815108,512.463345 14.4137249,512.044775 L5.58750912,504.151915 C5.10614664,503.720305 5.00987405,502.975745 5.36410757,502.424171 L8.19550723,498.028527 C8.42508023,497.669939 8.80646756,497.45609 9.2150085,497.45609 L20.7701802,497.45609 C21.1787213,497.45609 21.5601086,497.669939 21.790916,498.028527 L24.6358924,502.445034 C24.9839547,502.987481 24.8975561,503.720305 24.4334733,504.154523 Z M8.90644271,491.352261 C9.41372489,491.041919 10.0604789,491.225777 10.3529993,491.7604 L11.3564553,493.596373 C11.6502097,494.1323 11.4749443,494.816878 10.9701308,495.124612 C10.464083,495.434954 9.81609481,495.251096 9.52357449,494.716473 L8.51888415,492.879196 C8.22759817,492.343269 8.40039487,491.659995 8.90644271,491.352261 Z M13.9348309,491.468313 C13.9348309,490.851541 14.4075537,490.349517 14.9925943,490.349517 C15.5776352,490.349517 16.0515923,490.851541 16.0515923,491.468313 L16.0515923,493.588549 C16.0515923,494.207929 15.5776352,494.707345 14.9925943,494.707345 C14.4075537,494.707345 13.9348309,494.207929 13.9348309,493.588549 L13.9348309,491.468313 Z M18.6287336,493.596373 L19.6321896,491.7604 C19.9247099,491.225777 20.5726981,491.041919 21.0787459,491.352261 C21.584794,491.659995 21.758825,492.343269 21.4663047,492.879196 L20.4628487,494.716473 C20.1690941,495.251096 19.5223402,495.434954 19.0162924,495.124612 C18.5102443,494.816878 18.3362133,494.1323 18.6287336,493.596373 Z M23.8286844,480 L6.17131563,480 C2.7622809,480 0,482.9605 0,486.614164 L0,516.385836 C0,520.0395 2.7622809,523 6.17131563,523 L23.8286844,523 C27.2377191,523 30,520.0395 30,516.385836 L30,486.614164 C30,482.9605 27.2377191,480 23.8286844,480 Z" id="Shape"></path></g></g></svg>